<?xml version="1.0" encoding="UTF-8"?>
<!DOCTYPE svg PUBLIC "-//W3C//DTD SVG 1.1//EN" "http://www.w3.org/Graphics/SVG/1.1/DTD/svg11.dtd">
<!-- Creator: CorelDRAW 2018 (64 Bit Versão de avaliação) -->
<svg xmlns="http://www.w3.org/2000/svg" xml:space="preserve" width="19px" height="19px" version="1.1" style="shape-rendering:geometricPrecision; text-rendering:geometricPrecision; image-rendering:optimizeQuality; fill-rule:evenodd; clip-rule:evenodd"
viewBox="0 0 0.74 0.73"
 xmlns:xlink="http://www.w3.org/1999/xlink">
 <defs>
  <style type="text/css">
   <![CDATA[
    .fil0 {fill:#33CC99;fill-rule:nonzero}
   ]]>
  </style>
 </defs>
 <g id="Camada_x0020_1">
  <metadata id="CorelCorpID_0Corel-Layer"/>
  <path class="fil0" d="M0.37 0.07c0.09,0 0.17,0.04 0.23,0.1 0.06,0.05 0.1,0.14 0.1,0.23 0,0.07 -0.02,0.13 -0.06,0.18l0.09 0.09c0.01,0.01 0.01,0.03 0,0.05 -0.01,0.01 -0.04,0.01 -0.05,0l-0.08 -0.09c-0.06,0.06 -0.14,0.1 -0.23,0.1 -0.09,0 -0.17,-0.04 -0.23,-0.1l-0.08 0.09c-0.01,0.01 -0.04,0.01 -0.05,0 -0.01,-0.02 -0.01,-0.04 0,-0.05l0.09 -0.09c-0.04,-0.05 -0.06,-0.11 -0.06,-0.18 0,-0.09 0.04,-0.18 0.1,-0.23 0.06,-0.06 0.14,-0.1 0.23,-0.1zm0.14 -0.03l0.03 0.02c0.03,0.01 0.04,0.02 0.06,0.03 0.03,0.02 0.05,0.05 0.07,0.07 0.01,0.01 0.03,0.05 0.03,0.06 0.02,0 0.06,-0.08 0.03,-0.14 -0.01,-0.01 -0.01,-0.02 -0.02,-0.03 -0.03,-0.03 -0.06,-0.05 -0.11,-0.05 -0.03,0 -0.08,0.02 -0.09,0.04zm-0.28 0l-0.03 0.02c-0.03,0.01 -0.04,0.02 -0.06,0.03 -0.03,0.02 -0.05,0.05 -0.07,0.07 -0.01,0.01 -0.03,0.05 -0.03,0.06 -0.02,0 -0.06,-0.08 -0.03,-0.14 0.01,-0.01 0.01,-0.02 0.02,-0.03 0.03,-0.03 0.06,-0.05 0.11,-0.05 0.03,0 0.08,0.02 0.09,0.04zm0.1 0.18l0 0.22 0.22 0c0.05,0 0.06,-0.07 0,-0.07l-0.15 0 0 -0.16c0,-0.04 -0.07,-0.05 -0.07,0.01zm0.22 -0.01c-0.04,-0.04 -0.11,-0.07 -0.18,-0.07 -0.07,0 -0.14,0.03 -0.18,0.07 -0.05,0.05 -0.08,0.12 -0.08,0.19 0,0.07 0.03,0.13 0.08,0.18 0.04,0.05 0.11,0.08 0.18,0.08 0.07,0 0.14,-0.03 0.18,-0.08 0.05,-0.05 0.08,-0.11 0.08,-0.18 0,-0.07 -0.03,-0.14 -0.08,-0.19z"/>
 </g>
</svg>
