<svg xmlns="http://www.w3.org/2000/svg" width="34" height="34" viewBox="0 0 34 34">
  <g id="Grupo_8533" data-name="Grupo 8533" transform="translate(-643 -3695)">
    <rect id="Retângulo_192" data-name="Retângulo 192" width="34" height="34" transform="translate(643 3695)" fill="#fff"/>
    <g id="ic_twitter" transform="translate(647.997 3700)">
      <path id="Caminho_8201" data-name="Caminho 8201" d="M22.682,1.32A4.334,4.334,0,0,0,19.5,0H4.5a4.335,4.335,0,0,0-3.18,1.32A4.335,4.335,0,0,0,0,4.5v15a4.335,4.335,0,0,0,1.32,3.18A4.335,4.335,0,0,0,4.5,24h15A4.508,4.508,0,0,0,24,19.5V4.5A4.335,4.335,0,0,0,22.682,1.32Zm-4.32,7.914a4.143,4.143,0,0,1,.016.422,9.455,9.455,0,0,1-1.555,5.164,9.848,9.848,0,0,1-1.882,2.141,8.451,8.451,0,0,1-2.625,1.484A9.553,9.553,0,0,1,9.035,19,9.208,9.208,0,0,1,4,17.531a6.332,6.332,0,0,0,.781.047,6.482,6.482,0,0,0,4.078-1.406,3.113,3.113,0,0,1-1.9-.656A3.335,3.335,0,0,1,5.8,13.891a4.4,4.4,0,0,0,.609.062,3.054,3.054,0,0,0,.8-.125A3.282,3.282,0,0,1,5.285,12.7,3.12,3.12,0,0,1,4.5,10.61v-.031a3.874,3.874,0,0,0,1.562.406A3.1,3.1,0,0,1,4.644,8.25,3.25,3.25,0,0,1,5.1,6.594a9.3,9.3,0,0,0,3,2.422,9.29,9.29,0,0,0,3.781,1.016,3.016,3.016,0,0,1-.078-.75A3.281,3.281,0,0,1,15.081,6a3.119,3.119,0,0,1,2.391,1.031,6.527,6.527,0,0,0,2.094-.8,3.191,3.191,0,0,1-1.453,1.828A6.956,6.956,0,0,0,20,7.531,6.381,6.381,0,0,1,18.362,9.234Z" transform="translate(0)" fill="#3c9"/>
    </g>
  </g>
</svg>
