<svg xmlns="http://www.w3.org/2000/svg" width="34" height="34" viewBox="0 0 34 34">
  <g id="Grupo_8534" data-name="Grupo 8534" transform="translate(-687 -3695)">
    <rect id="Retângulo_193" data-name="Retângulo 193" width="34" height="34" transform="translate(687 3695)" fill="#fff"/>
    <g id="ic_dribble" transform="translate(692 3699.999)">
      <path id="Caminho_8202" data-name="Caminho 8202" d="M12,0A12,12,0,1,0,24,12,12,12,0,0,0,12,0Zm7.874,5.808a9.976,9.976,0,0,1,2.142,5.911A21.291,21.291,0,0,0,15,11.552q-.381-.875-.784-1.7A14.482,14.482,0,0,0,19.874,5.809ZM18.493,4.375a12.667,12.667,0,0,1-5.194,3.7A51.4,51.4,0,0,0,9.638,2.262a9.984,9.984,0,0,1,8.856,2.113ZM7.691,2.952A49.167,49.167,0,0,1,11.4,8.709,35.447,35.447,0,0,1,2.246,9.7,10.061,10.061,0,0,1,7.691,2.952ZM1.977,12l.008-.324h.054a36.88,36.88,0,0,0,10.3-1.171q.356.723.7,1.487a15.627,15.627,0,0,0-8.578,6.6A9.976,9.976,0,0,1,1.977,12Zm3.941,7.959A13.769,13.769,0,0,1,13.8,13.83a34.241,34.241,0,0,1,2.015,7.435,9.988,9.988,0,0,1-9.9-1.306Zm11.745.308a36.532,36.532,0,0,0-1.892-6.827,19.868,19.868,0,0,1,6.106.261A10.044,10.044,0,0,1,17.663,20.267Z" transform="translate(0 0)" fill="#3c9"/>
    </g>
  </g>
</svg>
