<svg xmlns="http://www.w3.org/2000/svg" width="34" height="34" viewBox="0 0 34 34">
  <g id="Grupo_8531" data-name="Grupo 8531" transform="translate(-555 -3695)">
    <rect id="Retângulo_191" data-name="Retângulo 191" width="34" height="34" transform="translate(555 3695)" fill="#fff"/>
    <g id="Camada_x0020_1" transform="translate(560 3700)">
      <path id="Caminho_8200" data-name="Caminho 8200" d="M7.542,0h8.917A7.56,7.56,0,0,1,24,7.542v8.917A7.56,7.56,0,0,1,16.458,24H7.542A7.56,7.56,0,0,1,0,16.458V7.542A7.56,7.56,0,0,1,7.542,0ZM17.988,4.053a1.51,1.51,0,1,1-1.51,1.51A1.512,1.512,0,0,1,17.988,4.053ZM12,5.817A6.185,6.185,0,1,1,7.629,7.629,6.172,6.172,0,0,1,12,5.817Zm2.838,3.348A4.017,4.017,0,1,0,16.016,12,4.006,4.006,0,0,0,14.841,9.165Zm1.617-6.991H7.542A5.383,5.383,0,0,0,2.174,7.542v8.917a5.383,5.383,0,0,0,5.368,5.368h8.917a5.383,5.383,0,0,0,5.368-5.368V7.542a5.383,5.383,0,0,0-5.368-5.368Z" fill="#3c9"/>
    </g>
  </g>
</svg>
