<svg xmlns="http://www.w3.org/2000/svg" width="34" height="34" viewBox="0 0 34 34">
  <g id="Grupo_8541" data-name="Grupo 8541" transform="translate(-1078 -4264)">
    <g id="Grupo_8540" data-name="Grupo 8540" transform="translate(391 569)">
      <rect id="Retângulo_193" data-name="Retângulo 193" width="34" height="34" transform="translate(687 3695)" fill="#fff"/>
    </g>
    <g id="Camada_x0020_1" transform="translate(1083 4269.01)">
      <path id="Caminho_8203" data-name="Caminho 8203" d="M23.11,16.235A11.774,11.774,0,0,1,16.7,22.591a11.894,11.894,0,0,1-4.53.889,11.508,11.508,0,0,1-1.51-.095,11.482,11.482,0,0,1-1.459-.27,11.872,11.872,0,0,1-1.415-.459h0a11.95,11.95,0,0,1-1.35-.634h0l-.088-.051L.54,23.815,0,23.99l.182-.539L2.064,17.89,2.006,17.8h0a13.651,13.651,0,0,1-.737-1.414,11.721,11.721,0,0,1-.533-1.494,11.918,11.918,0,0,1-.321-1.567,11.551,11.551,0,0,1-.109-1.589A11.639,11.639,0,0,1,3.779,3.43a11.918,11.918,0,0,1,16.756-.007,11.689,11.689,0,0,1,2.568,12.8ZM18.266,14.5c-.073-.124-.27-.2-.569-.343s-1.751-.853-2.028-.955-.467-.146-.664.146-.766.955-.941,1.152-.35.219-.642.073a7.907,7.907,0,0,1-2.385-1.458,9.231,9.231,0,0,1-1.649-2.033c-.175-.292-.015-.452.131-.6s.3-.343.445-.51a2.44,2.44,0,0,0,.3-.488.536.536,0,0,0-.022-.517c-.073-.146-.664-1.589-.912-2.179S8.841,6.3,8.666,6.3,8.294,6.28,8.1,6.28a1.076,1.076,0,0,0-.788.372A3.285,3.285,0,0,0,6.274,9.1a5.662,5.662,0,0,0,1.211,3.039,12.136,12.136,0,0,0,5.055,4.431c3.013,1.173,3.013.787,3.553.736a2.979,2.979,0,0,0,2-1.392,2.6,2.6,0,0,0,.175-1.4ZM8.426,2.781A9.819,9.819,0,0,0,5.245,4.888a9.2,9.2,0,0,0-1.218,1.48,9.513,9.513,0,0,0-.9,1.676,9.352,9.352,0,0,0-.554,1.815,9.522,9.522,0,0,0-.19,1.888c0,.262.007.517.029.758.022.262.051.517.088.751A6.725,6.725,0,0,0,2.648,14c.058.241.131.488.212.736.073.226.153.437.241.649s.182.423.292.641h0c.109.211.219.423.336.612.124.211.248.408.379.59h0l.08.117.175.248-.095.284-.044.138-.948,2.8,2.969-.94h0l.124-.036.263-.087.233.146.117.073c.175.109.365.219.562.321s.379.2.591.292.416.182.613.255h0c.219.08.423.153.62.211.233.073.467.131.693.182s.452.087.7.124.474.058.708.08.467.022.715.022a9.835,9.835,0,0,0,3.742-.729,9.924,9.924,0,0,0,1.692-.9,10.371,10.371,0,0,0,1.488-1.21,10.206,10.206,0,0,0,1.218-1.472,10.015,10.015,0,0,0,.9-1.676,9.352,9.352,0,0,0,.554-1.815,9.613,9.613,0,0,0-.554-5.59,10.015,10.015,0,0,0-.9-1.676h0A9.825,9.825,0,0,0,19.105,4.91,9.819,9.819,0,0,0,15.925,2.8a9.348,9.348,0,0,0-1.831-.547,9.66,9.66,0,0,0-1.911-.182A9.835,9.835,0,0,0,8.44,2.8Z" transform="translate(0)" fill="#3c9" fill-rule="evenodd"/>
    </g>
  </g>
</svg>
