<?xml version="1.0" encoding="UTF-8"?>
<!DOCTYPE svg PUBLIC "-//W3C//DTD SVG 1.1//EN" "http://www.w3.org/Graphics/SVG/1.1/DTD/svg11.dtd">
<!-- Creator: CorelDRAW 2018 (64 Bit Versão de avaliação) -->
<svg xmlns="http://www.w3.org/2000/svg" xml:space="preserve" width="72px" height="72px" version="1.1" style="shape-rendering:geometricPrecision; text-rendering:geometricPrecision; image-rendering:optimizeQuality; fill-rule:evenodd; clip-rule:evenodd"
viewBox="0 0 1.67 1.67"
 xmlns:xlink="http://www.w3.org/1999/xlink">
 <defs>
  <style type="text/css">
   <![CDATA[
    .fil0 {fill:#33CC99;fill-rule:nonzero}
   ]]>
  </style>
 </defs>
 <g id="Camada_x0020_1">
  <metadata id="CorelCorpID_0Corel-Layer"/>
  <path class="fil0" d="M0.52 0l0.62 0c0.15,0 0.28,0.06 0.37,0.15 0.1,0.1 0.16,0.23 0.16,0.37l0 0.62c0,0.15 -0.06,0.28 -0.16,0.37 -0.09,0.1 -0.22,0.16 -0.37,0.16l-0.62 0c-0.14,0 -0.27,-0.06 -0.37,-0.16 -0.09,-0.09 -0.15,-0.22 -0.15,-0.37l0 -0.62c0,-0.14 0.06,-0.27 0.15,-0.37 0.1,-0.09 0.23,-0.15 0.37,-0.15zm0.73 0.28c0.06,0 0.11,0.05 0.11,0.11 0,0.05 -0.05,0.1 -0.11,0.1 -0.06,0 -0.1,-0.05 -0.1,-0.1 0,-0.06 0.04,-0.11 0.1,-0.11zm-0.42 0.12c0.12,0 0.23,0.05 0.31,0.13 0.08,0.08 0.12,0.19 0.12,0.3 0,0.12 -0.04,0.23 -0.12,0.31 -0.08,0.08 -0.19,0.12 -0.31,0.12 -0.11,0 -0.22,-0.04 -0.3,-0.12 -0.08,-0.08 -0.13,-0.19 -0.13,-0.31 0,-0.11 0.05,-0.22 0.13,-0.3 0.08,-0.08 0.19,-0.13 0.3,-0.13zm0.2 0.24c-0.05,-0.05 -0.12,-0.08 -0.2,-0.08 -0.07,0 -0.14,0.03 -0.19,0.08 -0.05,0.05 -0.08,0.12 -0.08,0.19 0,0.08 0.03,0.15 0.08,0.2 0.05,0.05 0.12,0.08 0.19,0.08 0.08,0 0.15,-0.03 0.2,-0.08 0.05,-0.05 0.08,-0.12 0.08,-0.2 0,-0.07 -0.03,-0.14 -0.08,-0.19zm0.11 -0.49l-0.62 0c-0.1,0 -0.19,0.04 -0.26,0.11 -0.07,0.07 -0.11,0.16 -0.11,0.26l0 0.62c0,0.11 0.04,0.2 0.11,0.27 0.07,0.07 0.16,0.11 0.26,0.11l0.62 0c0.11,0 0.2,-0.04 0.27,-0.11 0.07,-0.07 0.11,-0.16 0.11,-0.27l0 -0.62c0,-0.1 -0.04,-0.19 -0.11,-0.26 -0.07,-0.07 -0.16,-0.11 -0.27,-0.11z"/>
 </g>
</svg>
