<?xml version="1.0" encoding="UTF-8"?>
<!DOCTYPE svg PUBLIC "-//W3C//DTD SVG 1.1//EN" "http://www.w3.org/Graphics/SVG/1.1/DTD/svg11.dtd">
<!-- Creator: CorelDRAW 2018 (64 Bit Versão de avaliação) -->
<svg xmlns="http://www.w3.org/2000/svg" xml:space="preserve" width="24px" height="24px" version="1.1" style="shape-rendering:geometricPrecision; text-rendering:geometricPrecision; image-rendering:optimizeQuality; fill-rule:evenodd; clip-rule:evenodd"
viewBox="0 0 0.19 0.2"
 xmlns:xlink="http://www.w3.org/1999/xlink">
 <defs>
  <style type="text/css">
   <![CDATA[
    .fil0 {fill:white}
   ]]>
  </style>
 </defs>
 <g id="Camada_x0020_1">
  <metadata id="CorelCorpID_0Corel-Layer"/>
  <path class="fil0" d="M0.05 0.19c0,0 -0.01,0.01 -0.01,0.01l-0.03 0c0,0 0,-0.01 0,-0.01l0 -0.12c0,0 0,-0.01 0,-0.01l0.03 0c0,0 0.01,0.01 0.01,0.01l0 0.12zm-0.02 -0.14c-0.02,0 -0.03,-0.01 -0.03,-0.02 0,-0.02 0.01,-0.03 0.03,-0.03 0.01,0 0.02,0.01 0.02,0.03 0,0.01 -0.01,0.02 -0.02,0.02zm0.16 0.14c0,0 0,0.01 0,0.01l-0.03 0c-0.01,0 -0.01,-0.01 -0.01,-0.01l0 -0.06c0,0 0,-0.03 -0.02,-0.03 -0.02,0 -0.02,0.02 -0.02,0.03l0 0.06c0,0 -0.01,0.01 -0.01,0.01l-0.03 0c0,0 0,-0.01 0,-0.01l0 -0.12c0,0 0,-0.01 0,-0.01l0.03 0c0,0 0.01,0.01 0.01,0.01l0 0.01c0,-0.01 0.01,-0.02 0.04,-0.02 0.04,0 0.04,0.05 0.04,0.07l0 0.06 0 0z"/>
 </g>
</svg>
