<?xml version="1.0" encoding="UTF-8"?>
<!DOCTYPE svg PUBLIC "-//W3C//DTD SVG 1.1//EN" "http://www.w3.org/Graphics/SVG/1.1/DTD/svg11.dtd">
<!-- Creator: CorelDRAW 2018 (64 Bit Versão de avaliação) -->
<svg xmlns="http://www.w3.org/2000/svg" xml:space="preserve" width="120px" height="120px" version="1.1" style="shape-rendering:geometricPrecision; text-rendering:geometricPrecision; image-rendering:optimizeQuality; fill-rule:evenodd; clip-rule:evenodd"
viewBox="0 0 8.58 8.58"
 xmlns:xlink="http://www.w3.org/1999/xlink">
 <defs>
  <style type="text/css">
   <![CDATA[
    .fil0 {fill:white}
   ]]>
  </style>
 </defs>
 <g id="Camada_x0020_1">
  <metadata id="CorelCorpID_0Corel-Layer"/>
  <g id="_2105854752">
   <path class="fil0" d="M6.58 6.58l-0.29 0 0 0.57 -2.57 0 0 0.29 2.57 0 0 0.43c0,0.23 -0.19,0.43 -0.43,0.43l-3.14 0c-0.16,0 -0.3,-0.09 -0.37,-0.22l-0.25 0.14c0.13,0.23 0.36,0.36 0.62,0.36l3.14 0c0.4,0 0.72,-0.32 0.72,-0.71l0 -1.29zm0 0z"/>
   <path class="fil0" d="M4.15 7.72l0.28 0 0 0.29 -0.28 0 0 -0.29zm0 0z"/>
   <path class="fil0" d="M5.01 3.86l0 -0.28 -0.44 0c-0.07,-0.92 -0.8,-1.64 -1.71,-1.71l0 -0.44 -0.29 0 0 0.44c-0.09,0 -0.19,0.02 -0.28,0.04l0 -0.77 2.29 0 0 -0.28 -2.29 0 0 -0.14c0,-0.24 0.19,-0.43 0.43,-0.43l3.14 0c0.11,0 0.21,0.03 0.29,0.1l0.19 -0.21c-0.13,-0.12 -0.3,-0.18 -0.48,-0.18l-3.14 0c-0.4,0 -0.72,0.32 -0.72,0.72l0 1.28c-0.64,0.27 -1.08,0.88 -1.13,1.58l-0.44 0 0 0.28 0.44 0c0.06,0.92 0.79,1.64 1.7,1.71l0 0.44 0.29 0 0 -0.44c0.92,-0.07 1.64,-0.79 1.71,-1.71l0.44 0zm-2.44 1.15l0 0.28c-0.19,-0.02 -0.39,-0.08 -0.57,-0.17l0 -0.26c0,-0.39 0.32,-0.71 0.72,-0.71 0.39,0 0.71,0.32 0.71,0.71l0 0.26c-0.18,0.09 -0.37,0.15 -0.57,0.17l0 -0.28 -0.29 0zm-0.28 -1.58c0,-0.23 0.19,-0.43 0.43,-0.43 0.23,0 0.43,0.2 0.43,0.43 0,0.24 -0.2,0.43 -0.43,0.43 -0.24,0 -0.43,-0.19 -0.43,-0.43zm1.48 1.46c-0.02,0.02 -0.04,0.03 -0.05,0.04l0 -0.07c0,-0.37 -0.21,-0.71 -0.54,-0.88 0.23,-0.2 0.31,-0.51 0.21,-0.8 -0.1,-0.28 -0.37,-0.47 -0.67,-0.47 -0.3,0 -0.57,0.19 -0.67,0.47 -0.11,0.29 -0.02,0.6 0.21,0.8 -0.33,0.17 -0.54,0.51 -0.54,0.88l0 0.07c-0.02,-0.01 -0.04,-0.02 -0.05,-0.04 -0.3,-0.26 -0.48,-0.63 -0.52,-1.03l0.28 0 0 -0.28 -0.28 0c0.07,-0.76 0.67,-1.36 1.42,-1.43l0 0.28 0.29 0 0 -0.28c0.76,0.07 1.35,0.67 1.42,1.43l-0.28 0 0 0.28 0.28 0c-0.03,0.4 -0.22,0.77 -0.51,1.03l0 0zm0 0z"/>
   <path class="fil0" d="M8.15 2.57c0.08,0 0.15,-0.06 0.15,-0.14l0 -1.71c0,-0.08 -0.07,-0.15 -0.15,-0.15l-3.14 0c-0.08,0 -0.15,0.07 -0.15,0.15l0 1.71c0,0.08 0.07,0.14 0.15,0.14l3.14 0zm-3 -1.71l2.86 0 0 1.43 -2.86 0 0 -1.43zm0 0z"/>
   <path class="fil0" d="M5.44 1.14l0.57 0 0 0.29 -0.57 0 0 -0.29zm0 0z"/>
   <path class="fil0" d="M6.29 1.14l1.43 0 0 0.29 -1.43 0 0 -0.29zm0 0z"/>
   <path class="fil0" d="M5.44 1.72l2.28 0 0 0.28 -2.28 0 0 -0.28zm0 0z"/>
   <path class="fil0" d="M8.13 2.86c-0.11,0 -0.22,0.04 -0.3,0.12l-1.25 1.1 0 -1.22 -0.29 0 0 1.43 0.04 0 -0.81 0.72c-0.53,0.03 -0.94,0.47 -0.94,1l0 0.25c0,0.14 -0.08,0.27 -0.21,0.33 -0.06,0.03 -0.09,0.1 -0.08,0.17 0.02,0.06 0.08,0.11 0.14,0.11l1.01 0c0.53,-0.01 0.96,-0.42 0.99,-0.95l2.04 -2.3c0.12,-0.14 0.15,-0.33 0.07,-0.49 -0.07,-0.16 -0.23,-0.27 -0.41,-0.27l0 0zm-2.69 3.72l-0.66 0c0.06,-0.1 0.08,-0.21 0.08,-0.32l0 -0.25c0,-0.38 0.29,-0.69 0.66,-0.72l0.63 0.63c-0.03,0.37 -0.34,0.66 -0.71,0.66l0 0zm2.81 -3.15l-1.96 2.23 -0.5 -0.5 2.23 -1.97c0.06,-0.06 0.16,-0.06 0.23,0.01 0.06,0.06 0.06,0.16 0,0.23zm0 0z"/>
   <path class="fil0" d="M0.14 7.87l3.15 0c0.08,0 0.14,-0.07 0.14,-0.15l0 -1.14c0,-0.08 -0.06,-0.14 -0.14,-0.14l-1 0 0 -0.72 -0.29 0 0 0.72 -1.86 0c-0.08,0 -0.14,0.06 -0.14,0.14l0 1.14c0,0.08 0.06,0.15 0.14,0.15zm0.15 -1.15l2.86 0 0 0.86 -2.86 0 0 -0.86zm0 0z"/>
   <path class="fil0" d="M0.57 7.01l0.72 0 0 0.28 -0.72 0 0 -0.28zm0 0z"/>
   <path class="fil0" d="M1.57 7.01l1.29 0 0 0.28 -1.29 0 0 -0.28zm0 0z"/>
   <path class="fil0" d="M0.14 2l1.43 0c0.08,0 0.15,-0.06 0.15,-0.14l0 -1.14c0,-0.08 -0.07,-0.15 -0.15,-0.15l-1.43 0c-0.08,0 -0.14,0.07 -0.14,0.15l0 1.14c0,0.08 0.06,0.14 0.14,0.14l0 0zm0.15 -1.14l1.14 0 0 0.86 -1.14 0 0 -0.86zm0 0z"/>
   <path class="fil0" d="M0.57 1.14l0.57 0 0 0.29 -0.57 0 0 -0.29zm0 0z"/>
  </g>
 </g>
</svg>
