<?xml version="1.0" encoding="UTF-8"?>
<!DOCTYPE svg PUBLIC "-//W3C//DTD SVG 1.1//EN" "http://www.w3.org/Graphics/SVG/1.1/DTD/svg11.dtd">
<!-- Creator: CorelDRAW 2018 (64 Bit Versão de avaliação) -->
<svg xmlns="http://www.w3.org/2000/svg" xml:space="preserve" width="72px" height="72px" version="1.1" style="shape-rendering:geometricPrecision; text-rendering:geometricPrecision; image-rendering:optimizeQuality; fill-rule:evenodd; clip-rule:evenodd"
viewBox="0 0 2.03 2.03"
 xmlns:xlink="http://www.w3.org/1999/xlink">
 <defs>
  <style type="text/css">
   <![CDATA[
    .fil1 {fill:none}
    .fil0 {fill:#33CC99}
   ]]>
  </style>
 </defs>
 <g id="Camada_x0020_1">
  <metadata id="CorelCorpID_0Corel-Layer"/>
  <g id="_1903151024">
   <path class="fil0" d="M1.83 0.6c0,0.01 0,0.03 0,0.06 0,0.11 -0.02,0.22 -0.05,0.33 -0.03,0.11 -0.08,0.22 -0.15,0.32 -0.07,0.1 -0.15,0.2 -0.24,0.27 -0.09,0.08 -0.2,0.15 -0.33,0.19 -0.13,0.05 -0.27,0.07 -0.42,0.07 -0.23,0 -0.44,-0.06 -0.64,-0.18 0.03,0 0.06,0 0.1,0 0.19,0 0.36,-0.06 0.52,-0.18 -0.09,0 -0.17,-0.02 -0.24,-0.08 -0.07,-0.05 -0.12,-0.12 -0.15,-0.21 0.03,0.01 0.06,0.01 0.08,0.01 0.03,0 0.06,0 0.1,-0.01 -0.1,-0.02 -0.18,-0.07 -0.25,-0.15 -0.06,-0.08 -0.1,-0.16 -0.1,-0.26l0 -0.01c0.07,0.04 0.14,0.05 0.2,0.05 -0.12,-0.08 -0.18,-0.19 -0.18,-0.34 0,-0.08 0.02,-0.15 0.06,-0.21 0.1,0.12 0.23,0.23 0.38,0.3 0.15,0.08 0.31,0.12 0.48,0.13 -0.01,-0.02 -0.01,-0.05 -0.01,-0.09 0,-0.12 0.04,-0.22 0.12,-0.3 0.09,-0.08 0.18,-0.12 0.3,-0.12 0.12,0 0.22,0.04 0.3,0.13 0.09,-0.02 0.18,-0.05 0.27,-0.1 -0.03,0.1 -0.1,0.18 -0.19,0.23 0.09,-0.01 0.17,-0.03 0.24,-0.06 -0.05,0.08 -0.12,0.15 -0.2,0.21z"/>
  </g>
  <rect class="fil1" width="2.03" height="2.03"/>
 </g>
</svg>
