<?xml version="1.0" encoding="UTF-8"?>
<!DOCTYPE svg PUBLIC "-//W3C//DTD SVG 1.1//EN" "http://www.w3.org/Graphics/SVG/1.1/DTD/svg11.dtd">
<!-- Creator: CorelDRAW 2018 (64 Bit Versão de avaliação) -->
<svg xmlns="http://www.w3.org/2000/svg" xml:space="preserve" width="6.7734mm" height="6.7734mm" version="1.1" style="shape-rendering:geometricPrecision; text-rendering:geometricPrecision; image-rendering:optimizeQuality; fill-rule:evenodd; clip-rule:evenodd"
viewBox="0 0 41.79 41.79"
 xmlns:xlink="http://www.w3.org/1999/xlink">
 <defs>
  <style type="text/css">
   <![CDATA[
    .fil0 {fill:white}
   ]]>
  </style>
 </defs>
 <g id="Camada_x0020_1">
  <metadata id="CorelCorpID_0Corel-Layer"/>
  <g id="_2613346610704">
   <path class="fil0" d="M25.79 28.24c-0.45,0 -0.82,0.37 -0.82,0.82 0,0.45 0.37,0.82 0.82,0.82 0.45,0 0.82,-0.37 0.82,-0.82 0,-0.45 -0.37,-0.82 -0.82,-0.82zm0 0z"/>
   <path class="fil0" d="M37.71 0l-33.63 0c-2.25,0 -4.08,1.83 -4.08,4.08l0 24.97c0,2.25 1.83,4.08 4.08,4.08l12.73 0 0 3.75 -0.82 0c-1.09,0 -2.11,0.42 -2.89,1.2 -0.77,0.77 -1.2,1.8 -1.2,2.89 0,0.45 0.37,0.82 0.82,0.82l16.32 0c0.45,0 0.82,-0.37 0.82,-0.82 0,-2.25 -1.83,-4.08 -4.08,-4.08l-0.82 0 0 -3.75 12.73 0c2.25,0 4.08,-1.83 4.08,-4.08l0 -24.97c0,-2.25 -1.83,-4.08 -4.08,-4.08zm-33.63 1.63l33.63 0c1.35,0 2.45,1.1 2.45,2.45l0 20.89 -3.75 0 0 -18.77c0,-0.45 -0.37,-0.82 -0.82,-0.82l-6.53 0c-0.45,0 -0.82,0.37 -0.82,0.82l0 18.77 -4.09 0c-0.01,-0.84 -0.03,-1.68 -0.07,-2.48 -0.14,-3.32 -0.47,-5.55 -0.64,-6.53 1.68,-1.24 2.14,-3.54 1.11,-5.32l-2.83 -4.9c-0.15,-0.25 -0.42,-0.41 -0.71,-0.41 -0.29,0 -0.56,0.16 -0.71,0.41l-2.83 4.9c-0.97,1.68 -0.63,3.86 0.9,5.15 -0.18,0.98 -0.53,3.28 -0.69,6.7 -0.04,0.82 -0.06,1.65 -0.07,2.49l-4.09 0 0 -12.24c0,-0.13 -0.03,-0.25 -0.08,-0.35 -0,-0 -0,-0.01 -0.01,-0.01l-3.26 -6.53c-0.14,-0.28 -0.42,-0.45 -0.73,-0.45 -0.31,0 -0.59,0.17 -0.73,0.45l-3.26 6.53c-0,0 -0,0.01 -0,0.01 -0.05,0.11 -0.08,0.23 -0.08,0.35l0 12.24 -3.75 0 0 -20.89c0,-1.35 1.1,-2.45 2.45,-2.45zm25.79 23.34l0 -17.96 4.9 0 0 1.63 -0.82 0c-0.45,0 -0.82,0.37 -0.82,0.82 0,0.45 0.37,0.82 0.82,0.82l0.82 0 0 2.45 -0.82 0c-0.45,0 -0.82,0.37 -0.82,0.82 0,0.45 0.37,0.82 0.82,0.82l0.82 0 0 2.45 -0.82 0c-0.45,0 -0.82,0.37 -0.82,0.82 0,0.45 0.37,0.82 0.82,0.82l0.82 0 0 3.26 -0.82 0c-0.45,0 -0.82,0.37 -0.82,0.82 0,0.45 0.37,0.82 0.82,0.82l0.82 0 0 1.63 -4.9 0zm-8.84 -8.22c0.3,0 0.59,-0.03 0.88,-0.1 0.15,0.97 0.37,2.69 0.51,5.05l-3.04 0c0.14,-2.36 0.37,-4.11 0.53,-5.11 0.36,0.1 0.74,0.16 1.12,0.16l0 0zm0 -1.63c-1.87,0 -3.07,-2.03 -2.12,-3.67l2.12 -3.68 2.12 3.68c0.94,1.63 -0.24,3.67 -2.12,3.67zm-1.73 8.22l3.18 0c0.02,0.54 0.03,1.08 0.03,1.63l-3.26 0c0.01,-0.55 0.02,-1.09 0.04,-1.63l0 0zm-9.02 1.63l0 -11.43 1.63 0 0 11.43 -1.63 0zm-3.26 0l0 -11.43 1.63 0 0 11.43 -1.63 0zm0.5 -13.06l1.94 -3.89 1.94 3.89 -3.89 0zm20.58 28.24l-14.41 0c0.12,-0.34 0.32,-0.65 0.58,-0.91 0.46,-0.46 1.08,-0.72 1.73,-0.72l9.79 0c1.06,0 1.97,0.68 2.31,1.63zm-4.76 -3.26l-4.9 0 0 -3.75 4.9 0 0 3.75zm14.36 -5.39l-33.63 0c-1.35,0 -2.45,-1.1 -2.45,-2.45l0 -2.45 38.52 0 0 2.45c0,1.35 -1.1,2.45 -2.45,2.45zm0 0z"/>
   <path class="fil0" d="M22.53 28.24l-4.9 0c-0.45,0 -0.82,0.37 -0.82,0.82 0,0.45 0.37,0.82 0.82,0.82l4.9 0c0.45,0 0.82,-0.37 0.82,-0.82 0,-0.45 -0.37,-0.82 -0.82,-0.82l0 0zm0 0z"/>
  </g>
 </g>
</svg>
