<?xml version="1.0" encoding="UTF-8"?>
<!DOCTYPE svg PUBLIC "-//W3C//DTD SVG 1.1//EN" "http://www.w3.org/Graphics/SVG/1.1/DTD/svg11.dtd">
<!-- Creator: CorelDRAW 2018 (64 Bit Versão de avaliação) -->
<svg xmlns="http://www.w3.org/2000/svg" xml:space="preserve" width="300px" height="300px" version="1.1" style="shape-rendering:geometricPrecision; text-rendering:geometricPrecision; image-rendering:optimizeQuality; fill-rule:evenodd; clip-rule:evenodd"
viewBox="0 0 152.82 152.82"
 xmlns:xlink="http://www.w3.org/1999/xlink">
 <defs>
  <style type="text/css">
   <![CDATA[
    .fil1 {fill:#33CC99}
    .fil0 {fill:#C3F7E4}
   ]]>
  </style>
 </defs>
 <g id="Camada_x0020_1">
  <metadata id="CorelCorpID_0Corel-Layer"/>
  <g id="_2103875104">
   <path class="fil0" d="M144.3 6.52c0.96,1.43 1.51,3.14 1.51,4.97l0 76.41 -9.98 0 0 -65.46c0,-1.65 -1.34,-2.99 -2.99,-2.99l-0.76 0 0 -0.2c0,-1.64 -1.33,-2.98 -2.98,-2.98l-23.88 0c-1.65,0 -2.98,1.34 -2.98,2.98l0 68.65 -11.25 0c-0.04,-2 -0.1,-3.97 -0.19,-5.9 -0.52,-12.15 -1.71,-20.3 -2.33,-23.88 6.16,-4.53 7.84,-12.94 4.07,-19.47l-10.34 -17.91c-0.53,-0.93 -1.52,-1.49 -2.59,-1.49 -0.06,0 -0.12,0 -0.18,0l-0.98 -1.69c-0.53,-0.93 -1.51,-1.5 -2.58,-1.5 -1.07,0 -2.05,0.57 -2.58,1.5l-10.35 17.91c-3.55,6.16 -2.3,14.13 3.28,18.84 -0.65,3.57 -1.95,12 -2.52,24.5 -0.13,2.99 -0.22,6.03 -0.25,9.09l-11.19 0 0 -41.59c0,-0.47 -0.11,-0.9 -0.3,-1.28 -0.01,-0.02 -0.01,-0.04 -0.02,-0.05l-11.94 -23.88c-0.5,-1.01 -1.54,-1.65 -2.67,-1.65 -0.1,0 -0.2,0.01 -0.3,0.02l-0.77 -1.55c-0.51,-1.01 -1.54,-1.65 -2.67,-1.65 -1.13,0 -2.17,0.64 -2.67,1.65l-11.94 23.88c-0.01,0.01 -0.01,0.03 -0.02,0.04 -0.19,0.39 -0.29,0.83 -0.29,1.29l0 44.77 -9.99 0 0 -73.22c0,-4.94 4.02,-8.96 8.96,-8.96l122.96 0c1.32,0 2.57,0.29 3.7,0.8zm-7.44 105.26l-122.97 0c-1.32,0 -2.57,-0.29 -3.7,-0.8 -0.95,-1.42 -1.51,-3.13 -1.51,-4.97l0 -8.96 137.13 0 0 5.77c0,4.94 -4.01,8.96 -8.95,8.96z"/>
   <g>
    <path class="fil1" d="M94.32 103.27c-1.65,0 -2.99,1.34 -2.99,2.98 0,1.65 1.34,2.99 2.99,2.99 1.64,0 2.98,-1.34 2.98,-2.99 0,-1.64 -1.34,-2.98 -2.98,-2.98zm0 0z"/>
    <path class="fil1" d="M137.89 0l-122.97 0c-8.23,0 -14.92,6.69 -14.92,14.92l0 91.33c0,8.23 6.69,14.93 14.92,14.93l46.56 0 0 13.73 -2.98 0c-3.99,0 -7.73,1.55 -10.55,4.37 -2.82,2.82 -4.37,6.57 -4.37,10.55 0,1.65 1.33,2.99 2.98,2.99l59.69 0c1.65,0 2.99,-1.34 2.99,-2.99 0,-8.23 -6.7,-14.92 -14.92,-14.92l-2.99 0 0 -13.73 46.56 0c8.23,0 14.93,-6.7 14.93,-14.93l0 -91.33c0,-8.23 -6.7,-14.92 -14.93,-14.92zm-122.97 5.97l122.97 0c4.94,0 8.96,4.02 8.96,8.95l0 76.41 -13.73 0 0 -68.65c0,-1.65 -1.34,-2.98 -2.99,-2.98l-23.88 0c-1.64,0 -2.98,1.33 -2.98,2.98l0 68.65 -14.94 0c-0.03,-3.09 -0.11,-6.13 -0.24,-9.08 -0.52,-12.16 -1.71,-20.3 -2.33,-23.88 6.16,-4.54 7.84,-12.94 4.07,-19.47l-10.34 -17.92c-0.54,-0.92 -1.52,-1.49 -2.59,-1.49 -1.06,0 -2.05,0.57 -2.58,1.49l-10.35 17.92c-3.55,6.16 -2.29,14.13 3.28,18.84 -0.64,3.57 -1.95,12 -2.51,24.5 -0.14,2.99 -0.22,6.03 -0.26,9.09l-14.93 0 0 -44.77c0,-0.47 -0.12,-0.9 -0.3,-1.29 -0.01,-0.01 -0.01,-0.03 -0.02,-0.04l-11.94 -23.88c-0.5,-1.01 -1.54,-1.65 -2.67,-1.65 -1.13,0 -2.16,0.64 -2.67,1.65l-11.94 23.88c0,0.01 -0.01,0.03 -0.02,0.04 -0.18,0.39 -0.29,0.83 -0.29,1.29l0 44.77 -13.73 0 0 -76.41c0,-4.93 4.02,-8.95 8.95,-8.95zm94.32 85.36l0 -65.66 17.91 0 0 5.97 -2.99 0c-1.65,0 -2.98,1.33 -2.98,2.98 0,1.65 1.33,2.99 2.98,2.99l2.99 0 0 8.95 -2.99 0c-1.65,0 -2.98,1.34 -2.98,2.99 0,1.64 1.33,2.98 2.98,2.98l2.99 0 0 8.95 -2.99 0c-1.65,0 -2.98,1.34 -2.98,2.99 0,1.65 1.33,2.98 2.98,2.98l2.99 0 0 11.94 -2.99 0c-1.65,0 -2.98,1.34 -2.98,2.99 0,1.65 1.33,2.98 2.98,2.98l2.99 0 0 5.97 -17.91 0zm-32.34 -30.05c1.09,0 2.17,-0.13 3.22,-0.36 0.56,3.55 1.37,9.83 1.85,18.47l-11.11 0c0.51,-8.63 1.36,-15.01 1.95,-18.68 1.32,0.37 2.7,0.57 4.09,0.57l0 0zm0 -5.97c-6.82,0 -11.22,-7.43 -7.76,-13.42l7.76 -13.44 7.76 13.44c3.45,5.97 -0.89,13.42 -7.76,13.42zm-6.31 30.05l11.64 0c0.07,1.96 0.11,3.96 0.13,5.97l-11.91 0c0.03,-2 0.07,-3.99 0.14,-5.97l0 0zm-32.98 5.97l0 -41.78 5.97 0 0 41.78 -5.97 0zm-11.94 0l0 -41.78 5.97 0 0 41.78 -5.97 0zm1.84 -47.75l7.11 -14.22 7.11 14.22 -14.22 0zm75.25 103.27l-52.71 0c0.44,-1.25 1.16,-2.39 2.12,-3.35 1.69,-1.69 3.94,-2.62 6.33,-2.62l35.82 0c3.89,0 7.21,2.49 8.44,5.97zm-17.4 -11.94l-17.91 0 0 -13.73 17.91 0 0 13.73zm52.53 -19.7l-122.97 0c-4.93,0 -8.95,-4.02 -8.95,-8.96l0 -8.95 140.88 0 0 8.95c0,4.94 -4.02,8.96 -8.96,8.96zm0 0z"/>
    <path class="fil1" d="M82.38 103.27l-17.91 0c-1.65,0 -2.99,1.34 -2.99,2.98 0,1.65 1.34,2.99 2.99,2.99l17.91 0c1.65,0 2.98,-1.34 2.98,-2.99 0,-1.64 -1.33,-2.98 -2.98,-2.98l0 0zm0 0z"/>
   </g>
  </g>
 </g>
</svg>
