<?xml version="1.0" encoding="UTF-8"?>
<!DOCTYPE svg PUBLIC "-//W3C//DTD SVG 1.1//EN" "http://www.w3.org/Graphics/SVG/1.1/DTD/svg11.dtd">
<!-- Creator: CorelDRAW 2018 (64 Bit Versão de avaliação) -->
<svg xmlns="http://www.w3.org/2000/svg" xml:space="preserve" width="20px" height="20px" version="1.1" style="shape-rendering:geometricPrecision; text-rendering:geometricPrecision; image-rendering:optimizeQuality; fill-rule:evenodd; clip-rule:evenodd"
viewBox="0 0 0.82 0.82"
 xmlns:xlink="http://www.w3.org/1999/xlink">
 <defs>
  <style type="text/css">
   <![CDATA[
    .fil0 {fill:#33CC99}
   ]]>
  </style>
 </defs>
 <g id="Camada_x0020_1">
  <metadata id="CorelCorpID_0Corel-Layer"/>
  <path class="fil0" d="M0.41 0c0.23,0 0.41,0.18 0.41,0.41 0,0.23 -0.18,0.41 -0.41,0.41 -0.23,0 -0.41,-0.18 -0.41,-0.41 0,-0.23 0.18,-0.41 0.41,-0.41zm0.05 0.06l-0.03 0 0 0.16 0.13 0c-0.01,-0.03 -0.02,-0.05 -0.03,-0.08 -0.01,-0.02 -0.02,-0.05 -0.04,-0.07 -0.01,-0.01 -0.02,-0.01 -0.03,-0.01zm0.18 0.08c-0.03,-0.02 -0.06,-0.04 -0.09,-0.05 0.01,0.01 0.02,0.03 0.03,0.05 0.01,0.03 0.02,0.05 0.02,0.08l0.11 0c-0.02,-0.03 -0.04,-0.06 -0.07,-0.08zm0.12 0.18c-0.01,-0.02 -0.02,-0.04 -0.03,-0.06l-0.12 0c0.01,0.02 0.01,0.04 0.02,0.06 0,0.03 0,0.05 0,0.07l0.14 0c-0.01,-0.02 -0.01,-0.04 -0.01,-0.07zm-0.01 0.18c0.01,-0.02 0.01,-0.04 0.02,-0.07l-0.14 0c0,0.03 0,0.05 0,0.07 -0.01,0.03 -0.01,0.05 -0.02,0.07l0.12 0c0.01,-0.02 0.02,-0.04 0.02,-0.07zm-0.12 0.19c0.03,-0.02 0.05,-0.05 0.07,-0.07l-0.1 0c-0.01,0.02 -0.01,0.04 -0.02,0.06 -0.01,0.02 -0.02,0.04 -0.03,0.06 0.03,-0.02 0.06,-0.03 0.08,-0.05zm-0.17 0.07c0.01,0 0.03,0 0.04,0 0.01,-0.03 0.02,-0.05 0.03,-0.08 0.01,-0.02 0.02,-0.04 0.03,-0.06l-0.13 0 0 0.15 0.03 -0.01zm-0.1 0l0.03 0.01 0 -0.15 -0.12 0c0,0.02 0.01,0.04 0.02,0.06 0.01,0.03 0.03,0.05 0.04,0.08 0.01,0 0.02,0 0.03,0zm-0.17 -0.07c0.03,0.02 0.05,0.04 0.08,0.05 -0.01,-0.02 -0.01,-0.04 -0.02,-0.06 -0.01,-0.02 -0.02,-0.04 -0.03,-0.06l-0.1 0c0.02,0.02 0.04,0.05 0.07,0.07zm-0.12 -0.19c0.01,0.03 0.01,0.05 0.03,0.07l0.11 0c0,-0.02 -0.01,-0.04 -0.01,-0.07 0,-0.02 0,-0.04 -0.01,-0.07l-0.13 0c0,0.03 0,0.05 0.01,0.07zm0 -0.17c-0.01,0.02 -0.01,0.04 -0.01,0.06l0.13 0c0.01,-0.02 0.01,-0.04 0.01,-0.07 0,-0.02 0.01,-0.04 0.01,-0.06l-0.12 0c-0.01,0.02 -0.02,0.04 -0.02,0.07zm0.12 -0.19c-0.03,0.02 -0.06,0.05 -0.08,0.08l0.11 0c0.01,-0.03 0.02,-0.05 0.03,-0.08 0.01,-0.02 0.02,-0.04 0.03,-0.06 -0.04,0.02 -0.07,0.04 -0.09,0.06zm0.17 -0.08c-0.01,0 -0.02,0 -0.03,0.01 -0.01,0.02 -0.03,0.05 -0.04,0.07 -0.01,0.03 -0.02,0.05 -0.02,0.08l0.12 0 0 -0.16 -0.03 0zm0.07 0.2l0 0.13 0.16 0c0,-0.02 0,-0.04 -0.01,-0.06 0,-0.03 0,-0.05 -0.01,-0.07l-0.14 0zm0 0.17l0 0.14 0.14 0c0.01,-0.02 0.01,-0.04 0.01,-0.07 0.01,-0.02 0.01,-0.04 0.01,-0.07l-0.16 0zm-0.04 0.14l0 -0.14 -0.15 0c0,0.03 0,0.05 0,0.07 0.01,0.03 0.01,0.05 0.02,0.07l0.13 0zm0 -0.18l0 -0.13 -0.14 0c0,0.02 -0.01,0.04 -0.01,0.07 0,0.02 0,0.04 0,0.06l0.15 0z"/>
 </g>
</svg>
