<?xml version="1.0" encoding="UTF-8"?>
<!DOCTYPE svg PUBLIC "-//W3C//DTD SVG 1.1//EN" "http://www.w3.org/Graphics/SVG/1.1/DTD/svg11.dtd">
<!-- Creator: CorelDRAW 2018 (64 Bit Versão de avaliação) -->
<svg xmlns="http://www.w3.org/2000/svg" xml:space="preserve" width="72px" height="72px" version="1.1" style="shape-rendering:geometricPrecision; text-rendering:geometricPrecision; image-rendering:optimizeQuality; fill-rule:evenodd; clip-rule:evenodd"
viewBox="0 0 2.67 2.68"
 xmlns:xlink="http://www.w3.org/1999/xlink">
 <defs>
  <style type="text/css">
   <![CDATA[
    .fil0 {fill:#33CC99}
   ]]>
  </style>
 </defs>
 <g id="Camada_x0020_1">
  <metadata id="CorelCorpID_0Corel-Layer"/>
  <path class="fil0" d="M2.57 1.81c-0.06,0.16 -0.16,0.31 -0.28,0.43 -0.12,0.12 -0.27,0.21 -0.43,0.28 -0.16,0.06 -0.33,0.1 -0.5,0.1 -0.06,0 -0.12,0 -0.17,-0.01 -0.06,-0.01 -0.11,-0.02 -0.17,-0.03 -0.05,-0.02 -0.1,-0.03 -0.15,-0.05l0 0c-0.05,-0.02 -0.1,-0.05 -0.15,-0.07l0 0 -0.01 -0.01 -0.65 0.21 -0.06 0.02 0.02 -0.06 0.21 -0.62 -0.01 -0.01 0 0c-0.03,-0.05 -0.05,-0.11 -0.08,-0.16 -0.02,-0.06 -0.04,-0.11 -0.06,-0.17 -0.01,-0.05 -0.03,-0.11 -0.03,-0.17 -0.01,-0.06 -0.02,-0.12 -0.02,-0.18 0,-0.18 0.04,-0.35 0.1,-0.5 0.07,-0.16 0.17,-0.31 0.29,-0.43 0.12,-0.12 0.27,-0.21 0.43,-0.28 0.16,-0.07 0.33,-0.1 0.5,-0.1 0.18,0 0.35,0.03 0.51,0.1 0.16,0.07 0.31,0.16 0.43,0.28 0.12,0.12 0.22,0.27 0.28,0.43 0.07,0.15 0.1,0.32 0.1,0.5 0,0.18 -0.03,0.35 -0.1,0.5l0 0zm-0.54 -0.19c0,-0.02 -0.03,-0.02 -0.06,-0.04 -0.03,-0.02 -0.19,-0.1 -0.22,-0.11 -0.03,-0.01 -0.06,-0.01 -0.08,0.02 -0.02,0.03 -0.08,0.11 -0.1,0.13 -0.02,0.02 -0.04,0.02 -0.07,0.01 -0.04,-0.02 -0.14,-0.05 -0.27,-0.17 -0.1,-0.08 -0.16,-0.19 -0.18,-0.22 -0.02,-0.04 -0.01,-0.05 0.01,-0.07 0.02,-0.01 0.03,-0.04 0.05,-0.06 0.02,-0.02 0.02,-0.03 0.03,-0.05 0.01,-0.02 0.01,-0.04 0,-0.06 -0.01,-0.02 -0.07,-0.18 -0.1,-0.24 -0.03,-0.07 -0.06,-0.06 -0.07,-0.06 -0.02,0 -0.05,0 -0.07,0 -0.02,0 -0.06,0.01 -0.09,0.04 -0.03,0.04 -0.11,0.11 -0.11,0.28 0,0.16 0.12,0.31 0.13,0.33 0.02,0.03 0.23,0.37 0.57,0.5 0.33,0.13 0.33,0.09 0.39,0.08 0.06,0 0.2,-0.08 0.23,-0.15 0.02,-0.08 0.02,-0.15 0.01,-0.16l0 0zm-1.09 -1.31c-0.07,0.03 -0.13,0.06 -0.19,0.1 -0.06,0.04 -0.12,0.09 -0.17,0.14 -0.05,0.05 -0.09,0.1 -0.13,0.16 -0.04,0.06 -0.07,0.12 -0.1,0.19 -0.03,0.06 -0.05,0.13 -0.06,0.2 -0.02,0.07 -0.03,0.14 -0.03,0.21 0,0.03 0.01,0.06 0.01,0.09 0,0.02 0,0.05 0.01,0.08 0,0.03 0.01,0.05 0.01,0.08 0.01,0.03 0.02,0.06 0.03,0.08 0.01,0.03 0.02,0.05 0.03,0.08 0.01,0.02 0.02,0.04 0.03,0.07l0 0c0.01,0.02 0.02,0.04 0.04,0.07 0.01,0.02 0.02,0.04 0.04,0.06l0 0 0.01 0.01 0.02 0.03 -0.01 0.03 -0.01 0.02 -0.11 0.31 0.34 -0.1 0 0 0.01 -0.01 0.03 -0.01 0.02 0.02 0.02 0.01c0.02,0.01 0.04,0.02 0.06,0.03 0.02,0.01 0.04,0.02 0.07,0.04 0.02,0.01 0.04,0.02 0.06,0.02l0 0c0.03,0.01 0.05,0.02 0.07,0.03 0.03,0.01 0.06,0.01 0.08,0.02 0.02,0 0.05,0.01 0.08,0.01 0.02,0.01 0.05,0.01 0.08,0.01 0.02,0 0.05,0 0.08,0 0.07,0 0.14,0 0.21,-0.02 0.07,-0.01 0.14,-0.03 0.2,-0.06 0.07,-0.03 0.13,-0.06 0.19,-0.1 0.06,-0.04 0.12,-0.08 0.17,-0.13 0.05,-0.05 0.09,-0.11 0.13,-0.17 0.04,-0.06 0.08,-0.12 0.1,-0.18 0.03,-0.07 0.05,-0.14 0.07,-0.21 0.01,-0.07 0.02,-0.14 0.02,-0.21 0,-0.07 -0.01,-0.14 -0.02,-0.21 -0.02,-0.07 -0.04,-0.14 -0.07,-0.2 -0.02,-0.07 -0.06,-0.13 -0.1,-0.19l0 0c-0.04,-0.06 -0.08,-0.11 -0.13,-0.16 -0.05,-0.05 -0.11,-0.1 -0.17,-0.14 -0.06,-0.04 -0.12,-0.07 -0.19,-0.1 -0.06,-0.02 -0.13,-0.04 -0.2,-0.06 -0.07,-0.01 -0.14,-0.02 -0.21,-0.02 -0.08,0 -0.15,0.01 -0.22,0.02 -0.07,0.02 -0.13,0.04 -0.2,0.06l0 0z"/>
 </g>
</svg>
