<?xml version="1.0" encoding="UTF-8"?>
<!DOCTYPE svg PUBLIC "-//W3C//DTD SVG 1.1//EN" "http://www.w3.org/Graphics/SVG/1.1/DTD/svg11.dtd">
<!-- Creator: CorelDRAW 2018 (64 Bit Versão de avaliação) -->
<svg xmlns="http://www.w3.org/2000/svg" xml:space="preserve" width="57.9995mm" height="34.7539mm" version="1.1" style="shape-rendering:geometricPrecision; text-rendering:geometricPrecision; image-rendering:optimizeQuality; fill-rule:evenodd; clip-rule:evenodd"
viewBox="0 0 5799.94 3475.38"
 xmlns:xlink="http://www.w3.org/1999/xlink">
 <defs>
  <style type="text/css">
   <![CDATA[
    .fil0 {fill:#33CC99;fill-rule:nonzero}
    .fil1 {fill:#999999;fill-rule:nonzero}
   ]]>
  </style>
 </defs>
 <g id="Camada_x0020_1">
  <metadata id="CorelCorpID_0Corel-Layer"/>
  <g id="_2231379747568">
   <path class="fil0" d="M413.94 3303.49l0 4.68 -81.53 0 -123.63 -231.1 -132.73 0 0 231.1 -76.05 0 0 -570.19 188.73 0c64.55,0 114.01,14.71 148.49,44.11 34.35,29.41 51.59,71.78 51.59,127.11 0,35.15 -9.49,66.03 -28.73,92.63 -19.25,26.46 -45.85,46.37 -80.06,59.61l133.92 242.05zm1717.81 -2943.64l307.3 0 0 153.59c128.39,-96.43 287.97,-153.59 460.92,-153.59 52.61,0 104.02,5.32 153.65,15.4l0 318.2c-48.09,-16.99 -99.78,-26.27 -153.65,-26.27 -254.57,0 -460.92,206.35 -460.92,460.92l0 768.25 -307.3 0 0 -1536.5zm614.6 1202.92c48.06,16.97 99.75,26.25 153.62,26.25 254.57,0 460.92,-206.36 460.95,-460.92l0 -768.25 307.3 0 0 1536.5 -307.3 0 0 -153.62c-128.39,96.43 -288,153.62 -460.95,153.62 -52.61,0 -103.99,-5.29 -153.62,-15.37l0 -318.21zm-2555.62 1453.23c26.06,0 48.25,-4.68 66.56,-14.03 18.31,-9.36 32.08,-22.19 41.3,-38.36 9.23,-16.17 13.9,-34.35 13.9,-54.4 0,-34.48 -10.15,-61.35 -30.47,-80.73 -20.45,-19.25 -51.46,-29 -93.29,-29l-112.68 0 0 216.52 114.68 0zm272.93 76.05c0,-41.03 7.75,-77.78 23.39,-110.4 15.77,-32.74 38.09,-58.27 67.23,-76.98 29.14,-18.72 62.95,-28.07 101.58,-28.07 39.16,0 73.38,9.35 102.65,28.07 29.14,18.71 51.59,44.24 67.23,76.98 15.77,32.62 23.52,69.37 23.52,110.4l0 8.96c0,41.03 -7.75,77.79 -23.52,110.27 -15.64,32.48 -37.96,58.01 -67.1,76.72 -29.14,18.71 -63.09,28.07 -101.98,28.07 -38.89,0 -72.98,-9.36 -101.98,-28.07 -29.14,-18.71 -51.59,-44.24 -67.36,-76.72 -15.78,-32.48 -23.66,-69.24 -23.66,-110.27l0 -8.96zm73.11 8.96c0,28.74 4.54,54.93 13.5,78.72 9.09,23.8 22.59,42.64 40.63,56.54 17.91,14.04 39.96,20.99 65.76,20.99 25.53,0 47.32,-6.95 65.36,-20.99 18.04,-13.9 31.54,-32.74 40.5,-56.54 9.09,-23.79 13.5,-49.98 13.5,-78.72l0 -8.96c0,-28.73 -4.55,-54.93 -13.64,-78.72 -9.08,-23.79 -22.72,-42.64 -40.76,-56.81 -18.05,-14.03 -39.97,-21.11 -65.76,-21.11 -25.53,0 -47.32,7.08 -65.23,21.11 -17.91,14.17 -31.27,33.02 -40.36,56.81 -8.96,23.79 -13.5,49.99 -13.5,78.72l0 8.96zm743.67 -394.29l0 601.46 -66.96 0 -3.47 -45.04c-28.74,35.28 -68.97,52.93 -120.7,52.93 -32.61,0 -61.61,-9.36 -86.88,-27.81 -25.26,-18.57 -44.9,-44.24 -58.94,-76.85 -13.9,-32.61 -20.98,-69.37 -20.98,-110.4l0 -8.15c0,-42.91 6.95,-80.6 20.85,-113.21 13.76,-32.61 33.41,-58.01 58.67,-75.92 25.4,-18.04 54.67,-27.13 88.08,-27.13 49.86,0 88.89,16.57 117.09,49.85l0 -219.73 73.24 0zm-173.08 548.26c45.17,0 78.45,-20.58 99.84,-61.48l0 -196.21c-9.89,-18.58 -22.99,-33.15 -39.3,-43.84 -16.3,-10.69 -36.22,-16.04 -59.74,-16.04 -25.26,0 -46.38,6.82 -63.22,20.45 -16.84,13.77 -29.27,32.35 -37.16,55.87 -8.02,23.52 -12.03,49.86 -12.03,79.13l0 8.15c0,29.27 4.01,55.47 12.03,78.59 7.89,22.99 20.18,41.43 36.89,54.93 16.71,13.64 37.69,20.45 62.69,20.45zm458.58 -378.38c4.68,0 10.56,0.67 17.64,1.87 7.08,1.07 11.9,2.4 14.44,3.61l0 66.96c-11.23,-2 -23.13,-3.07 -35.56,-3.07 -24.06,0 -44.1,5.34 -60.14,16.03 -16.04,10.7 -28.07,25.8 -36.23,45.05l0 301.13 -73.24 0 0 -423.7 71.24 0 1.6 48.12c10.96,-17.64 24.86,-31.41 41.57,-41.3 16.71,-9.76 36.22,-14.7 58.68,-14.7zm142.08 -146.36c13.63,0 24.32,3.88 31.94,11.76 7.76,7.76 11.63,17.65 11.63,29.68 0,11.76 -3.87,21.51 -11.63,29.27 -7.62,7.62 -18.31,11.49 -31.94,11.49 -13.5,0 -24.06,-3.87 -31.41,-11.49 -7.49,-7.76 -11.23,-17.51 -11.23,-29.27 0,-12.03 3.74,-21.92 11.23,-29.68 7.35,-7.88 17.91,-11.76 31.41,-11.76zm-37.16 577.94l0 -423.7 73.25 0 0 423.7 -73.25 0zm529.83 -423.7l0 414.74c0,36.76 -7.62,68.44 -22.73,94.9 -15.1,26.47 -36.22,46.65 -63.22,60.55 -27,13.77 -58.27,20.72 -93.82,20.72 -16.44,0 -34.49,-2.54 -54,-7.49 -19.65,-4.94 -38.76,-12.83 -57.34,-23.79 -18.71,-10.96 -33.95,-25.13 -45.71,-42.37l38.09 -42.64c31.28,38.36 69.1,57.48 113.48,57.61 34.75,-0.13 62.15,-9.89 82.06,-29.67 19.92,-19.65 29.94,-47.85 29.94,-84.34l0 -36.49c-28.74,33.28 -68.16,49.86 -118.29,49.86 -33.41,0 -62.68,-9.36 -87.81,-27.81 -25.26,-18.57 -44.64,-44.1 -58.41,-76.58 -13.63,-32.48 -20.58,-69.37 -20.58,-110.67l0 -8.15c0,-42.91 6.81,-80.6 20.45,-113.21 13.5,-32.61 33.01,-58.01 58.27,-75.92 25.4,-18.04 54.94,-27.13 88.89,-27.13 51.72,0 92.09,18.17 120.96,54.53l3.2 -46.65 66.57 0zm-173.49 370.5c45.44,0 78.86,-20.85 100.24,-62.28l0 -194.61c-9.89,-18.84 -23.12,-33.68 -39.56,-44.51 -16.44,-10.82 -36.36,-16.17 -59.88,-16.17 -25.4,0 -46.38,6.82 -63.22,20.45 -16.84,13.77 -29.27,32.35 -37.29,55.87 -7.89,23.52 -11.9,49.86 -11.9,79.13l0 8.15c0,29.27 4.01,55.47 11.9,78.59 8.02,22.99 20.31,41.43 37.02,54.93 16.71,13.64 37.69,20.45 62.69,20.45zm263.97 -162.93c0,-41.03 7.75,-77.78 23.39,-110.4 15.77,-32.74 38.09,-58.27 67.23,-76.98 29.14,-18.72 62.95,-28.07 101.58,-28.07 39.16,0 73.38,9.35 102.65,28.07 29.14,18.71 51.59,44.24 67.23,76.98 15.77,32.62 23.52,69.37 23.52,110.4l0 8.96c0,41.03 -7.75,77.79 -23.52,110.27 -15.64,32.48 -37.96,58.01 -67.1,76.72 -29.14,18.71 -63.09,28.07 -101.98,28.07 -38.89,0 -72.98,-9.36 -101.98,-28.07 -29.14,-18.71 -51.59,-44.24 -67.36,-76.72 -15.78,-32.48 -23.66,-69.24 -23.66,-110.27l0 -8.96zm73.11 8.96c0,28.74 4.54,54.93 13.5,78.72 9.09,23.8 22.59,42.64 40.63,56.54 17.91,14.04 39.96,20.99 65.76,20.99 25.53,0 47.32,-6.95 65.36,-20.99 18.04,-13.9 31.54,-32.74 40.5,-56.54 9.09,-23.79 13.5,-49.98 13.5,-78.72l0 -8.96c0,-28.73 -4.55,-54.93 -13.64,-78.72 -9.08,-23.79 -22.72,-42.64 -40.76,-56.81 -18.05,-14.03 -39.97,-21.11 -65.76,-21.11 -25.53,0 -47.32,7.08 -65.23,21.11 -17.91,14.17 -31.27,33.02 -40.36,56.81 -8.96,23.79 -13.5,49.99 -13.5,78.72l0 8.96zm1027.56 202.49l0 4.68 -81.53 0 -123.63 -231.1 -132.73 0 0 231.1 -76.05 0 0 -570.19 188.73 0c64.55,0 114.01,14.71 148.49,44.11 34.35,29.41 51.59,71.78 51.59,127.11 0,35.15 -9.49,66.03 -28.73,92.63 -19.25,26.46 -45.85,46.37 -80.06,59.61l133.92 242.05zm-223.21 -287.5c26.06,0 48.25,-4.68 66.56,-14.03 18.31,-9.36 32.08,-22.19 41.3,-38.36 9.23,-16.17 13.9,-34.35 13.9,-54.4 0,-34.48 -10.15,-61.35 -30.47,-80.73 -20.45,-19.25 -51.46,-29 -93.29,-29l-112.68 0 0 216.52 114.68 0zm633.14 100.25l-286.7 0c0.8,26.46 6.28,50.25 16.44,71.77 10.29,21.39 24.59,38.23 43.31,50.66 18.71,12.43 40.49,18.58 65.62,18.58 24.46,0 45.71,-4.95 63.62,-14.84 17.91,-9.89 33.82,-24.19 47.99,-42.77l44.24 34.48c-15.64,24.06 -36.63,43.71 -62.69,58.95 -26.06,15.23 -58.41,22.99 -97.03,22.99 -38.63,0 -72.71,-8.83 -102.25,-26.33 -29.54,-17.51 -52.26,-41.71 -68.3,-72.85 -16.04,-31.01 -24.19,-66.29 -24.19,-105.72l0 -16.84c0,-44.11 8.68,-82.6 25.92,-115.62 17.25,-33.01 39.97,-58.27 68.3,-75.78 28.34,-17.51 58.68,-26.33 91.03,-26.33 39.42,0 72.17,8.82 98.1,26.46 25.93,17.64 45.18,41.97 57.74,73.11 12.57,31.01 18.85,66.97 18.85,107.6l0 32.48zm-73.25 -64.16c-2.14,-33.15 -11.09,-60.95 -26.86,-83.27 -15.77,-22.32 -40.64,-33.41 -74.58,-33.41 -29.14,0 -53.6,10.69 -72.98,31.94 -19.52,21.25 -31.68,51.33 -36.62,90.22l211.04 0 0 -5.48zm609.35 -175.49c46.51,0 81.66,12.43 105.72,37.29 24.06,24.72 36.09,63.35 36.09,115.88l0 278.41 -73.24 0 0 -279.21c0,-33.68 -7.62,-57.34 -22.99,-71.11 -15.24,-13.63 -37.56,-20.45 -67.1,-20.45 -18.85,0 -35.29,3.88 -49.32,11.9 -14.17,7.88 -25.13,18.71 -33.15,32.34 -7.88,13.5 -12.83,28.74 -14.7,45.71l0 280.82 -73.24 0 0 -278.81c0,-61.35 -30.08,-91.96 -90.36,-91.96 -24.32,0 -44.37,5.21 -60.28,15.77 -16.04,10.56 -28.07,25.26 -36.49,44.11l0 310.89 -73.24 0 0 -423.7 69.37 0 2.27 45.85c14.7,-17.24 32.48,-30.48 53.33,-39.83 20.85,-9.22 44.78,-13.9 71.64,-13.9 27.93,0 52.39,5.61 73.38,16.7 20.98,11.1 36.89,27.94 47.58,50.66 14.7,-20.85 33.42,-37.29 56.27,-49.32 22.86,-12.03 48.92,-18.04 78.46,-18.04zm257.29 431.58l0 -423.7 72.85 0 0 423.7 -72.85 0zm165.74 -600.66l-105.32 114.68 -58.81 0 76.05 -114.68 88.08 0zm367.96 176.96l0 414.74c0,36.76 -7.62,68.44 -22.73,94.9 -15.1,26.47 -36.22,46.65 -63.22,60.55 -27,13.77 -58.27,20.72 -93.82,20.72 -16.44,0 -34.49,-2.54 -54,-7.49 -19.65,-4.94 -38.76,-12.83 -57.34,-23.79 -18.71,-10.96 -33.95,-25.13 -45.71,-42.37l38.09 -42.64c31.28,38.36 69.1,57.48 113.48,57.61 34.75,-0.13 62.15,-9.89 82.06,-29.67 19.92,-19.65 29.94,-47.85 29.94,-84.34l0 -36.49c-28.74,33.28 -68.16,49.86 -118.29,49.86 -33.41,0 -62.68,-9.36 -87.81,-27.81 -25.26,-18.57 -44.64,-44.1 -58.41,-76.58 -13.63,-32.48 -20.58,-69.37 -20.58,-110.67l0 -8.15c0,-42.91 6.81,-80.6 20.45,-113.21 13.5,-32.61 33.01,-58.01 58.27,-75.92 25.4,-18.04 54.94,-27.13 88.89,-27.13 51.72,0 92.09,18.17 120.96,54.53l3.2 -46.65 66.57 0zm-173.49 370.5c45.44,0 78.86,-20.85 100.24,-62.28l0 -194.61c-9.89,-18.84 -23.12,-33.68 -39.56,-44.51 -16.44,-10.82 -36.36,-16.17 -59.88,-16.17 -25.4,0 -46.38,6.82 -63.22,20.45 -16.84,13.77 -29.27,32.35 -37.29,55.87 -7.89,23.52 -11.9,49.86 -11.9,79.13l0 8.15c0,29.27 4.01,55.47 11.9,78.59 8.02,22.99 20.31,41.43 37.02,54.93 16.71,13.64 37.69,20.45 62.69,20.45zm326.12 -524.74c13.63,0 24.32,3.88 31.94,11.76 7.76,7.76 11.63,17.65 11.63,29.68 0,11.76 -3.87,21.51 -11.63,29.27 -7.62,7.62 -18.31,11.49 -31.94,11.49 -13.5,0 -24.06,-3.87 -31.41,-11.49 -7.49,-7.76 -11.23,-17.51 -11.23,-29.27 0,-12.03 3.74,-21.92 11.23,-29.68 7.35,-7.88 17.91,-11.76 31.41,-11.76zm-37.16 577.94l0 -423.7 73.25 0 0 423.7 -73.25 0zm170.02 -216.13c0,-41.03 7.75,-77.78 23.39,-110.4 15.77,-32.74 38.09,-58.27 67.23,-76.98 29.14,-18.72 62.95,-28.07 101.58,-28.07 39.16,0 73.38,9.35 102.65,28.07 29.14,18.71 51.59,44.24 67.23,76.98 15.77,32.62 23.52,69.37 23.52,110.4l0 8.96c0,41.03 -7.75,77.79 -23.52,110.27 -15.64,32.48 -37.96,58.01 -67.1,76.72 -29.14,18.71 -63.09,28.07 -101.98,28.07 -38.89,0 -72.98,-9.36 -101.98,-28.07 -29.14,-18.71 -51.59,-44.24 -67.36,-76.72 -15.78,-32.48 -23.66,-69.24 -23.66,-110.27l0 -8.96zm73.11 8.96c0,28.74 4.54,54.93 13.5,78.72 9.09,23.8 22.59,42.64 40.63,56.54 17.91,14.04 39.96,20.99 65.76,20.99 25.53,0 47.32,-6.95 65.36,-20.99 18.04,-13.9 31.54,-32.74 40.5,-56.54 9.09,-23.79 13.5,-49.98 13.5,-78.72l0 -8.96c0,-28.73 -4.55,-54.93 -13.64,-78.72 -9.08,-23.79 -22.72,-42.64 -40.76,-56.81 -18.05,-14.03 -39.97,-21.11 -65.76,-21.11 -25.53,0 -47.32,7.08 -65.23,21.11 -17.91,14.17 -31.27,33.02 -40.36,56.81 -8.96,23.79 -13.5,49.99 -13.5,78.72l0 8.96z"/>
   <path class="fil1" d="M1801.04 0l2197.88 0 29.15 0 0 29.16 0 2197.87 0 29.16 -29.15 0 -2197.88 0 -29.15 0 0 -29.16 0 -2197.87 0 -29.16 29.15 0zm2168.72 58.31l-2139.56 0 0 2139.56 2139.56 0 0 -2139.56z"/>
  </g>
 </g>
</svg>
