<?xml version="1.0" encoding="UTF-8"?>
<!DOCTYPE svg PUBLIC "-//W3C//DTD SVG 1.1//EN" "http://www.w3.org/Graphics/SVG/1.1/DTD/svg11.dtd">
<!-- Creator: CorelDRAW 2018 (64 Bit Versão de avaliação) -->
<svg xmlns="http://www.w3.org/2000/svg" xml:space="preserve" width="66px" height="66px" version="1.1" style="shape-rendering:geometricPrecision; text-rendering:geometricPrecision; image-rendering:optimizeQuality; fill-rule:evenodd; clip-rule:evenodd"
viewBox="0 0 32.14 32.14"
 xmlns:xlink="http://www.w3.org/1999/xlink">
 <defs>
  <style type="text/css">
   <![CDATA[
    .fil1 {fill:black;fill-rule:nonzero}
    .fil0 {fill:white;fill-rule:nonzero}
   ]]>
  </style>
 </defs>
 <g id="Camada_x0020_1">
  <metadata id="CorelCorpID_0Corel-Layer"/>
  <polygon class="fil0" points="0.42,0 31.72,0 32.14,0 32.14,0.42 32.14,31.72 32.14,32.14 31.72,32.14 0.42,32.14 0,32.14 0,31.72 0,0.42 0,0 "/>
  <path class="fil1" d="M13.5 23.34c0.8,0.28 1.67,0.44 2.57,0.44 4.26,0 7.71,-3.45 7.71,-7.71l0 -12.85 5.14 0 0 25.7 -5.14 0 0 -2.57c-2.15,1.61 -4.82,2.57 -7.71,2.57 -0.88,0 -1.74,-0.09 -2.57,-0.26l0 -5.32zm-10.28 -20.12l5.14 0 0 2.57c2.15,-1.61 4.82,-2.57 7.71,-2.57 0.88,0 1.74,0.09 2.57,0.26l0 5.32c-0.81,-0.28 -1.67,-0.44 -2.57,-0.44 -4.26,0 -7.71,3.45 -7.71,7.71l0 12.85 -5.14 0 0 -25.7z"/>
 </g>
</svg>
