<?xml version="1.0" encoding="UTF-8"?>
<!DOCTYPE svg PUBLIC "-//W3C//DTD SVG 1.1//EN" "http://www.w3.org/Graphics/SVG/1.1/DTD/svg11.dtd">
<!-- Creator: CorelDRAW 2018 (64 Bit Versão de avaliação) -->
<svg xmlns="http://www.w3.org/2000/svg" xml:space="preserve" width="100px" height="100px" version="1.1" style="shape-rendering:geometricPrecision; text-rendering:geometricPrecision; image-rendering:optimizeQuality; fill-rule:evenodd; clip-rule:evenodd"
viewBox="0 0 3.27 3.27"
 xmlns:xlink="http://www.w3.org/1999/xlink">
 <defs>
  <style type="text/css">
   <![CDATA[
    .fil0 {fill:#CCCCCC;fill-rule:nonzero}
   ]]>
  </style>
 </defs>
 <g id="Camada_x0020_1">
  <metadata id="CorelCorpID_0Corel-Layer"/>
  <path class="fil0" d="M0.51 0l2.26 0c0.14,0 0.26,0.06 0.35,0.15l0 0c0.1,0.09 0.15,0.22 0.15,0.36l0 2.26c0,0.14 -0.05,0.26 -0.15,0.35 -0.09,0.1 -0.21,0.15 -0.35,0.15l-2.26 0c-0.14,0 -0.27,-0.05 -0.36,-0.15 -0.09,-0.09 -0.15,-0.21 -0.15,-0.35l0 -2.26c0,-0.14 0.06,-0.27 0.15,-0.36 0.09,-0.09 0.22,-0.15 0.36,-0.15zm0.49 1.1c0.12,-0.06 0.4,-0.01 0.4,0.24 0,0.1 -0.04,0.19 -0.1,0.23 -0.08,0.05 -0.2,0.05 -0.31,0.04l0.01 -0.51zm0.85 1.04l0 0.25c0.61,0.17 0.76,-0.27 0.61,-0.49 -0.08,-0.14 -0.27,-0.19 -0.36,-0.27 -0.07,-0.07 -0.01,-0.16 0.08,-0.17 0.11,-0.02 0.17,0.04 0.26,0.05l0.04 -0.24c-0.2,-0.02 -0.37,-0.08 -0.53,0.04 -0.15,0.12 -0.16,0.36 -0.07,0.47 0.11,0.15 0.49,0.26 0.34,0.39 -0.02,0.03 -0.07,0.03 -0.12,0.03 -0.09,0 -0.19,-0.06 -0.25,-0.06zm-1.09 -1.28l0 1.54 0.23 0 0 -0.54c0.21,-0.02 0.37,-0.01 0.5,-0.13 0.12,-0.11 0.2,-0.27 0.16,-0.5 -0.08,-0.39 -0.48,-0.42 -0.89,-0.37zm2.01 -0.71l-2.26 0c-0.1,0 -0.19,0.04 -0.25,0.11 -0.07,0.06 -0.11,0.15 -0.11,0.25l0 2.26c0,0.09 0.04,0.18 0.11,0.24 0.06,0.07 0.15,0.11 0.25,0.11l2.26 0c0.09,0 0.18,-0.04 0.24,-0.11 0.07,-0.06 0.11,-0.15 0.11,-0.24l0 -2.26c0,-0.1 -0.04,-0.19 -0.11,-0.25 -0.06,-0.07 -0.15,-0.11 -0.24,-0.11z"/>
 </g>
</svg>
