<?xml version="1.0" encoding="UTF-8"?>
<!DOCTYPE svg PUBLIC "-//W3C//DTD SVG 1.1//EN" "http://www.w3.org/Graphics/SVG/1.1/DTD/svg11.dtd">
<!-- Creator: CorelDRAW 2018 (64 Bit Versão de avaliação) -->
<svg xmlns="http://www.w3.org/2000/svg" xml:space="preserve" width="100px" height="100px" version="1.1" style="shape-rendering:geometricPrecision; text-rendering:geometricPrecision; image-rendering:optimizeQuality; fill-rule:evenodd; clip-rule:evenodd"
viewBox="0 0 3.02 3.02"
 xmlns:xlink="http://www.w3.org/1999/xlink">
 <defs>
  <style type="text/css">
   <![CDATA[
    .fil0 {fill:#CCCCCC;fill-rule:nonzero}
   ]]>
  </style>
 </defs>
 <g id="Camada_x0020_1">
  <metadata id="CorelCorpID_0Corel-Layer"/>
  <path class="fil0" d="M0.47 0l2.08 0c0.13,0 0.25,0.05 0.33,0.14l0 0c0.09,0.08 0.14,0.2 0.14,0.33l0 2.08c0,0.13 -0.05,0.25 -0.14,0.33 -0.08,0.09 -0.2,0.14 -0.33,0.14l-2.08 0c-0.13,0 -0.25,-0.05 -0.33,-0.14 -0.09,-0.08 -0.14,-0.2 -0.14,-0.33l0 -2.08c0,-0.13 0.05,-0.25 0.14,-0.33 0.08,-0.09 0.2,-0.14 0.33,-0.14zm0.14 2.19c0.02,0.01 0.2,0.01 0.23,0 0.02,-0.03 0.04,-0.09 0.06,-0.13 0.03,-0.06 0.16,-0.35 0.18,-0.4l0.25 0.53c0.01,0.01 0.23,0.01 0.24,0 0.01,-0.01 -0.02,-0.06 -0.03,-0.08 -0.02,-0.03 -0.03,-0.06 -0.05,-0.09l-0.25 -0.52c-0.02,-0.03 -0.01,-0.02 0.02,-0.08l0.12 -0.26c0.03,-0.06 0.06,-0.11 0.09,-0.17 0.01,-0.03 0.08,-0.16 0.08,-0.18l-0.22 0 -0.17 0.39c-0.02,0.04 -0.05,0.09 -0.06,0.14 -0.02,-0.02 -0.05,-0.11 -0.06,-0.14l-0.12 -0.26c-0.02,-0.03 -0.05,-0.11 -0.06,-0.13l-0.24 0c0,0.02 0.07,0.14 0.08,0.17 0.04,0.08 0.25,0.51 0.25,0.52 0,0.03 -0.34,0.66 -0.34,0.69zm1.57 -0.19c-0.22,0.06 -0.33,-0.1 -0.33,-0.32 0,-0.22 0.12,-0.36 0.33,-0.32l0 0.64zm0 -0.84c-0.21,-0.01 -0.34,0.06 -0.43,0.17 -0.18,0.21 -0.19,0.72 0.16,0.85 0.08,0.04 0.18,0.04 0.27,0.03 0.06,-0.01 0.19,-0.04 0.23,-0.08 0,-0.05 -0.01,-0.11 -0.01,-0.16 0,-0.19 0.01,-1.13 0,-1.16 -0.05,-0.01 -0.14,0 -0.19,0 -0.04,0 -0.03,0.02 -0.03,0.06l0 0.29zm0.37 -1.02l-2.08 0c-0.09,0 -0.17,0.04 -0.23,0.1 -0.06,0.06 -0.1,0.14 -0.1,0.23l0 2.08c0,0.09 0.04,0.17 0.1,0.23 0.06,0.06 0.14,0.1 0.23,0.1l2.08 0c0.09,0 0.17,-0.04 0.23,-0.1 0.06,-0.06 0.1,-0.14 0.1,-0.23l0 -2.08c0,-0.09 -0.04,-0.17 -0.1,-0.23 -0.06,-0.06 -0.14,-0.1 -0.23,-0.1z"/>
 </g>
</svg>
