<?xml version="1.0" encoding="UTF-8"?>
<!DOCTYPE svg PUBLIC "-//W3C//DTD SVG 1.1//EN" "http://www.w3.org/Graphics/SVG/1.1/DTD/svg11.dtd">
<!-- Creator: CorelDRAW 2018 (64 Bit Versão de avaliação) -->
<svg xmlns="http://www.w3.org/2000/svg" xml:space="preserve" width="100px" height="94px" version="1.1" style="shape-rendering:geometricPrecision; text-rendering:geometricPrecision; image-rendering:optimizeQuality; fill-rule:evenodd; clip-rule:evenodd"
viewBox="0 0 5.29 4.99"
 xmlns:xlink="http://www.w3.org/1999/xlink">
 <defs>
  <style type="text/css">
   <![CDATA[
    .fil0 {fill:#CCCCCC}
   ]]>
  </style>
 </defs>
 <g id="Camada_x0020_1">
  <metadata id="CorelCorpID_0Corel-Layer"/>
  <g id="_2071057184">
   <path class="fil0" d="M0.32 4.16c0.04,0.01 0.1,0.04 0.14,0.06 0.21,0.09 0.21,0.03 0.41,-0.05 0.43,-0.18 0.5,-0.07 0.87,0.08 0.1,0.04 0.2,-0.02 0.29,-0.06 0.3,-0.12 0.37,-0.16 0.67,-0.05l0.2 0.08c0.13,0.05 0.16,0.06 0.29,0 0.47,-0.21 0.51,-0.17 0.99,0.03 0.11,0.04 0.18,-0.01 0.27,-0.05 0.04,-0.02 0.07,-0.03 0.1,-0.05 -0.02,-0.05 -0.08,-0.08 -0.12,-0.11 0,0 0,0 0,-0.01l-0.25 -0.16 -0.41 -0.2c0,-0.01 0,-0.01 0,-0.01l-0.14 -0.05c-0.14,-0.06 -0.54,-0.18 -0.72,-0.18 0.02,-0.03 0.02,-0.08 0.03,-0.12 0.01,-0.03 0.02,-0.07 0.03,-0.11 0.02,-0.08 0.05,-0.15 0.07,-0.23l0.13 -0.47c0.02,-0.08 0.03,-0.16 0.06,-0.23 0.06,-0.22 0.13,-0.46 0.18,-0.68 0.01,-0.02 0.01,-0.01 0,-0.01 -0.02,-0.03 0,-0.02 -0.1,-0.05 -0.03,-0.01 -0.08,-0.02 -0.12,-0.02 -0.04,0.08 -0.12,0.43 -0.15,0.54l-0.1 0.38c0,0.01 -0.01,0.02 -0.01,0.03l-0.05 0.2c0,0 -0.01,0.03 -0.01,0.03l-0.01 0.03c0,0 0,0 0,0.01 -0.01,0.04 -0.03,0.09 -0.04,0.13l-0.11 0.41c-0.01,0.07 -0.01,0.14 -0.09,0.13l-0.12 -0.01c-0.06,0 -0.12,0 -0.18,0 -0.2,0 -0.46,0.04 -0.66,0.09l-0.6 0.2c-0.11,0.05 -0.24,0.11 -0.35,0.17 -0.09,0.06 -0.38,0.23 -0.39,0.31z"/>
   <path class="fil0" d="M0 4.8c0.06,0 0.1,0.02 0.15,0.04 0.2,0.09 0.31,0.14 0.43,0.15l0.03 0c0.09,-0.01 0.18,-0.03 0.32,-0.09 0.37,-0.15 0.26,-0.11 0.57,0 0.13,0.05 0.21,0.08 0.29,0.09l0.07 0c0.08,-0.01 0.16,-0.04 0.27,-0.09 0.39,-0.16 0.3,-0.11 0.73,0.06 0.05,0.01 0.1,0.02 0.14,0.03l0.07 0c0.1,-0.01 0.19,-0.05 0.29,-0.09 0.33,-0.13 0.25,-0.13 0.58,0 0.1,0.04 0.19,0.08 0.29,0.09l0.07 0c0.04,0 0.08,-0.01 0.13,-0.03 0.11,-0.04 0.33,-0.16 0.43,-0.16l0 -0.36c-0.13,0 -0.22,0.04 -0.32,0.08l-0.01 0.01c-0.01,0 -0.01,0 -0.01,0 -0.02,0.01 -0.01,0.01 -0.03,0.02 -0.2,0.08 -0.21,0.11 -0.38,0.03l-0.37 -0.13c-0.13,-0.03 -0.3,0.02 -0.41,0.07 -0.05,0.02 -0.08,0.04 -0.13,0.06 -0.23,0.09 -0.18,0.04 -0.45,-0.06 0,0 -0.01,0 -0.01,0l-0.06 -0.03c-0.03,-0.01 -0.03,-0.01 -0.07,-0.02l-0.09 -0.02c-0.05,-0.01 -0.13,-0.01 -0.18,0 -0.08,0.01 -0.15,0.04 -0.23,0.07 -0.35,0.17 -0.29,0.11 -0.61,-0.01 -0.04,-0.02 -0.06,-0.03 -0.11,-0.04l-0.03 -0.01c-0.17,-0.05 -0.33,0 -0.48,0.07 -0.05,0.02 0.03,-0.01 -0.02,0.01l-0.17 0.07c-0.02,0.01 -0.07,0.03 -0.12,0.02 -0.14,-0.04 -0.34,-0.19 -0.57,-0.19l0 0.36z"/>
   <path class="fil0" d="M4.12 0.78l0 0.27c0,0.08 -0.01,0.12 -0.01,0.18l0 0.05c0,0 0,0 0,0.01l-0.06 0.34c-0.02,0.11 -0.01,0.15 0.15,0.1 0.29,-0.09 0.59,-0.02 0.83,0.15 0.05,0.04 0.17,0.22 0.25,0.15 0,0 0.01,-0.01 0.01,-0.03l0 -0.1c-0.01,-0.12 -0.03,-0.27 -0.04,-0.31l-0.07 -0.21c-0.13,-0.32 -0.24,-0.49 -0.49,-0.74 -0.03,-0.04 -0.06,-0.06 -0.1,-0.09 -0.08,-0.08 -0.35,-0.25 -0.46,-0.31l-0.01 0c-0.01,0 -0.01,-0.01 -0.01,-0.01 -0.01,0 -0.03,-0.01 -0.04,-0.01 -0.03,-0.02 -0.04,-0.03 -0.07,-0.03 0.02,0.1 0.08,0.19 0.11,0.42 0.01,0.06 0.01,0.11 0.01,0.17z"/>
   <path class="fil0" d="M1.34 0.97l0 0.03c0.12,0.07 0.17,-0.03 0.34,-0.03 0.2,0 0.3,0 0.49,0.09 0,0 0.01,0 0.01,0.01l0.01 0c0.22,0.12 0.28,0.26 0.35,0.26 0.04,0 0.1,-0.2 0.13,-0.27l0.12 -0.28c0.1,-0.19 0.23,-0.42 0.37,-0.57 0.03,-0.03 0.04,-0.05 0.06,-0.07 0.03,-0.03 0.14,-0.1 0.15,-0.13l-0.39 -0.01c-0.18,0 -0.41,0.05 -0.55,0.09 -0.18,0.06 -0.3,0.11 -0.45,0.21 -0.24,0.14 -0.43,0.31 -0.58,0.55l-0.04 0.06c-0.01,0.02 -0.02,0.03 -0.02,0.06z"/>
   <path class="fil0" d="M2.75 1.38c0.07,0 0.09,-0.01 0.17,-0.03 0.05,-0.01 0.1,-0.02 0.16,-0.02 0.21,-0.02 0.41,0.07 0.58,0.18 0.02,0.01 0.03,0.02 0.05,0.04 0.06,0.04 0.05,0.06 0.09,0.09 0.04,0.05 0.06,0.04 0.09,0.04 0.03,-0.05 0.08,-0.42 0.09,-0.5 0,-0.05 0,-0.05 0.01,-0.09 0.02,-0.31 -0.02,-1.3 -0.56,-0.94 -0.04,0.03 -0.04,0.03 -0.08,0.06 -0.09,0.08 -0.12,0.13 -0.2,0.23 -0.04,0.05 -0.07,0.11 -0.11,0.17 -0.04,0.06 -0.07,0.12 -0.1,0.18l-0.14 0.3c0,0.01 0,0.01 0,0.02l-0.02 0.03c-0.01,0.03 -0.01,0.03 -0.02,0.05 -0.03,0.08 -0.08,0.19 -0.01,0.19z"/>
   <path class="fil0" d="M0.83 1.72c0.13,0 0.24,0.01 0.34,0.13 0.14,0.17 0.12,0.42 -0.05,0.55l-0.1 0.06c-0.19,0.07 -0.38,0 -0.48,-0.18 -0.14,-0.29 0.11,-0.56 0.29,-0.56zm-0.63 0.09c0.01,0.04 0.13,0.26 0.16,0.32 -0.03,0.05 -0.05,0.11 -0.07,0.16l-0.07 0.17c0.06,0.03 0.33,0.03 0.37,0.08 0.01,0.02 0.02,0.06 0.03,0.08l0.12 0.22 0.27 -0.23c0.06,0 0.3,0.05 0.36,0.06 0,-0.13 -0.01,-0.23 -0.01,-0.37 0.06,-0.04 0.12,-0.09 0.17,-0.14 0.02,-0.01 0.01,0 0.02,-0.01 0.04,-0.03 0.05,-0.04 0.08,-0.08l-0.29 -0.21 -0.01 -0.29c0,-0.08 0.02,-0.09 -0.15,-0.04l-0.03 0.01c0,0.01 0,0.01 -0.01,0.01l-0.02 0c0,0 -0.01,0 -0.01,0.01l-0.05 0.01c-0.07,0.02 -0.07,0.03 -0.12,0 0,0 0,0 0,-0.01l-0.21 -0.15c-0.02,-0.01 -0.02,-0.01 -0.04,-0.03 -0.03,0.02 -0.03,0.04 -0.04,0.07l-0.07 0.16c-0.01,0.03 0,0.01 -0.02,0.04 -0.03,0.07 0,0.06 -0.18,0.1l-0.18 0.06z"/>
  </g>
 </g>
</svg>
