<?xml version="1.0" encoding="UTF-8"?>
<!DOCTYPE svg PUBLIC "-//W3C//DTD SVG 1.1//EN" "http://www.w3.org/Graphics/SVG/1.1/DTD/svg11.dtd">
<!-- Creator: CorelDRAW 2018 (64 Bit Versão de avaliação) -->
<svg xmlns="http://www.w3.org/2000/svg" xml:space="preserve" width="100px" height="100px" version="1.1" style="shape-rendering:geometricPrecision; text-rendering:geometricPrecision; image-rendering:optimizeQuality; fill-rule:evenodd; clip-rule:evenodd"
viewBox="0 0 3.02 3.01"
 xmlns:xlink="http://www.w3.org/1999/xlink">
 <defs>
  <style type="text/css">
   <![CDATA[
    .fil0 {fill:#CCCCCC}
   ]]>
  </style>
 </defs>
 <g id="Camada_x0020_1">
  <metadata id="CorelCorpID_0Corel-Layer"/>
  <path class="fil0" d="M1.47 2.88c-0.04,0 -0.02,-0.01 -0.07,-0.01 0.07,-0.14 0.15,-0.28 0.21,-0.43 0.14,-0.33 0.14,-0.49 0.19,-0.81 0.01,-0.11 0.01,-0.2 0.02,-0.32 0,-0.1 0.01,-0.2 0.01,-0.32 0,-0.07 0.01,-0.09 0.01,-0.14 0,-0.06 0,-0.12 0,-0.18 0.08,0.01 0.18,0.05 0.26,0.07 0,0.74 0.54,1.15 0.35,1.71 -0.02,0.07 -0.02,0.08 -0.08,0.12 -0.26,0.2 -0.52,0.31 -0.9,0.31zm1.15 -0.6l0.01 0c0,0 -0.01,0 -0.01,0zm-1.37 0.58c-0.1,-0.05 -0.39,-0.06 -0.68,-0.36 -0.2,-0.2 -0.24,-0.2 0.02,-0.52l0.31 -0.37c0.01,-0.02 0.02,-0.03 0.04,-0.04 0.09,-0.12 0.25,-0.3 0.33,-0.43 0.07,-0.12 0.18,-0.29 0.18,-0.49 0.11,0 0.15,-0.01 0.24,0.01 0,0.64 0,1.2 -0.22,1.76 -0.06,0.14 -0.15,0.3 -0.22,0.44zm0.98 -2.06c0.14,0.01 0.5,0.3 0.6,0.42 0.1,0.14 0.03,0.57 -0.02,0.72 -0.06,0.16 -0.04,0.11 -0.12,0.25 -0.02,0.05 -0.01,0.05 -0.05,0.08 0,-0.28 -0.1,-0.49 -0.2,-0.74 -0.08,-0.2 -0.21,-0.46 -0.21,-0.73zm-1.94 1.35c-0.02,-0.04 -0.04,-0.1 -0.06,-0.14 -0.09,-0.23 -0.16,-0.72 0,-0.91 0.07,-0.09 0.19,-0.16 0.29,-0.21 0.2,-0.11 0.56,-0.23 0.79,-0.23 -0.05,0.21 -0.05,0.24 -0.18,0.44 -0.05,0.07 -0.08,0.12 -0.13,0.18 -0.05,0.06 -0.09,0.11 -0.15,0.18 -0.19,0.23 -0.29,0.32 -0.49,0.59 -0.03,0.04 -0.03,0.07 -0.07,0.1zm2.1 -1.67c0.07,0 0.34,0.35 0.37,0.48 -0.08,-0.06 -0.15,-0.12 -0.24,-0.17 -0.07,-0.05 -0.2,-0.12 -0.28,-0.14 0.02,-0.03 0.08,-0.17 0.15,-0.17zm-2.08 0.38c0.05,-0.19 0.51,-0.59 0.63,-0.59 0.18,0 0.35,0.06 0.35,0.26 -0.32,0 -0.72,0.15 -0.98,0.33zm1.81 -0.26c-0.08,-0.02 -0.18,-0.06 -0.28,-0.06l0 -0.36c0.07,0.01 0.17,0.05 0.23,0.08 0.04,0.02 0.07,0.03 0.11,0.05 0.03,0.02 0.06,0.05 0.1,0.06 -0.04,0.05 -0.06,0.04 -0.1,0.1 -0.03,0.04 -0.04,0.07 -0.06,0.13zm-0.92 -0.43c0.1,-0.01 0.2,-0.03 0.31,-0.03 0.08,0 0.11,0.01 0.19,0.01l0 0.37 -0.27 0c0,-0.07 -0.05,-0.16 -0.07,-0.21 -0.03,-0.03 -0.05,-0.06 -0.07,-0.08l-0.07 -0.04c-0.02,-0.02 0,0 -0.02,-0.02zm-1.2 1.31c0,0.53 0.23,0.96 0.64,1.26 0.49,0.35 1.24,0.37 1.73,0.01 0.6,-0.45 0.81,-1.19 0.51,-1.87l-0.13 -0.23c-0.17,-0.22 -0.36,-0.39 -0.61,-0.51 -0.4,-0.19 -0.86,-0.18 -1.26,0 -0.51,0.22 -0.88,0.77 -0.88,1.34z"/>
 </g>
</svg>
