<?xml version="1.0" encoding="UTF-8"?>
<!DOCTYPE svg PUBLIC "-//W3C//DTD SVG 1.1//EN" "http://www.w3.org/Graphics/SVG/1.1/DTD/svg11.dtd">
<!-- Creator: CorelDRAW 2018 (64 Bit Versão de avaliação) -->
<svg xmlns="http://www.w3.org/2000/svg" xml:space="preserve" width="89px" height="100px" version="1.1" style="shape-rendering:geometricPrecision; text-rendering:geometricPrecision; image-rendering:optimizeQuality; fill-rule:evenodd; clip-rule:evenodd"
viewBox="0 0 3.36 3.79"
 xmlns:xlink="http://www.w3.org/1999/xlink">
 <defs>
  <style type="text/css">
   <![CDATA[
    .fil0 {fill:#CCCCCC}
   ]]>
  </style>
 </defs>
 <g id="Camada_x0020_1">
  <metadata id="CorelCorpID_0Corel-Layer"/>
  <path class="fil0" d="M3.36 0l-3.36 0 0.31 3.4 1.37 0.39 1.37 -0.39 0.31 -3.4zm-0.62 0.71l-2.11 0 0.04 0.41 1.08 0.01 -1.04 0.43 0.04 0.4 1.45 0 -0.04 0.54 -0.47 0.13 -0.46 -0.11 -0.03 -0.34 -0.43 0.01 0.06 0.64 0.87 0.25 0.85 -0.25 0.11 -1.27 -0.98 0 1.01 -0.43 0.05 -0.42zm-1.06 2.78l-1.11 -0.3 -0.26 -2.94 2.75 0 -0.27 2.94 -1.11 0.3z"/>
 </g>
</svg>
