<?xml version="1.0" encoding="UTF-8"?>
<!DOCTYPE svg PUBLIC "-//W3C//DTD SVG 1.1//EN" "http://www.w3.org/Graphics/SVG/1.1/DTD/svg11.dtd">
<!-- Creator: CorelDRAW 2018 (64 Bit Versão de avaliação) -->
<svg xmlns="http://www.w3.org/2000/svg" xml:space="preserve" width="98px" height="100px" version="1.1" style="shape-rendering:geometricPrecision; text-rendering:geometricPrecision; image-rendering:optimizeQuality; fill-rule:evenodd; clip-rule:evenodd"
viewBox="0 0 4.5 4.61"
 xmlns:xlink="http://www.w3.org/1999/xlink">
 <defs>
  <style type="text/css">
   <![CDATA[
    .fil0 {fill:#CCCCCC}
   ]]>
  </style>
 </defs>
 <g id="Camada_x0020_1">
  <metadata id="CorelCorpID_0Corel-Layer"/>
  <path class="fil0" d="M0.85 3.73l0 -1.3 -0.03 -0.01c-0.07,-0.03 -0.13,-0.05 -0.19,-0.08 -0.12,-0.07 -0.22,-0.14 -0.31,-0.24 -0.09,-0.09 -0.16,-0.2 -0.22,-0.33 -0.11,-0.25 -0.13,-0.51 -0.07,-0.75 0.05,-0.18 0.13,-0.35 0.25,-0.49 0.12,-0.14 0.26,-0.25 0.43,-0.33 0.23,-0.1 0.49,-0.13 0.76,-0.06 0.07,0.02 0.11,0.03 0.13,0.04 0.01,0 0.01,0.01 0.01,0.01 0.01,0 0.01,-0.01 0.02,-0.01l0.05 -0.03c0.19,-0.1 0.38,-0.15 0.58,-0.15 0.19,0 0.39,0.05 0.57,0.15 0.02,0.01 0.03,0.02 0.04,0.02 0.01,0.01 0.02,0.02 0.04,0.01 0.07,-0.03 0.15,-0.05 0.23,-0.06 0.08,-0.01 0.16,-0.02 0.24,-0.01 0.2,0.01 0.37,0.07 0.52,0.15 0.18,0.1 0.32,0.24 0.4,0.37 0.17,0.26 0.23,0.55 0.19,0.83 -0.04,0.28 -0.18,0.54 -0.4,0.73 -0.17,0.14 -0.26,0.17 -0.44,0.24l0.01 1.3c0.11,0.02 0.11,0.07 0.1,0.18l0 0.05c0,0.13 0,0.22 0,0.29 0.01,0.16 0.01,0.24 -0.02,0.29 -0.03,0.08 -0.09,0.08 -0.21,0.07 -0.03,0 -0.06,0 -0.1,0l-2.35 0c-0.05,0 -0.07,0 -0.1,0 -0.12,0.01 -0.18,0.01 -0.22,-0.07 -0.02,-0.05 -0.02,-0.14 -0.02,-0.29 0,-0.08 0,-0.18 0,-0.29l0 -0.06c0,-0.11 0,-0.15 0.11,-0.17zm0.53 -3.35c-0.07,-0.02 -0.15,-0.02 -0.22,-0.02 -0.18,0.01 -0.36,0.07 -0.51,0.17 -0.15,0.11 -0.27,0.26 -0.34,0.45 -0.04,0.11 -0.06,0.23 -0.05,0.37 0.01,0.22 0.1,0.42 0.24,0.57 0.15,0.16 0.35,0.27 0.57,0.29 0.01,0.01 0.03,0.01 0.05,0.01 0.1,0 0.2,0.01 0.2,0.13 0,0.11 -0.07,0.13 -0.15,0.13 -0.02,0 -0.04,0 -0.06,0l0 0 0 1.24 2.29 0 0 -1.24 -0.01 0c-0.09,0 -0.18,0.01 -0.2,-0.1 -0.02,-0.11 0.04,-0.14 0.11,-0.15 0.03,-0.01 0.05,-0.01 0.08,-0.01 0.01,0 0.03,0 0.04,0 0.09,-0.01 0.16,-0.03 0.22,-0.06 0.07,-0.02 0.13,-0.05 0.18,-0.09 0.11,-0.06 0.21,-0.16 0.29,-0.29 0.06,-0.11 0.11,-0.23 0.13,-0.38 0.01,-0.1 0.01,-0.19 -0.01,-0.28 -0.04,-0.2 -0.14,-0.37 -0.28,-0.51 -0.14,-0.13 -0.32,-0.22 -0.52,-0.24 -0.09,-0.01 -0.19,-0.01 -0.29,0.01 -0.07,0.01 -0.11,0.03 -0.16,0.05l-0.05 0.02c-0.08,0.02 -0.14,-0.02 -0.2,-0.06 -0.01,-0.01 -0.03,-0.02 -0.04,-0.02 -0.21,-0.11 -0.42,-0.14 -0.62,-0.1 -0.21,0.05 -0.41,0.17 -0.55,0.34 -0.17,0.21 -0.19,0.43 -0.2,0.54 0,0.04 0,0.07 -0.01,0.09 -0.01,0.03 -0.04,0.05 -0.07,0.07 -0.03,0.01 -0.06,0.01 -0.1,-0.01 -0.03,-0.01 -0.06,-0.03 -0.07,-0.07 -0.01,-0.02 -0.01,-0.05 -0.01,-0.08 0.01,-0.09 0.02,-0.17 0.04,-0.25 0.02,-0.09 0.05,-0.17 0.08,-0.24 0.02,-0.03 0.04,-0.06 0.06,-0.09 0.02,-0.04 0.04,-0.07 0.06,-0.1 0.02,-0.02 0.04,-0.04 0.05,-0.05l0.03 -0.04zm0.11 2.48c-0.01,-0.08 -0.01,-0.16 0.07,-0.2 0.03,-0.01 0.06,-0.02 0.08,-0.01 0.03,0.01 0.06,0.02 0.07,0.04 0.03,0.04 0.03,0.09 0.03,0.13l0 0.48 0 0.04c0.01,0.08 0.01,0.17 -0.08,0.2 -0.07,0.04 -0.12,0.01 -0.15,-0.04 -0.02,-0.03 -0.02,-0.08 -0.02,-0.13l0 -0.47 0 -0.04zm1.27 0.55l0 -0.6c0,-0.08 0.03,-0.12 0.07,-0.15 0.01,-0.01 0.03,-0.01 0.05,-0.02 0.02,0 0.04,0.01 0.06,0.02 0.04,0.02 0.07,0.06 0.08,0.12l0 0.65c-0.01,0.06 -0.04,0.1 -0.08,0.11 -0.02,0.01 -0.04,0.02 -0.05,0.02 -0.02,-0.01 -0.04,-0.01 -0.06,-0.02 -0.04,-0.02 -0.07,-0.07 -0.07,-0.13zm-0.64 -0.51c0,-0.09 0,-0.16 0.1,-0.18 0.07,-0.02 0.11,0 0.13,0.04 0.02,0.04 0.03,0.08 0.03,0.12l0 0.48c0,0.08 0,0.16 -0.09,0.19 -0.07,0.02 -0.12,-0.01 -0.14,-0.05 -0.02,-0.03 -0.03,-0.08 -0.03,-0.12l0.01 -0.45 -0.01 -0.03zm-1.12 1.46c0.15,0 0.7,0 1.25,0 0.55,0 1.11,0 1.26,0l0 -0.38 -2.51 0 0 0.38z"/>
 </g>
</svg>
