<?xml version="1.0" encoding="UTF-8"?>
<!DOCTYPE svg PUBLIC "-//W3C//DTD SVG 1.1//EN" "http://www.w3.org/Graphics/SVG/1.1/DTD/svg11.dtd">
<!-- Creator: CorelDRAW 2018 (64 Bit Versão de avaliação) -->
<svg xmlns="http://www.w3.org/2000/svg" xml:space="preserve" width="80px" height="100px" version="1.1" style="shape-rendering:geometricPrecision; text-rendering:geometricPrecision; image-rendering:optimizeQuality; fill-rule:evenodd; clip-rule:evenodd"
viewBox="0 0 2.27 2.85"
 xmlns:xlink="http://www.w3.org/1999/xlink">
 <defs>
  <style type="text/css">
   <![CDATA[
    .fil0 {fill:#CCCCCC}
   ]]>
  </style>
 </defs>
 <g id="Camada_x0020_1">
  <metadata id="CorelCorpID_0Corel-Layer"/>
  <g id="_2013138816">
   <path class="fil0" d="M0.76 0.84c0,0.08 0.01,0.27 0.02,0.36l0.04 0.26c0,0.02 0.01,0.03 0.01,0.05 0.03,0.17 0.07,0.33 0.11,0.49 0.01,0.03 0.02,0.07 0.03,0.1 0,0.02 0.01,0.03 0.01,0.05l0.05 0.14c0.01,0.03 0.01,0.06 0.02,0.09 0.01,0.03 0.02,0.06 0.04,0.09l0.09 0 0.09 -0.27 0.12 -0.48c0.07,-0.26 0.11,-0.63 0.11,-0.88 0,-0.23 -0.04,-0.57 -0.2,-0.74 -0.12,-0.12 -0.26,-0.1 -0.36,0.03 -0.04,0.06 -0.09,0.15 -0.11,0.22l-0.04 0.15c-0.01,0.07 -0.01,0.12 -0.02,0.19 -0.01,0.04 -0.01,0.1 -0.01,0.15z"/>
   <path class="fil0" d="M1.24 2.44c0.02,0 0.09,-0.07 0.1,-0.08l0.12 -0.13c0.21,-0.26 0.36,-0.51 0.48,-0.83 0.12,-0.33 0.17,-0.74 0,-1.03 -0.11,-0.18 -0.31,-0.3 -0.52,-0.35 -0.03,-0.01 -0.06,-0.02 -0.1,-0.02 0,0.01 0.02,0.01 0.03,0.02 0.06,0.03 0.05,0.02 0.11,0.06 0.32,0.19 0.39,0.58 0.34,0.94 -0.05,0.33 -0.13,0.55 -0.26,0.85l-0.05 0.11c-0.03,0.07 -0.07,0.15 -0.11,0.21l-0.14 0.25z"/>
   <path class="fil0" d="M0.22 0.82c0,0.04 0,0.09 0.01,0.14 0,0.04 0.01,0.09 0.02,0.13 0.02,0.13 0.07,0.29 0.12,0.41 0.04,0.11 0.08,0.16 0.12,0.26 0.04,0.07 0.1,0.17 0.14,0.24l0.07 0.09c0.05,0.07 0.1,0.14 0.17,0.21 0.01,0.01 0.01,0.01 0.02,0.02 0,0 0,0 0.01,0.01l0.05 0.05c0.02,0.02 0.05,0.04 0.08,0.07 0,-0.02 -0.04,-0.07 -0.05,-0.09 -0.05,-0.09 -0.1,-0.18 -0.15,-0.27 -0.03,-0.06 -0.06,-0.12 -0.09,-0.18 -0.01,-0.04 -0.02,-0.07 -0.04,-0.1 -0.07,-0.16 -0.09,-0.25 -0.14,-0.41 -0.1,-0.29 -0.15,-0.71 -0.03,-1 0.01,-0.02 0.02,-0.03 0.03,-0.05 0.04,-0.08 0.08,-0.13 0.14,-0.19 0.03,-0.03 0.1,-0.08 0.14,-0.1 0.02,-0.01 0.09,-0.05 0.11,-0.05l0 -0.01c-0.08,0 -0.23,0.05 -0.3,0.09 -0.04,0.02 -0.08,0.04 -0.12,0.07 -0.02,0.01 -0.04,0.03 -0.05,0.04 -0.05,0.03 -0.11,0.11 -0.14,0.15 -0.08,0.15 -0.12,0.29 -0.12,0.47z"/>
   <path class="fil0" d="M0.92 2.42c0,-0.02 -0.08,-0.11 -0.09,-0.12l-0.29 -0.37c-0.03,-0.05 -0.06,-0.09 -0.09,-0.13 -0.01,-0.03 -0.02,-0.05 -0.04,-0.07 -0.11,-0.18 -0.22,-0.38 -0.27,-0.59l-0.03 -0.09c-0.02,-0.12 -0.02,-0.29 0,-0.4 0.02,-0.06 0.04,-0.11 0.06,-0.16 0.03,-0.07 0.08,-0.14 0.13,-0.2l0.17 -0.16c-0.05,0.01 -0.17,0.1 -0.21,0.13 -0.05,0.05 -0.12,0.13 -0.16,0.19 -0.01,0.02 -0.02,0.05 -0.04,0.07 -0.04,0.08 -0.06,0.2 -0.06,0.28l0.01 0.11c0.01,0.1 0.03,0.19 0.06,0.28 0.05,0.13 0.08,0.19 0.14,0.32 0.01,0.02 0.02,0.02 0.02,0.04 0.01,0.01 0.02,0.02 0.03,0.04 0.06,0.11 0.13,0.21 0.2,0.31l0.12 0.16c0.01,0.02 0.02,0.02 0.03,0.04l0.08 0.09c0.01,0.01 0.01,0.02 0.02,0.03l0.13 0.13c0,0 0,0 0,0 0.03,0.02 0.05,0.05 0.08,0.07z"/>
   <path class="fil0" d="M1.35 2.41c0.02,0 0.16,-0.14 0.18,-0.16l0.11 -0.12c0.09,-0.11 0.17,-0.23 0.25,-0.35 0.01,0 0.01,0 0.01,-0.01 0.06,-0.09 0.1,-0.16 0.15,-0.26 0.01,-0.01 0.02,-0.02 0.02,-0.03l0.09 -0.2c0.06,-0.15 0.11,-0.3 0.11,-0.47 0,-0.13 -0.03,-0.25 -0.1,-0.36 -0.01,-0.02 -0.03,-0.04 -0.05,-0.07l-0.05 -0.06c-0.01,-0.01 -0.02,-0.02 -0.03,-0.03l-0.09 -0.07c-0.04,-0.03 -0.11,-0.08 -0.15,-0.09 0.03,0.05 0.21,0.14 0.33,0.43 0.07,0.19 0.05,0.46 -0.02,0.66 -0.03,0.07 -0.04,0.11 -0.08,0.19 0,0.01 -0.01,0.02 -0.01,0.04 -0.02,0.02 -0.03,0.04 -0.04,0.07 -0.03,0.06 -0.1,0.17 -0.14,0.24 -0.05,0.08 -0.09,0.14 -0.15,0.22 -0.02,0.03 -0.04,0.04 -0.05,0.07 -0.06,0.08 -0.13,0.16 -0.19,0.24 -0.01,0.02 -0.09,0.11 -0.1,0.12z"/>
   <path class="fil0" d="M0.89 2.6l0.07 0.25 0.34 0c0,-0.03 0.05,-0.23 0.06,-0.26 -0.16,0 -0.31,0.01 -0.47,0.01z"/>
   <polygon class="fil0" points="1.24,2.44 1.24,2.44 1.24,2.45 "/>
   <polygon class="fil0" points="1.35,2.41 1.35,2.41 1.35,2.42 "/>
   <polygon class="fil0" points="0.92,2.42 0.92,2.42 0.93,2.42 "/>
  </g>
 </g>
</svg>
