<?xml version="1.0" encoding="UTF-8"?>
<!DOCTYPE svg PUBLIC "-//W3C//DTD SVG 1.1//EN" "http://www.w3.org/Graphics/SVG/1.1/DTD/svg11.dtd">
<!-- Creator: CorelDRAW 2018 (64 Bit Versão de avaliação) -->
<svg xmlns="http://www.w3.org/2000/svg" xml:space="preserve" width="20px" height="20px" version="1.1" style="shape-rendering:geometricPrecision; text-rendering:geometricPrecision; image-rendering:optimizeQuality; fill-rule:evenodd; clip-rule:evenodd"
viewBox="0 0 0.82 0.82"
 xmlns:xlink="http://www.w3.org/1999/xlink">
 <defs>
  <style type="text/css">
   <![CDATA[
    .fil0 {fill:#33CC99}
   ]]>
  </style>
 </defs>
 <g id="Camada_x0020_1">
  <metadata id="CorelCorpID_0Corel-Layer"/>
  <g id="_2242647536">
   <path class="fil0" d="M0.41 0c-0.23,0 -0.41,0.18 -0.41,0.41 0,0.23 0.18,0.41 0.41,0.41 0.23,0 0.41,-0.18 0.41,-0.41 0,-0.23 -0.18,-0.41 -0.41,-0.41zm0.27 0.2c0.04,0.06 0.07,0.13 0.07,0.2 -0.09,-0.01 -0.17,-0.02 -0.24,0 -0.01,-0.02 -0.01,-0.04 -0.02,-0.06 0.07,-0.03 0.14,-0.08 0.19,-0.14zm-0.05 -0.05c-0.04,0.06 -0.11,0.1 -0.17,0.13 -0.05,-0.09 -0.09,-0.15 -0.13,-0.2 0.03,-0.01 0.05,-0.01 0.08,-0.01 0.09,0 0.16,0.03 0.22,0.08zm-0.37 -0.05c0.04,0.05 0.08,0.12 0.13,0.2 -0.1,0.02 -0.2,0.03 -0.31,0.03 0.02,-0.1 0.09,-0.18 0.18,-0.23zm-0.19 0.31l0 -0.01 0 0c0.12,0 0.24,-0.01 0.35,-0.04 0.01,0.02 0.02,0.03 0.03,0.05 -0.15,0.04 -0.24,0.14 -0.3,0.23 -0.05,-0.06 -0.08,-0.14 -0.08,-0.23zm0.13 0.27c0.06,-0.08 0.14,-0.17 0.27,-0.21 0.03,0.08 0.06,0.17 0.07,0.26 -0.04,0.02 -0.08,0.02 -0.13,0.02 -0.08,0 -0.15,-0.02 -0.21,-0.07zm0.41 0.01c-0.02,-0.08 -0.04,-0.16 -0.07,-0.23 0.06,-0.01 0.13,-0.01 0.21,0.01 -0.02,0.09 -0.07,0.17 -0.14,0.22z"/>
  </g>
 </g>
</svg>
