<?xml version="1.0" encoding="UTF-8"?>
<!DOCTYPE svg PUBLIC "-//W3C//DTD SVG 1.1//EN" "http://www.w3.org/Graphics/SVG/1.1/DTD/svg11.dtd">
<!-- Creator: CorelDRAW 2018 (64 Bit Versão de avaliação) -->
<svg xmlns="http://www.w3.org/2000/svg" xml:space="preserve" width="2.032mm" height="2.032mm" version="1.1" style="shape-rendering:geometricPrecision; text-rendering:geometricPrecision; image-rendering:optimizeQuality; fill-rule:evenodd; clip-rule:evenodd"
viewBox="0 0 5.36 5.36"
 xmlns:xlink="http://www.w3.org/1999/xlink">
 <defs>
  <style type="text/css">
   <![CDATA[
    .fil0 {fill:white}
   ]]>
  </style>
 </defs>
 <g id="Camada_x0020_1">
  <metadata id="CorelCorpID_0Corel-Layer"/>
  <g id="_2231295748448">
   <path class="fil0" d="M2.68 0c-1.48,0 -2.68,1.2 -2.68,2.68 0,1.48 1.2,2.68 2.68,2.68 1.48,0 2.68,-1.2 2.68,-2.68 0,-1.48 -1.2,-2.68 -2.68,-2.68zm1.76 1.3c0.29,0.37 0.46,0.82 0.48,1.32 -0.6,-0.11 -1.12,-0.11 -1.57,-0.04 -0.06,-0.13 -0.12,-0.26 -0.18,-0.38 0.48,-0.2 0.91,-0.49 1.26,-0.9zm-0.31 -0.32c-0.32,0.38 -0.71,0.65 -1.16,0.83 -0.29,-0.53 -0.58,-0.97 -0.82,-1.3 0.17,-0.04 0.35,-0.06 0.53,-0.06 0.55,0 1.06,0.2 1.45,0.54zm-2.41 -0.32c0.23,0.3 0.53,0.75 0.83,1.29 -0.63,0.17 -1.33,0.22 -2.04,0.22 0.16,-0.67 0.61,-1.22 1.22,-1.51zm-1.28 2.02l0 -0.07 0.01 0c0.8,0 1.59,-0.05 2.3,-0.26 0.05,0.11 0.11,0.22 0.16,0.33 -0.93,0.27 -1.52,0.89 -1.92,1.47 -0.34,-0.39 -0.55,-0.91 -0.55,-1.47zm0.88 1.78c0.38,-0.57 0.9,-1.13 1.76,-1.37 0.2,0.51 0.36,1.07 0.45,1.66 -0.26,0.11 -0.55,0.17 -0.85,0.17 -0.51,0 -0.98,-0.17 -1.36,-0.46zm2.62 0.07c-0.09,-0.54 -0.24,-1.05 -0.42,-1.52 0.39,-0.05 0.84,-0.04 1.36,0.06 -0.1,0.61 -0.45,1.13 -0.94,1.47z"/>
  </g>
 </g>
</svg>
