<?xml version="1.0" encoding="UTF-8"?>
<!DOCTYPE svg PUBLIC "-//W3C//DTD SVG 1.1//EN" "http://www.w3.org/Graphics/SVG/1.1/DTD/svg11.dtd">
<!-- Creator: CorelDRAW 2018 (64 Bit Versão de avaliação) -->
<svg xmlns="http://www.w3.org/2000/svg" xml:space="preserve" width="100px" height="100px" version="1.1" style="shape-rendering:geometricPrecision; text-rendering:geometricPrecision; image-rendering:optimizeQuality; fill-rule:evenodd; clip-rule:evenodd"
viewBox="0 0 3.5 3.5"
 xmlns:xlink="http://www.w3.org/1999/xlink">
 <defs>
  <style type="text/css">
   <![CDATA[
    .fil1 {fill:none}
    .fil0 {fill:#CCCCCC}
   ]]>
  </style>
 </defs>
 <g id="Camada_x0020_1">
  <metadata id="CorelCorpID_0Corel-Layer"/>
  <g id="_2815373008">
   <path class="fil0" d="M1.75 0l0.59 0c0.32,0 0.58,0.26 0.58,0.58l0 0c0,0.33 -0.26,0.59 -0.58,0.59l-0.59 0 0 -1.17z"/>
   <path class="fil0" d="M1.17 0l0.58 0 0 1.17 -0.58 0c-0.32,0 -0.59,-0.26 -0.59,-0.59l0 0c0,-0.32 0.27,-0.58 0.59,-0.58z"/>
   <rect class="fil0" x="1.75" y="1.17" width="1.17" height="1.17" rx="0.58" ry="0.58"/>
   <path class="fil0" d="M1.17 1.17l0.58 0 0 1.17 -0.58 0c-0.32,0 -0.59,-0.27 -0.59,-0.59l0 0c0,-0.32 0.27,-0.58 0.59,-0.58z"/>
   <path class="fil0" d="M1.17 2.34l0.58 0 0 0.58c0,0.32 -0.26,0.58 -0.58,0.58l0 0c-0.32,0 -0.59,-0.26 -0.59,-0.58l0 0c0,-0.32 0.27,-0.58 0.59,-0.58z"/>
  </g>
  <rect class="fil1" width="3.5" height="3.5"/>
 </g>
</svg>
