<?xml version="1.0" encoding="UTF-8"?>
<!DOCTYPE svg PUBLIC "-//W3C//DTD SVG 1.1//EN" "http://www.w3.org/Graphics/SVG/1.1/DTD/svg11.dtd">
<!-- Creator: CorelDRAW 2018 (64 Bit Versão de avaliação) -->
<svg xmlns="http://www.w3.org/2000/svg" xml:space="preserve" width="72px" height="70px" version="1.1" style="shape-rendering:geometricPrecision; text-rendering:geometricPrecision; image-rendering:optimizeQuality; fill-rule:evenodd; clip-rule:evenodd"
viewBox="0 0 2.43 2.37"
 xmlns:xlink="http://www.w3.org/1999/xlink">
 <defs>
  <style type="text/css">
   <![CDATA[
    .fil0 {fill:#33CC99}
   ]]>
  </style>
 </defs>
 <g id="Camada_x0020_1">
  <metadata id="CorelCorpID_0Corel-Layer"/>
  <path class="fil0" d="M0.91 2.09c-0.1,0.01 -0.11,0.02 -0.23,0 -0.07,-0.01 -0.12,-0.05 -0.15,-0.1 -0.03,-0.03 -0.03,-0.08 -0.09,-0.16 -0.05,-0.07 -0.12,-0.07 -0.12,-0.12 0.06,-0.05 0.17,0.02 0.2,0.05 0.06,0.06 0.11,0.25 0.36,0.17 0.03,-0.01 0.03,-0.01 0.04,-0.03 0.01,-0.03 0.01,-0.04 0.02,-0.06 0.02,-0.05 0.04,-0.07 0.05,-0.09 -0.12,-0.01 -0.21,-0.03 -0.3,-0.08 -0.09,-0.05 -0.15,-0.12 -0.19,-0.21 -0.05,-0.1 -0.07,-0.23 -0.06,-0.35 0.01,-0.11 0.06,-0.23 0.12,-0.28 0,-0.03 -0.03,-0.07 -0.02,-0.17 0,-0.04 0.02,-0.13 0.04,-0.15 0.06,-0.03 0.25,0.07 0.29,0.1 0.03,0.01 0.03,0.02 0.07,0.01 0.14,-0.03 0.31,-0.04 0.46,-0.02 0.11,0.02 0.1,0.04 0.15,0.01 0.07,-0.04 0.2,-0.12 0.3,-0.11 0.02,0.03 0.04,0.12 0.04,0.16 0.01,0.1 -0.02,0.14 -0.02,0.17 0.06,0.05 0.11,0.19 0.12,0.28 0.01,0.12 -0.01,0.25 -0.06,0.35 -0.08,0.17 -0.23,0.25 -0.41,0.28l-0.06 0.01c-0.03,0.01 0,-0.01 -0.02,0.01 0.05,0.04 0.08,0.13 0.08,0.23 0,0.1 0,0.21 0,0.31 0,0.12 0.12,0.06 0.19,0.03 0.04,-0.02 0.07,-0.04 0.11,-0.05 0.03,-0.02 0.06,-0.04 0.09,-0.06 0.04,-0.03 0.06,-0.05 0.09,-0.07 0.04,-0.03 0.08,-0.08 0.12,-0.12 0.01,-0.01 0.02,-0.02 0.03,-0.04 0.03,-0.03 0.05,-0.05 0.07,-0.09 0.2,-0.28 0.26,-0.65 0.17,-0.99 -0.04,-0.18 -0.12,-0.3 -0.2,-0.42 -0.02,-0.03 -0.05,-0.06 -0.07,-0.09 -0.18,-0.2 -0.44,-0.34 -0.71,-0.38 -0.73,-0.12 -1.34,0.43 -1.4,1.06 -0.03,0.33 0.04,0.6 0.22,0.85 0.01,0.02 0.02,0.03 0.03,0.04 0.02,0.02 0.03,0.04 0.04,0.05l0.08 0.08c0.1,0.09 0.14,0.12 0.27,0.19 0.03,0.02 0.18,0.1 0.23,0.08 0.04,-0.02 0.03,-0.07 0.03,-0.12 0,-0.05 0,-0.11 0,-0.16z"/>
 </g>
</svg>
