<?xml version="1.0" encoding="UTF-8"?>
<!DOCTYPE svg PUBLIC "-//W3C//DTD SVG 1.1//EN" "http://www.w3.org/Graphics/SVG/1.1/DTD/svg11.dtd">
<!-- Creator: CorelDRAW 2018 (64 Bit Versão de avaliação) -->
<svg xmlns="http://www.w3.org/2000/svg" xml:space="preserve" width="120px" height="120px" version="1.1" style="shape-rendering:geometricPrecision; text-rendering:geometricPrecision; image-rendering:optimizeQuality; fill-rule:evenodd; clip-rule:evenodd"
viewBox="0 0 6.18 6.18"
 xmlns:xlink="http://www.w3.org/1999/xlink">
 <defs>
  <style type="text/css">
   <![CDATA[
    .fil0 {fill:black}
   ]]>
  </style>
 </defs>
 <g id="Camada_x0020_1">
  <metadata id="CorelCorpID_0Corel-Layer"/>
  <path class="fil0" d="M5.24 1.22c-0.03,0 -0.05,0.01 -0.06,0.03 -0.02,0.01 -0.03,0.04 -0.03,0.06 0,0.03 0.01,0.05 0.03,0.07 0.01,0.01 0.03,0.02 0.06,0.02 0.02,0 0.05,-0.01 0.06,-0.02 0.02,-0.02 0.03,-0.04 0.03,-0.07 0,-0.02 -0.01,-0.05 -0.03,-0.06 -0.01,-0.02 -0.04,-0.03 -0.06,-0.03zm-3.01 3.53c-0.08,-0.22 -0.45,-1.11 -0.45,-1.21 0,-0.03 -0.03,-0.05 0.15,-0.36l0.56 -1.02c0.15,-0.23 0.32,-0.53 0.52,-0.89 0.01,-0.02 0.02,-0.03 0.04,-0.04 0.01,-0.01 0.03,-0.01 0.04,-0.01 0.02,0 0.04,0 0.05,0.01 0.01,0.01 0.02,0.02 0.03,0.04 0.15,0.27 1.23,2.15 1.23,2.27 0.01,0.1 -0.39,1.05 -0.45,1.23l0.02 0.01c0.06,0.03 0.11,0.07 0.14,0.12 0.03,0.06 0.05,0.12 0.05,0.18 0,0.05 -0.01,0.09 -0.03,0.13 -0.01,0.04 -0.04,0.08 -0.07,0.11 -0.02,0.02 -0.04,0.03 -0.06,0.04 -0.02,0.02 -0.04,0.03 -0.06,0.04l-0.02 0 0 0.69c0,0.03 -0.01,0.05 -0.03,0.07 -0.02,0.01 -0.04,0.02 -0.07,0.02l-1.46 0c-0.02,0 -0.05,-0.01 -0.06,-0.02 -0.02,-0.02 -0.03,-0.04 -0.03,-0.07l0 -0.69 -0.02 0c-0.07,-0.03 -0.12,-0.07 -0.16,-0.13 -0.04,-0.05 -0.06,-0.12 -0.06,-0.19 0,-0.04 0,-0.09 0.02,-0.13 0.02,-0.04 0.04,-0.07 0.07,-0.11 0.02,-0.01 0.03,-0.02 0.05,-0.03 0.01,-0.01 0.03,-0.02 0.04,-0.03l0.03 -0.01 -0.01 -0.01 0 -0.01zm3.62 -4.75c-0.07,0 -0.14,0.02 -0.19,0.06 -0.06,0.04 -0.1,0.1 -0.13,0.16l0 0.02 -2.1 0 0 -0.15c0,-0.02 -0.01,-0.05 -0.03,-0.06 -0.02,-0.02 -0.04,-0.03 -0.06,-0.03l-0.49 0c-0.03,0 -0.05,0.01 -0.07,0.03 -0.01,0.01 -0.02,0.04 -0.02,0.06l0 0.15 -2.1 0 -0.01 -0.02c-0.02,-0.06 -0.07,-0.12 -0.12,-0.16 -0.06,-0.04 -0.12,-0.06 -0.19,-0.06 -0.1,0 -0.18,0.04 -0.24,0.1 -0.06,0.06 -0.1,0.14 -0.1,0.24 0,0.09 0.04,0.17 0.1,0.23 0.06,0.06 0.14,0.1 0.24,0.1 0.07,0 0.13,-0.02 0.19,-0.06 0.05,-0.04 0.1,-0.1 0.12,-0.16l0.01 -0.02c0.47,0 0.93,0 1.4,0l-0.14 0.06c-0.13,0.05 -0.26,0.11 -0.37,0.18 -0.12,0.07 -0.22,0.14 -0.32,0.22l0 0.01c-0.02,0.01 -0.03,0.04 -0.03,0.06 0,0.02 0,0.04 0.02,0.06l0 0.01c0.01,0.01 0.02,0.01 0.03,0.02 0.01,0 0.03,0.01 0.04,0.01 0.01,0 0.02,0 0.03,-0.01 0.01,0 0.02,-0.01 0.03,-0.01 0.18,-0.15 0.39,-0.28 0.62,-0.38 0.24,-0.1 0.49,-0.17 0.75,-0.21l0.04 0 0 0.13c0,0.02 0.01,0.05 0.02,0.06 0.02,0.02 0.04,0.03 0.07,0.03l0.49 0c0.02,0 0.04,-0.01 0.06,-0.03 0.02,-0.01 0.03,-0.04 0.03,-0.06l0 -0.13 0.03 0c0.26,0.04 0.52,0.11 0.75,0.21 0.23,0.1 0.45,0.23 0.63,0.38 0,0 0.01,0.01 0.02,0.01 0.01,0.01 0.02,0.01 0.03,0.01 0.02,0 0.03,-0.01 0.04,-0.01 0.02,-0.01 0.03,-0.01 0.03,-0.02l0.01 -0.01c0.01,-0.02 0.02,-0.04 0.02,-0.06 -0.01,-0.02 -0.02,-0.05 -0.04,-0.06l0 -0.01c-0.09,-0.08 -0.2,-0.15 -0.31,-0.22 -0.12,-0.07 -0.24,-0.13 -0.37,-0.18l-0.14 -0.06 1.4 0 0 0.02c0.03,0.06 0.07,0.12 0.13,0.16 0.05,0.04 0.12,0.06 0.19,0.06 0.09,0 0.18,-0.04 0.24,-0.1 0.06,-0.06 0.09,-0.14 0.09,-0.23 0,-0.1 -0.03,-0.18 -0.09,-0.24 -0.06,-0.06 -0.15,-0.1 -0.24,-0.1zm-5.51 0.49c-0.05,0 -0.09,-0.02 -0.11,-0.05 -0.03,-0.02 -0.05,-0.06 -0.05,-0.1 0,-0.05 0.02,-0.08 0.05,-0.11 0.03,-0.03 0.06,-0.05 0.11,-0.05 0.04,0 0.08,0.02 0.1,0.05 0.03,0.02 0.05,0.06 0.05,0.11 0,0.04 -0.02,0.08 -0.05,0.1 -0.02,0.03 -0.06,0.05 -0.1,0.05zm2.91 -0.15l0 0.15 -0.31 0 0 -0.31 0.31 0 0 0.16zm2.6 0.15c-0.04,0 -0.08,-0.02 -0.11,-0.05 -0.03,-0.02 -0.04,-0.06 -0.04,-0.1 0,-0.05 0.01,-0.09 0.04,-0.11 0.03,-0.03 0.07,-0.05 0.11,-0.05 0.04,0 0.08,0.02 0.11,0.05 0.03,0.02 0.04,0.06 0.04,0.11 0,0.04 -0.01,0.08 -0.04,0.1 -0.03,0.03 -0.07,0.05 -0.11,0.05zm-5.13 1.15c-0.03,-0.02 -0.05,-0.02 -0.07,-0.01 -0.02,0 -0.05,0.02 -0.06,0.04 -0.08,0.15 -0.15,0.31 -0.21,0.48 -0.05,0.16 -0.09,0.33 -0.11,0.51l-0.01 0.02 -0.17 0c-0.02,0 -0.05,0.01 -0.06,0.03 -0.02,0.02 -0.03,0.04 -0.03,0.07l0 0.48c0,0.03 0.01,0.05 0.03,0.07 0.01,0.01 0.04,0.02 0.06,0.02l0.49 0c0.02,0 0.05,-0.01 0.06,-0.02 0.02,-0.02 0.03,-0.04 0.03,-0.07l0 -0.48c0,-0.03 -0.01,-0.05 -0.03,-0.07 -0.01,-0.02 -0.04,-0.03 -0.06,-0.03l-0.13 0 0 -0.03c0.03,-0.16 0.06,-0.31 0.11,-0.46 0.05,-0.15 0.12,-0.29 0.19,-0.43 0.01,-0.02 0.02,-0.05 0.01,-0.07 -0.01,-0.02 -0.02,-0.04 -0.04,-0.05zm-0.26 1.53l-0.28 0 0 -0.3 0.31 0 0 0.3 -0.03 0zm2.63 0.22c0.04,0 0.08,0.02 0.11,0.05 0.03,0.02 0.05,0.06 0.05,0.1 0,0.05 -0.02,0.08 -0.05,0.11 -0.03,0.03 -0.07,0.05 -0.11,0.05 -0.04,0 -0.08,-0.02 -0.11,-0.05 -0.02,-0.03 -0.04,-0.06 -0.04,-0.11 0,-0.04 0.02,-0.08 0.04,-0.1 0.03,-0.03 0.07,-0.05 0.11,-0.05zm0.61 2.61l-1.25 0 0 -0.58 1.28 0 0 0.58 -0.03 0zm0.23 -0.81c-0.01,0.01 -0.03,0.02 -0.05,0.03 -0.02,0.01 -0.04,0.01 -0.06,0.01l-1.46 0c-0.04,0 -0.08,-0.01 -0.11,-0.04 -0.03,-0.03 -0.04,-0.07 -0.04,-0.11 0,-0.02 0,-0.04 0.01,-0.06 0.01,-0.02 0.02,-0.03 0.03,-0.05 0.02,-0.01 0.03,-0.02 0.05,-0.03 0.02,-0.01 0.04,-0.01 0.06,-0.01l1.47 0c0.04,0 0.08,0.02 0.1,0.04 0.03,0.03 0.05,0.07 0.05,0.11 0,0.02 -0.01,0.04 -0.01,0.06 -0.01,0.02 -0.02,0.03 -0.04,0.05zm-0.19 -0.44l-1.32 0c-0.14,-0.37 -0.28,-0.74 -0.42,-1.11l0.36 0c0.03,0 0.05,-0.02 0.06,-0.03 0.02,-0.02 0.03,-0.04 0.03,-0.07 0,-0.02 -0.01,-0.04 -0.03,-0.06 -0.01,-0.02 -0.03,-0.03 -0.06,-0.03l-0.33 0 0.97 -1.78 0 1.55 -0.02 0.01c-0.07,0.02 -0.12,0.06 -0.16,0.12 -0.04,0.06 -0.06,0.12 -0.06,0.19 0,0.1 0.03,0.18 0.1,0.24 0.06,0.06 0.14,0.1 0.23,0.1 0.09,0 0.18,-0.04 0.24,-0.1 0.06,-0.06 0.1,-0.14 0.1,-0.24 0,-0.07 -0.03,-0.13 -0.06,-0.19 -0.04,-0.06 -0.1,-0.1 -0.17,-0.12l-0.02 -0.01 0 -1.55 0.98 1.78 -0.34 0c-0.02,0 -0.04,0.01 -0.06,0.03 -0.02,0.02 -0.03,0.04 -0.03,0.06 0,0.03 0.01,0.05 0.03,0.07 0.02,0.01 0.04,0.03 0.06,0.03l0.36 0 -0.42 1.11 -0.02 0zm2.35 -2.07l-0.17 0 0 -0.02c-0.03,-0.18 -0.06,-0.35 -0.12,-0.51 -0.05,-0.17 -0.12,-0.33 -0.21,-0.48 -0.01,-0.02 -0.03,-0.04 -0.05,-0.04 -0.03,-0.01 -0.05,-0.01 -0.07,0.01 -0.02,0.01 -0.04,0.03 -0.05,0.05 0,0.02 0,0.05 0.01,0.07 0.08,0.14 0.14,0.28 0.19,0.43 0.05,0.15 0.09,0.3 0.11,0.46l0.01 0.03 -0.13 0c-0.03,0 -0.05,0.01 -0.07,0.03 -0.02,0.02 -0.03,0.04 -0.03,0.07l0 0.48c0,0.03 0.01,0.05 0.03,0.07 0.02,0.01 0.04,0.02 0.07,0.02l0.48 0c0.03,0 0.05,-0.01 0.07,-0.02 0.01,-0.02 0.02,-0.04 0.02,-0.07l0 -0.48c0,-0.03 -0.01,-0.05 -0.02,-0.07 -0.02,-0.02 -0.04,-0.03 -0.07,-0.03zm-0.12 0.49l-0.27 0 0 -0.3 0.3 0 0 0.3 -0.03 0zm-5.02 -1.95c-0.03,0 -0.05,0.01 -0.07,0.03 -0.02,0.01 -0.03,0.04 -0.03,0.06 0,0.03 0.01,0.05 0.03,0.07 0.02,0.01 0.04,0.02 0.07,0.02 0.02,0 0.04,-0.01 0.06,-0.02 0.02,-0.02 0.03,-0.04 0.03,-0.07 0,-0.02 -0.01,-0.05 -0.03,-0.06 -0.02,-0.02 -0.04,-0.03 -0.06,-0.03z"/>
 </g>
</svg>
