<?xml version="1.0" encoding="UTF-8"?>
<!DOCTYPE svg PUBLIC "-//W3C//DTD SVG 1.1//EN" "http://www.w3.org/Graphics/SVG/1.1/DTD/svg11.dtd">
<!-- Creator: CorelDRAW 2018 (64 Bit Versão de avaliação) -->
<svg xmlns="http://www.w3.org/2000/svg" xml:space="preserve" width="10.16mm" height="10.16mm" version="1.1" style="shape-rendering:geometricPrecision; text-rendering:geometricPrecision; image-rendering:optimizeQuality; fill-rule:evenodd; clip-rule:evenodd"
viewBox="0 0 52.36 52.36"
 xmlns:xlink="http://www.w3.org/1999/xlink">
 <defs>
  <style type="text/css">
   <![CDATA[
    .fil0 {fill:#33CC99}
   ]]>
  </style>
 </defs>
 <g id="Camada_x0020_1">
  <metadata id="CorelCorpID_0Corel-Layer"/>
  <path class="fil0" d="M44.36 10.33c-0.21,0 -0.41,0.09 -0.55,0.23 -0.14,0.14 -0.23,0.33 -0.23,0.55 0,0.21 0.09,0.41 0.23,0.55 0.14,0.14 0.33,0.23 0.55,0.23 0.21,0 0.41,-0.09 0.55,-0.23 0.14,-0.14 0.23,-0.33 0.23,-0.55 0,-0.21 -0.09,-0.41 -0.23,-0.55 -0.14,-0.14 -0.33,-0.23 -0.55,-0.23zm-25.48 29.88c-0.71,-1.83 -3.84,-9.41 -3.8,-10.23 0.01,-0.25 -0.24,-0.46 1.28,-3.06l4.7 -8.6c1.26,-2.01 2.74,-4.47 4.44,-7.58 0.07,-0.12 0.17,-0.22 0.28,-0.29 0.12,-0.07 0.25,-0.11 0.39,-0.11 0.14,0 0.28,0.04 0.39,0.11 0.12,0.07 0.22,0.17 0.28,0.29 1.26,2.3 10.38,18.21 10.42,19.25 0.05,0.86 -3.3,8.9 -3.86,10.39l0.21 0.1c0.47,0.24 0.88,0.6 1.16,1.05 0.27,0.43 0.43,0.95 0.43,1.49 0,0.38 -0.07,0.75 -0.21,1.09 -0.14,0.34 -0.35,0.65 -0.62,0.92 -0.15,0.15 -0.32,0.29 -0.49,0.4 -0.18,0.11 -0.37,0.2 -0.56,0.27l-0.17 0.06 0 5.83c0,0.21 -0.09,0.41 -0.23,0.55 -0.14,0.14 -0.33,0.23 -0.55,0.23l-12.39 0c-0.21,0 -0.41,-0.09 -0.55,-0.23 -0.14,-0.14 -0.23,-0.33 -0.23,-0.55l0 -5.84 -0.17 -0.06c-0.56,-0.2 -1.04,-0.57 -1.37,-1.04 -0.33,-0.46 -0.52,-1.03 -0.52,-1.63 0,-0.38 0.07,-0.75 0.21,-1.09 0.14,-0.34 0.35,-0.65 0.62,-0.92 0.11,-0.11 0.23,-0.21 0.35,-0.3 0.12,-0.09 0.26,-0.17 0.4,-0.24l0.21 -0.1 -0.03 -0.08 -0.03 -0.08zm30.65 -40.21c-0.61,0 -1.17,0.19 -1.63,0.52 -0.47,0.34 -0.84,0.82 -1.04,1.37l-0.06 0.17 -17.77 0 0 -1.29c0,-0.21 -0.09,-0.41 -0.23,-0.55 -0.14,-0.14 -0.33,-0.23 -0.55,-0.23l-4.13 0c-0.21,0 -0.41,0.09 -0.55,0.23 -0.14,0.14 -0.23,0.33 -0.23,0.55l0 1.29 -17.77 0 -0.06 -0.17c-0.2,-0.56 -0.57,-1.04 -1.04,-1.37 -0.46,-0.33 -1.03,-0.52 -1.63,-0.52 -0.78,0 -1.49,0.32 -2.01,0.83 -0.51,0.51 -0.83,1.22 -0.83,2.01 0,0.78 0.32,1.49 0.83,2.01 0.51,0.51 1.22,0.83 2.01,0.83 0.61,0 1.17,-0.19 1.63,-0.52 0.47,-0.34 0.84,-0.81 1.04,-1.37l0.06 -0.17c3.95,-0.01 7.91,-0 11.86,-0l-1.19 0.5c-1.1,0.46 -2.15,0.99 -3.13,1.58 -0.96,0.58 -1.86,1.21 -2.67,1.89l-0.02 0.01c-0.16,0.14 -0.25,0.33 -0.27,0.52 -0.02,0.19 0.04,0.39 0.16,0.55l0.02 0.02c0.07,0.09 0.17,0.16 0.26,0.2 0.1,0.05 0.22,0.07 0.33,0.07 0.09,0 0.18,-0.02 0.26,-0.05 0.08,-0.03 0.16,-0.08 0.23,-0.14 1.5,-1.26 3.32,-2.35 5.3,-3.19 1.99,-0.84 4.15,-1.45 6.33,-1.75l0.3 -0.04 0 1.11c0,0.21 0.09,0.41 0.23,0.55 0.14,0.14 0.33,0.23 0.55,0.23l4.13 0c0.21,0 0.41,-0.09 0.55,-0.23 0.14,-0.14 0.23,-0.33 0.23,-0.55l0 -1.11 0.3 0.04c2.18,0.3 4.34,0.91 6.33,1.75 1.98,0.84 3.8,1.92 5.3,3.19 0.07,0.06 0.15,0.1 0.23,0.14 0.09,0.03 0.18,0.05 0.26,0.05 0.11,-0 0.23,-0.03 0.33,-0.07 0.1,-0.05 0.19,-0.11 0.26,-0.2l0.01 -0.02c0.13,-0.16 0.18,-0.36 0.16,-0.55 -0.02,-0.2 -0.11,-0.39 -0.27,-0.53l-0.02 -0.01c-0.81,-0.68 -1.71,-1.31 -2.67,-1.89 -0.98,-0.59 -2.04,-1.12 -3.13,-1.58l-1.2 -0.5 11.86 0 0.06 0.17c0.2,0.56 0.57,1.04 1.04,1.37 0.46,0.33 1.03,0.52 1.63,0.52 0.78,0 1.49,-0.32 2.01,-0.83 0.51,-0.51 0.83,-1.22 0.83,-2.01 0,-0.78 -0.32,-1.49 -0.83,-2.01 -0.51,-0.51 -1.22,-0.83 -2.01,-0.83zm-46.69 4.13c-0.36,0 -0.68,-0.15 -0.91,-0.38 -0.23,-0.23 -0.38,-0.56 -0.38,-0.91 0,-0.36 0.14,-0.68 0.38,-0.91 0.23,-0.24 0.56,-0.38 0.91,-0.38 0.36,0 0.68,0.14 0.91,0.38 0.23,0.23 0.38,0.56 0.38,0.91 0,0.36 -0.15,0.68 -0.38,0.91 -0.24,0.23 -0.56,0.38 -0.91,0.38zm24.64 -1.29l0 1.29 -2.59 0 0 -2.59 2.59 0 0 1.29zm22.05 1.29c-0.36,0 -0.68,-0.15 -0.91,-0.38 -0.23,-0.23 -0.38,-0.56 -0.38,-0.91 0,-0.36 0.15,-0.68 0.38,-0.91 0.24,-0.23 0.56,-0.38 0.91,-0.38 0.36,0 0.68,0.14 0.91,0.38 0.23,0.23 0.38,0.56 0.38,0.91 0,0.36 -0.14,0.68 -0.38,0.91 -0.23,0.23 -0.56,0.38 -0.91,0.38zm-43.46 9.72c-0.19,-0.1 -0.4,-0.12 -0.59,-0.07 -0.19,0.05 -0.36,0.18 -0.46,0.37 -0.72,1.3 -1.32,2.65 -1.78,4.04 -0.46,1.4 -0.79,2.84 -0.98,4.3l-0.03 0.23 -1.46 0c-0.21,0 -0.41,0.09 -0.55,0.23 -0.14,0.14 -0.23,0.33 -0.23,0.55l0 4.13c0,0.21 0.09,0.41 0.23,0.55 0.14,0.14 0.33,0.23 0.55,0.23l4.13 0c0.21,0 0.41,-0.09 0.55,-0.23 0.14,-0.14 0.23,-0.33 0.23,-0.55l0 -4.13c0,-0.21 -0.09,-0.41 -0.23,-0.55 -0.14,-0.14 -0.33,-0.23 -0.55,-0.23l-1.11 0 0.04 -0.3c0.19,-1.32 0.5,-2.62 0.92,-3.88 0.42,-1.26 0.96,-2.47 1.62,-3.65 0.1,-0.19 0.12,-0.4 0.07,-0.59 -0.05,-0.19 -0.18,-0.36 -0.37,-0.46zm-2.2 13l-2.33 0 0 -2.59 2.59 0 0 2.59 -0.26 0zm22.31 1.85c0.36,0 0.68,0.15 0.91,0.38 0.23,0.23 0.38,0.56 0.38,0.91 0,0.36 -0.15,0.68 -0.38,0.91 -0.23,0.24 -0.56,0.38 -0.91,0.38 -0.36,0 -0.68,-0.15 -0.91,-0.38 -0.23,-0.24 -0.38,-0.56 -0.38,-0.91 0,-0.36 0.14,-0.68 0.38,-0.91 0.23,-0.24 0.56,-0.38 0.91,-0.38zm5.16 22.11l-10.59 0 0 -4.96 10.85 0 0 4.96 -0.26 0zm1.95 -6.89c-0.12,0.12 -0.26,0.22 -0.42,0.28 -0.16,0.06 -0.32,0.1 -0.49,0.1l-12.39 0c-0.36,0 -0.68,-0.15 -0.91,-0.38 -0.23,-0.24 -0.38,-0.56 -0.38,-0.91 0,-0.17 0.04,-0.34 0.1,-0.49 0.06,-0.16 0.16,-0.3 0.28,-0.42 0.12,-0.12 0.26,-0.22 0.42,-0.28 0.16,-0.06 0.32,-0.1 0.5,-0.1l12.41 0c0.35,0 0.67,0.15 0.9,0.38 0.23,0.23 0.38,0.56 0.38,0.91 0,0.17 -0.03,0.34 -0.1,0.49 -0.06,0.16 -0.16,0.3 -0.28,0.42zm-1.63 -3.75l-11.15 0c-1.19,-3.13 -2.37,-6.27 -3.55,-9.4l3.01 0c0.21,0 0.41,-0.09 0.55,-0.23 0.14,-0.14 0.23,-0.33 0.23,-0.55 0,-0.21 -0.09,-0.41 -0.23,-0.55 -0.14,-0.14 -0.33,-0.23 -0.55,-0.23l-2.83 0 8.25 -15.1 0 13.14 -0.17 0.06c-0.56,0.2 -1.04,0.57 -1.37,1.04 -0.33,0.46 -0.52,1.03 -0.52,1.63 0,0.78 0.32,1.49 0.83,2.01 0.51,0.51 1.22,0.83 2.01,0.83 0.78,0 1.49,-0.32 2.01,-0.83 0.51,-0.51 0.83,-1.22 0.83,-2.01 0,-0.61 -0.19,-1.17 -0.52,-1.63 -0.34,-0.47 -0.81,-0.84 -1.37,-1.04l-0.17 -0.06 0 -13.14 8.25 15.1 -2.83 0c-0.21,0 -0.41,0.09 -0.55,0.23 -0.14,0.14 -0.23,0.33 -0.23,0.55 0,0.21 0.09,0.41 0.23,0.55 0.14,0.14 0.33,0.23 0.55,0.23l3.01 0 -3.55 9.4 -0.18 0zm19.93 -17.46l-1.46 0 -0.03 -0.23c-0.19,-1.47 -0.52,-2.91 -0.98,-4.3 -0.46,-1.39 -1.05,-2.75 -1.77,-4.04 -0.1,-0.19 -0.27,-0.31 -0.46,-0.37 -0.19,-0.05 -0.4,-0.04 -0.59,0.07 -0.19,0.1 -0.31,0.27 -0.37,0.46 -0.05,0.19 -0.04,0.4 0.07,0.59 0.65,1.17 1.19,2.39 1.62,3.65 0.42,1.26 0.73,2.55 0.92,3.88l0.04 0.3 -1.11 0c-0.21,0 -0.41,0.09 -0.55,0.23 -0.14,0.14 -0.23,0.33 -0.23,0.55l0 4.13c0,0.21 0.09,0.41 0.23,0.55 0.14,0.14 0.33,0.23 0.55,0.23l4.13 0c0.21,0 0.41,-0.09 0.55,-0.23 0.14,-0.14 0.23,-0.33 0.23,-0.55l0 -4.13c0,-0.21 -0.09,-0.41 -0.23,-0.55 -0.14,-0.14 -0.33,-0.23 -0.55,-0.23zm-1.03 4.13l-2.33 0 0 -2.59 2.59 0 0 2.59 -0.26 0zm-42.56 -16.53c-0.21,0 -0.41,0.09 -0.55,0.23 -0.14,0.14 -0.23,0.33 -0.23,0.55 0,0.21 0.09,0.41 0.23,0.55 0.14,0.14 0.33,0.23 0.55,0.23 0.21,0 0.41,-0.09 0.55,-0.23 0.14,-0.14 0.23,-0.33 0.23,-0.55 0,-0.21 -0.09,-0.41 -0.23,-0.55 -0.14,-0.14 -0.33,-0.23 -0.55,-0.23z"/>
 </g>
</svg>
