<?xml version="1.0" encoding="UTF-8"?>
<!DOCTYPE svg PUBLIC "-//W3C//DTD SVG 1.1//EN" "http://www.w3.org/Graphics/SVG/1.1/DTD/svg11.dtd">
<!-- Creator: CorelDRAW 2018 (64 Bit Versão de avaliação) -->
<svg xmlns="http://www.w3.org/2000/svg" xml:space="preserve" width="60px" height="58px" version="1.1" style="shape-rendering:geometricPrecision; text-rendering:geometricPrecision; image-rendering:optimizeQuality; fill-rule:evenodd; clip-rule:evenodd"
viewBox="0 0 2.04 1.99"
 xmlns:xlink="http://www.w3.org/1999/xlink">
 <defs>
  <style type="text/css">
   <![CDATA[
    .fil0 {fill:black}
   ]]>
  </style>
 </defs>
 <g id="Camada_x0020_1">
  <metadata id="CorelCorpID_0Corel-Layer"/>
  <path class="fil0" d="M0.77 1.75c-0.09,0.01 -0.1,0.02 -0.2,0 -0.06,-0.01 -0.1,-0.04 -0.13,-0.07 -0.02,-0.04 -0.02,-0.07 -0.07,-0.14 -0.04,-0.06 -0.1,-0.06 -0.1,-0.11 0.05,-0.04 0.14,0.03 0.17,0.05 0.05,0.05 0.09,0.21 0.3,0.14 0.02,0 0.03,0 0.03,-0.03 0.01,-0.02 0.01,-0.02 0.02,-0.04 0.01,-0.05 0.03,-0.06 0.04,-0.08 -0.1,-0.01 -0.18,-0.03 -0.25,-0.07 -0.08,-0.04 -0.13,-0.09 -0.16,-0.18 -0.04,-0.08 -0.06,-0.18 -0.05,-0.29 0.01,-0.09 0.05,-0.19 0.1,-0.23 0,-0.03 -0.02,-0.06 -0.02,-0.14 0.01,-0.04 0.02,-0.12 0.04,-0.13 0.05,-0.03 0.21,0.05 0.24,0.08 0.03,0.01 0.03,0.02 0.06,0.01 0.12,-0.03 0.26,-0.03 0.38,-0.01 0.1,0.01 0.09,0.03 0.14,0 0.05,-0.03 0.16,-0.1 0.25,-0.09 0.01,0.03 0.03,0.1 0.03,0.13 0.01,0.09 -0.02,0.12 -0.02,0.15 0.05,0.04 0.1,0.16 0.1,0.23 0.01,0.1 -0.01,0.22 -0.04,0.29 -0.07,0.15 -0.2,0.22 -0.35,0.24l-0.05 0.01c-0.03,0 -0.01,-0.01 -0.02,0.01 0.05,0.03 0.06,0.11 0.07,0.19 0,0.09 -0.01,0.18 0,0.26 0,0.11 0.1,0.06 0.16,0.03 0.03,-0.02 0.06,-0.03 0.09,-0.05 0.03,-0.01 0.05,-0.03 0.08,-0.05 0.03,-0.02 0.05,-0.04 0.07,-0.05 0.03,-0.03 0.07,-0.07 0.1,-0.1 0.01,-0.02 0.02,-0.02 0.03,-0.04 0.02,-0.02 0.04,-0.04 0.06,-0.07 0.16,-0.24 0.22,-0.55 0.14,-0.84 -0.04,-0.14 -0.1,-0.25 -0.17,-0.35 -0.02,-0.03 -0.04,-0.05 -0.06,-0.07 -0.15,-0.17 -0.36,-0.29 -0.6,-0.33 -0.61,-0.1 -1.12,0.37 -1.17,0.9 -0.03,0.27 0.03,0.5 0.18,0.71 0.01,0.01 0.02,0.03 0.03,0.04 0.01,0.01 0.02,0.03 0.03,0.04l0.07 0.06c0.08,0.08 0.12,0.11 0.22,0.17 0.03,0.01 0.16,0.08 0.2,0.06 0.03,-0.01 0.03,-0.06 0.03,-0.1 0,-0.05 0,-0.09 0,-0.14z"/>
 </g>
</svg>
