<?xml version="1.0" encoding="UTF-8"?>
<!DOCTYPE svg PUBLIC "-//W3C//DTD SVG 1.1//EN" "http://www.w3.org/Graphics/SVG/1.1/DTD/svg11.dtd">
<!-- Creator: CorelDRAW 2018 (64 Bit Versão de avaliação) -->
<svg xmlns="http://www.w3.org/2000/svg" xml:space="preserve" width="89px" height="100px" version="1.1" style="shape-rendering:geometricPrecision; text-rendering:geometricPrecision; image-rendering:optimizeQuality; fill-rule:evenodd; clip-rule:evenodd"
viewBox="0 0 3.05 3.43"
 xmlns:xlink="http://www.w3.org/1999/xlink">
 <defs>
  <style type="text/css">
   <![CDATA[
    .fil0 {fill:#CCCCCC}
   ]]>
  </style>
 </defs>
 <g id="Camada_x0020_1">
  <metadata id="CorelCorpID_0Corel-Layer"/>
  <path class="fil0" d="M3.05 0l-3.05 0 0.28 3.08 1.25 0.35 1.24 -0.35 0.28 -3.08zm-0.75 2.58l0.11 -1.18 -1.39 0 -0.03 -0.38c0.26,-0.01 1.37,0.01 1.46,-0.01 0.01,-0.12 0.02,-0.25 0.03,-0.37l-1.91 0 0.1 1.15 1.32 0 -0.04 0.49 -0.25 0.07 -0.17 0.05 -0.43 -0.11 -0.03 -0.31 -0.38 0 0.05 0.6 0.78 0.22 0.78 -0.22zm-0.77 0.58l-1.01 -0.27 -0.24 -2.67 2.49 0 -0.24 2.67 -1 0.27z"/>
 </g>
</svg>
