<?xml version="1.0" encoding="UTF-8"?>
<!DOCTYPE svg PUBLIC "-//W3C//DTD SVG 1.1//EN" "http://www.w3.org/Graphics/SVG/1.1/DTD/svg11.dtd">
<!-- Creator: CorelDRAW 2018 (64 Bit Versão de avaliação) -->
<svg xmlns="http://www.w3.org/2000/svg" xml:space="preserve" width="60px" height="60px" version="1.1" style="shape-rendering:geometricPrecision; text-rendering:geometricPrecision; image-rendering:optimizeQuality; fill-rule:evenodd; clip-rule:evenodd"
viewBox="0 0 1.44 1.44"
 xmlns:xlink="http://www.w3.org/1999/xlink">
 <defs>
  <style type="text/css">
   <![CDATA[
    .fil0 {fill:black;fill-rule:nonzero}
   ]]>
  </style>
 </defs>
 <g id="Camada_x0020_1">
  <metadata id="CorelCorpID_0Corel-Layer"/>
  <path class="fil0" d="M0.45 0l0.54 0c0.13,0 0.24,0.05 0.32,0.13 0.08,0.09 0.13,0.2 0.13,0.32l0 0.54c0,0.13 -0.05,0.24 -0.13,0.32 -0.08,0.08 -0.19,0.13 -0.32,0.13l-0.54 0c-0.12,0 -0.23,-0.05 -0.32,-0.13 -0.08,-0.08 -0.13,-0.19 -0.13,-0.32l0 -0.54c0,-0.12 0.05,-0.23 0.13,-0.32 0.09,-0.08 0.2,-0.13 0.32,-0.13zm0.63 0.24c0.05,0 0.09,0.04 0.09,0.09 0,0.05 -0.04,0.1 -0.09,0.1 -0.05,0 -0.09,-0.05 -0.09,-0.1 0,-0.05 0.04,-0.09 0.09,-0.09zm-0.36 0.11c0.11,0 0.2,0.04 0.27,0.11 0.06,0.07 0.1,0.16 0.1,0.26 0,0.11 -0.04,0.2 -0.1,0.27 -0.07,0.06 -0.16,0.1 -0.27,0.1 -0.1,0 -0.19,-0.04 -0.26,-0.1 -0.07,-0.07 -0.11,-0.16 -0.11,-0.27 0,-0.1 0.04,-0.19 0.11,-0.26 0.07,-0.07 0.16,-0.11 0.26,-0.11zm0.17 0.2c-0.04,-0.04 -0.1,-0.07 -0.17,-0.07 -0.06,0 -0.12,0.03 -0.17,0.07 -0.04,0.05 -0.07,0.11 -0.07,0.17 0,0.07 0.03,0.13 0.07,0.17 0.05,0.05 0.11,0.07 0.17,0.07 0.07,0 0.13,-0.02 0.17,-0.07 0.05,-0.04 0.07,-0.1 0.07,-0.17 0,-0.06 -0.02,-0.12 -0.07,-0.17zm0.1 -0.42l-0.54 0c-0.08,0 -0.17,0.04 -0.22,0.1 -0.06,0.05 -0.1,0.14 -0.1,0.22l0 0.54c0,0.09 0.04,0.17 0.1,0.23 0.05,0.06 0.14,0.09 0.22,0.09l0.54 0c0.09,0 0.17,-0.03 0.23,-0.09 0.06,-0.06 0.09,-0.14 0.09,-0.23l0 -0.54c0,-0.08 -0.03,-0.17 -0.09,-0.22 -0.06,-0.06 -0.14,-0.1 -0.23,-0.1z"/>
 </g>
</svg>
