<?xml version="1.0" encoding="UTF-8"?>
<!DOCTYPE svg PUBLIC "-//W3C//DTD SVG 1.1//EN" "http://www.w3.org/Graphics/SVG/1.1/DTD/svg11.dtd">
<!-- Creator: CorelDRAW 2018 (64 Bit Versão de avaliação) -->
<svg xmlns="http://www.w3.org/2000/svg" xml:space="preserve" width="2.032mm" height="2.032mm" version="1.1" style="shape-rendering:geometricPrecision; text-rendering:geometricPrecision; image-rendering:optimizeQuality; fill-rule:evenodd; clip-rule:evenodd"
viewBox="0 0 3.52 3.52"
 xmlns:xlink="http://www.w3.org/1999/xlink">
 <defs>
  <style type="text/css">
   <![CDATA[
    .fil0 {fill:white;fill-rule:nonzero}
   ]]>
  </style>
 </defs>
 <g id="Camada_x0020_1">
  <metadata id="CorelCorpID_0Corel-Layer"/>
  <path class="fil0" d="M1.11 0l1.31 0c0.3,0 0.58,0.12 0.78,0.32 0.2,0.2 0.32,0.48 0.32,0.78l0 1.31c0,0.3 -0.12,0.58 -0.32,0.78 -0.2,0.2 -0.48,0.32 -0.78,0.32l-1.31 0c-0.3,0 -0.58,-0.12 -0.78,-0.32 -0.2,-0.2 -0.32,-0.48 -0.32,-0.78l0 -1.31c0,-0.3 0.12,-0.58 0.32,-0.78 0.2,-0.2 0.48,-0.32 0.78,-0.32zm1.53 0.59c0.12,0 0.22,0.1 0.22,0.22 0,0.12 -0.1,0.22 -0.22,0.22 -0.12,0 -0.22,-0.1 -0.22,-0.22 0,-0.12 0.1,-0.22 0.22,-0.22zm-0.88 0.26c0.25,0 0.48,0.1 0.64,0.27 0.16,0.16 0.27,0.39 0.27,0.64 0,0.25 -0.1,0.48 -0.27,0.64 -0.16,0.16 -0.39,0.27 -0.64,0.27 -0.25,0 -0.48,-0.1 -0.64,-0.27 -0.16,-0.16 -0.27,-0.39 -0.27,-0.64 0,-0.25 0.1,-0.48 0.27,-0.64 0.16,-0.16 0.39,-0.27 0.64,-0.27zm0.42 0.49c-0.11,-0.11 -0.25,-0.17 -0.42,-0.17 -0.16,0 -0.31,0.07 -0.42,0.17 -0.11,0.11 -0.17,0.25 -0.17,0.42 0,0.16 0.07,0.31 0.17,0.42 0.11,0.11 0.25,0.17 0.42,0.17 0.16,0 0.31,-0.07 0.42,-0.17 0.11,-0.11 0.17,-0.25 0.17,-0.42 0,-0.16 -0.07,-0.31 -0.17,-0.42zm0.24 -1.03l-1.31 0c-0.22,0 -0.41,0.09 -0.56,0.23 -0.14,0.14 -0.23,0.34 -0.23,0.56l0 1.31c0,0.22 0.09,0.41 0.23,0.56 0.14,0.14 0.34,0.23 0.56,0.23l1.31 0c0.22,0 0.41,-0.09 0.56,-0.23 0.14,-0.14 0.23,-0.34 0.23,-0.56l0 -1.31c0,-0.22 -0.09,-0.41 -0.23,-0.56 -0.14,-0.14 -0.34,-0.23 -0.56,-0.23z"/>
 </g>
</svg>
