<?xml version="1.0" encoding="UTF-8"?>
<!DOCTYPE svg PUBLIC "-//W3C//DTD SVG 1.1//EN" "http://www.w3.org/Graphics/SVG/1.1/DTD/svg11.dtd">
<!-- Creator: CorelDRAW 2018 (64 Bit Versão de avaliação) -->
<svg xmlns="http://www.w3.org/2000/svg" xml:space="preserve" width="89px" height="100px" version="1.1" style="shape-rendering:geometricPrecision; text-rendering:geometricPrecision; image-rendering:optimizeQuality; fill-rule:evenodd; clip-rule:evenodd"
viewBox="0 0 3.73 4.21"
 xmlns:xlink="http://www.w3.org/1999/xlink">
 <defs>
  <style type="text/css">
   <![CDATA[
    .fil0 {fill:#CCCCCC}
   ]]>
  </style>
 </defs>
 <g id="Camada_x0020_1">
  <metadata id="CorelCorpID_0Corel-Layer"/>
  <path class="fil0" d="M3.73 0l-3.73 0 0.34 3.78 1.53 0.43 1.52 -0.43 0.34 -3.78zm-0.79 1.75l-0.56 0c0,-0.05 0,-0.45 0.01,-0.48 0.08,0 0.55,0.01 0.58,0l0.04 -0.46 -1.03 0 0 1.4 0.53 0c0,0.05 -0.04,0.58 -0.05,0.6 0,0.01 -0.05,0.01 -0.06,0.02 -0.06,0.01 -0.4,0.08 -0.42,0.09l0 0.48 0.85 -0.23 0.11 -1.42zm-2.02 -0.48l0.45 0c0,0.04 0,1.49 0,1.56 0,0.04 0,0.01 -0.01,0.02l-0.21 -0.04 -0.03 -0.36c-0.02,-0.01 -0.35,-0.01 -0.39,-0.01l0.05 0.73c0,0 0.01,0 0.01,0 0,0 0,0 0,0l0.48 0.12c0.04,0.01 0.46,0.11 0.49,0.11l0 -2.59 -0.87 0 0.03 0.46zm0.95 2.61l-1.23 -0.34 -0.29 -3.26 3.04 0 -0.29 3.26 -1.23 0.34z"/>
 </g>
</svg>
