<?xml version="1.0" encoding="UTF-8"?>
<!DOCTYPE svg PUBLIC "-//W3C//DTD SVG 1.1//EN" "http://www.w3.org/Graphics/SVG/1.1/DTD/svg11.dtd">
<!-- Creator: CorelDRAW 2018 (64 Bit Versão de avaliação) -->
<svg xmlns="http://www.w3.org/2000/svg" xml:space="preserve" width="60px" height="60px" version="1.1" style="shape-rendering:geometricPrecision; text-rendering:geometricPrecision; image-rendering:optimizeQuality; fill-rule:evenodd; clip-rule:evenodd"
viewBox="0 0 1.56 1.57"
 xmlns:xlink="http://www.w3.org/1999/xlink">
 <defs>
  <style type="text/css">
   <![CDATA[
    .fil0 {fill:black}
   ]]>
  </style>
 </defs>
 <g id="Camada_x0020_1">
  <metadata id="CorelCorpID_0Corel-Layer"/>
  <path class="fil0" d="M0.38 1.52c0,0.03 -0.02,0.05 -0.05,0.05l-0.23 0c-0.03,0 -0.05,-0.02 -0.05,-0.05l0 -0.95c0,-0.03 0.02,-0.05 0.05,-0.05l0.23 0c0.03,0 0.05,0.02 0.05,0.05l0 0.95zm-0.17 -1.09c-0.11,0 -0.21,-0.1 -0.21,-0.22 0,-0.11 0.1,-0.21 0.21,-0.21 0.12,0 0.22,0.1 0.22,0.21 0,0.12 -0.1,0.22 -0.22,0.22zm1.35 1.09c0,0.03 -0.02,0.05 -0.05,0.05l-0.24 0c-0.03,0 -0.05,-0.02 -0.05,-0.05l0 -0.44c0,-0.07 0.02,-0.29 -0.17,-0.29 -0.15,0 -0.18,0.15 -0.19,0.22l0 0.51c0,0.03 -0.02,0.05 -0.05,0.05l-0.23 0c-0.03,0 -0.05,-0.02 -0.05,-0.05l0 -0.95c0,-0.03 0.02,-0.05 0.05,-0.05l0.23 0c0.03,0 0.05,0.02 0.05,0.05l0 0.08c0.06,-0.08 0.14,-0.15 0.32,-0.15 0.38,0 0.38,0.37 0.38,0.56l0 0.46 0 0z"/>
 </g>
</svg>
