<?xml version="1.0" encoding="UTF-8"?>
<!DOCTYPE svg PUBLIC "-//W3C//DTD SVG 1.1//EN" "http://www.w3.org/Graphics/SVG/1.1/DTD/svg11.dtd">
<!-- Creator: CorelDRAW 2018 (64 Bit Versão de avaliação) -->
<svg xmlns="http://www.w3.org/2000/svg" xml:space="preserve" width="100px" height="100px" version="1.1" style="shape-rendering:geometricPrecision; text-rendering:geometricPrecision; image-rendering:optimizeQuality; fill-rule:evenodd; clip-rule:evenodd"
viewBox="0 0 3.83 3.84"
 xmlns:xlink="http://www.w3.org/1999/xlink">
 <defs>
  <style type="text/css">
   <![CDATA[
    .fil0 {fill:#CCCCCC}
   ]]>
  </style>
 </defs>
 <g id="Camada_x0020_1">
  <metadata id="CorelCorpID_0Corel-Layer"/>
  <path class="fil0" d="M0.27 2.15l2.38 0 0 1.46 -2.42 0 0 -1.46 0.04 0zm0.48 0.48c0,0.03 0.02,0.07 0.04,0.09 0.02,0.02 0.04,0.04 0.07,0.04l1.2 0c0.05,0 0.07,-0.03 0.09,-0.07 0,-0.01 0.01,-0.03 0.01,-0.05 0,-0.02 -0.01,-0.03 -0.01,-0.05 -0.01,-0.03 -0.04,-0.06 -0.09,-0.06l-1.2 0c-0.02,0 -0.05,0.01 -0.07,0.03 -0.02,0.02 -0.04,0.05 -0.04,0.07zm1.32 -1.55c0,-0.03 0.01,-0.07 0.02,-0.1 0.01,-0.04 0.03,-0.08 0.05,-0.1 0.09,-0.11 0.21,-0.13 0.32,-0.1 0.04,0.01 0.08,0.04 0.11,0.06 0.04,0.03 0.07,0.07 0.09,0.11 0.05,0.1 0.04,0.22 -0.06,0.33 -0.01,0.01 -0.01,0.02 -0.02,0.02 -0.05,0.05 -0.12,0.07 -0.2,0.08 -0.07,0 -0.15,-0.02 -0.2,-0.08 -0.01,0 -0.02,-0.01 -0.02,-0.02 -0.02,-0.02 -0.05,-0.06 -0.06,-0.1 -0.02,-0.03 -0.03,-0.07 -0.03,-0.1zm-0.23 -0.05c0,0.1 0.01,0.17 0.03,0.24 0.02,0.06 0.06,0.12 0.14,0.19 0.02,0.02 0.05,0.05 0.07,0.06 0.03,0.02 0.05,0.04 0.08,0.05 0.03,0.01 0.07,0.02 0.12,0.04 0.03,0 0.07,0.01 0.1,0.01 0.03,0 0.06,-0.01 0.1,-0.02 0.04,-0.01 0.08,-0.02 0.11,-0.03 0.03,-0.01 0.05,-0.02 0.08,-0.04 0.03,-0.02 0.05,-0.04 0.07,-0.06 0.09,-0.09 0.15,-0.19 0.17,-0.3 0.02,-0.11 0,-0.22 -0.05,-0.34 -0.04,-0.1 -0.12,-0.18 -0.21,-0.23 -0.08,-0.04 -0.16,-0.06 -0.25,-0.07 -0.08,0 -0.17,0.01 -0.25,0.05 -0.1,0.04 -0.19,0.12 -0.25,0.24 -0.02,0.02 -0.03,0.06 -0.04,0.11 -0.01,0.03 -0.02,0.07 -0.02,0.1zm-1.57 -0.21c0,-0.15 0.06,-0.3 0.16,-0.41 0.1,-0.1 0.23,-0.17 0.37,-0.17 0.14,0 0.25,0.03 0.34,0.08 0.09,0.05 0.17,0.14 0.22,0.26 0.09,0.17 0.07,0.34 0,0.48 -0.05,0.08 -0.11,0.15 -0.19,0.21 -0.08,0.05 -0.17,0.09 -0.27,0.1 -0.15,0.03 -0.32,-0.02 -0.46,-0.15 -0.02,-0.03 -0.04,-0.06 -0.06,-0.09 -0.02,-0.02 -0.04,-0.05 -0.05,-0.08 -0.02,-0.03 -0.03,-0.08 -0.05,-0.13 0,-0.04 -0.01,-0.08 -0.01,-0.1zm-0.23 -0.07c0,0.09 0,0.15 0.01,0.21 0.01,0.06 0.03,0.12 0.06,0.19 0.02,0.04 0.05,0.09 0.09,0.14 0.02,0.04 0.05,0.07 0.07,0.09 0.13,0.11 0.28,0.19 0.44,0.22 0.14,0.03 0.29,0.02 0.43,-0.04 0.1,-0.05 0.16,-0.09 0.24,-0.15l0 -0.01c0.03,-0.02 0.06,-0.05 0.09,-0.09 0.03,-0.04 0.06,-0.09 0.08,-0.12 0.07,-0.12 0.1,-0.25 0.1,-0.38 0,-0.14 -0.04,-0.29 -0.11,-0.41 -0.08,-0.13 -0.18,-0.23 -0.32,-0.3 -0.11,-0.06 -0.24,-0.1 -0.39,-0.1 -0.21,0 -0.4,0.09 -0.55,0.23 -0.15,0.14 -0.24,0.33 -0.24,0.52zm2.86 1.97l0.7 -0.3 0 0.89 -0.05 -0.02c-0.04,0 -0.14,-0.04 -0.25,-0.09 -0.16,-0.08 -0.36,-0.17 -0.4,-0.19l-0.02 -0.01 0 -0.27 0.02 -0.01zm-2.9 -0.7l0 1.71c0,0.02 0.02,0.05 0.04,0.07 0.03,0.03 0.06,0.04 0.09,0.04l2.7 0c0,0 0.01,0 0.01,-0.01 0.01,-0.01 0.02,-0.02 0.03,-0.03 0.01,-0.04 0.01,-0.29 0.01,-0.41l0 -0.13 0.06 0.03c0.05,0.03 0.12,0.06 0.18,0.08l0.07 0.03 0.37 0.16c0.02,0.01 0.04,0.02 0.07,0.03 0.01,0.01 0.03,0.02 0.05,0.02 0.02,0.01 0.04,0.01 0.06,0.01 0.02,0 0.04,0 0.05,-0.01 0.02,-0.01 0.03,-0.02 0.03,-0.04 0.01,-0.01 0.01,-0.02 0.01,-0.03l0 -1.35c0,-0.02 -0.01,-0.04 -0.02,-0.05 -0.03,-0.02 -0.06,-0.02 -0.1,-0.02 -0.02,0 -0.2,0.08 -0.38,0.16 -0.17,0.08 -0.34,0.15 -0.4,0.17l-0.05 0.01 0 -0.15c0,-0.08 0,-0.15 0,-0.22l0 -0.02c0,-0.08 0,-0.15 -0.07,-0.15l-2.67 0c-0.04,0 -0.07,0.01 -0.1,0.04 -0.02,0.01 -0.04,0.04 -0.04,0.06z"/>
 </g>
</svg>
