<?xml version="1.0" encoding="UTF-8"?>
<!DOCTYPE svg PUBLIC "-//W3C//DTD SVG 1.1//EN" "http://www.w3.org/Graphics/SVG/1.1/DTD/svg11.dtd">
<!-- Creator: CorelDRAW 2018 (64 Bit Versão de avaliação) -->
<svg xmlns="http://www.w3.org/2000/svg" xml:space="preserve" width="10.1601mm" height="10.1601mm" version="1.1" style="shape-rendering:geometricPrecision; text-rendering:geometricPrecision; image-rendering:optimizeQuality; fill-rule:evenodd; clip-rule:evenodd"
viewBox="0 0 72.66 72.66"
 xmlns:xlink="http://www.w3.org/1999/xlink">
 <defs>
  <style type="text/css">
   <![CDATA[
    .fil0 {fill:#33CC99}
   ]]>
  </style>
 </defs>
 <g id="Camada_x0020_1">
  <metadata id="CorelCorpID_0Corel-Layer"/>
  <g id="_3111092683632">
   <path class="fil0" d="M55.71 55.71l-2.42 0 0 4.84 -21.8 0 0 2.42 21.8 0 0 3.63c0,2.01 -1.63,3.63 -3.63,3.63l-26.64 0c-1.3,-0 -2.5,-0.69 -3.15,-1.82l-2.1 1.21c1.09,1.87 3.08,3.02 5.25,3.03l26.64 0c3.34,-0 6.05,-2.71 6.05,-6.06l0 -10.9zm0 0z"/>
   <path class="fil0" d="M35.12 65.39l2.42 0 0 2.42 -2.42 0 0 -2.42zm0 0z"/>
   <path class="fil0" d="M42.39 32.7l0 -2.42 -3.69 0c-0.6,-7.73 -6.74,-13.87 -14.47,-14.47l0 -3.69 -2.42 0 0 3.69c-0.82,0.06 -1.63,0.19 -2.42,0.38l0 -6.49 19.38 0 0 -2.42 -19.38 0 0 -1.21c0,-2.01 1.63,-3.63 3.63,-3.63l26.64 0c0.88,0 1.74,0.32 2.4,0.91l1.6 -1.82c-1.11,-0.98 -2.53,-1.51 -4,-1.51l-26.64 0c-3.34,0 -6.05,2.71 -6.05,6.06l0 10.9c-5.45,2.28 -9.17,7.43 -9.63,13.32l-3.69 0 0 2.42 3.7 0c0.57,7.74 6.73,13.9 14.47,14.48l0 3.69 2.42 0 0 -3.69c7.74,-0.58 13.9,-6.73 14.47,-14.48l3.7 0zm-20.59 9.69l0 2.37c-1.69,-0.15 -3.33,-0.63 -4.84,-1.4l0 -2.18c0,-3.34 2.71,-6.05 6.05,-6.05 3.34,0 6.06,2.71 6.06,6.05l0 2.18c-1.51,0.77 -3.15,1.25 -4.84,1.4l0 -2.37 -2.42 0zm-2.42 -13.32c0,-2.01 1.63,-3.63 3.63,-3.63 2.01,0 3.63,1.63 3.63,3.63 0,2.01 -1.63,3.63 -3.63,3.63 -2.01,0 -3.63,-1.63 -3.63,-3.63zm12.51 12.35c-0.13,0.12 -0.27,0.22 -0.4,0.33l0 -0.57c-0,-3.16 -1.77,-6.06 -4.58,-7.52 1.95,-1.64 2.66,-4.32 1.79,-6.71 -0.87,-2.39 -3.14,-3.98 -5.69,-3.98 -2.54,0 -4.82,1.59 -5.69,3.98 -0.87,2.39 -0.16,5.07 1.79,6.71 -2.81,1.46 -4.57,4.35 -4.58,7.52l0 0.58c-0.13,-0.11 -0.27,-0.21 -0.4,-0.33 -2.51,-2.25 -4.07,-5.37 -4.38,-8.73l2.36 0 0 -2.42 -2.36 0c0.59,-6.39 5.65,-11.46 12.05,-12.05l0 2.36 2.42 0 0 -2.36c6.39,0.59 11.46,5.66 12.05,12.05l-2.36 0 0 2.42 2.36 0c-0.3,3.36 -1.87,6.48 -4.38,8.73l0 -0.01zm0 0z"/>
   <path class="fil0" d="M69.03 21.8c0.67,0 1.21,-0.54 1.21,-1.21l0 -14.53c0,-0.67 -0.54,-1.21 -1.21,-1.21l-26.64 0c-0.67,0 -1.21,0.54 -1.21,1.21l0 14.53c0,0.67 0.54,1.21 1.21,1.21l26.64 0zm-25.43 -14.53l24.22 0 0 12.11 -24.22 0 0 -12.11zm0 0z"/>
   <path class="fil0" d="M46.02 9.69l4.84 0 0 2.42 -4.84 0 0 -2.42zm0 0z"/>
   <path class="fil0" d="M53.28 9.69l12.11 0 0 2.42 -12.11 0 0 -2.42zm0 0z"/>
   <path class="fil0" d="M46.02 14.53l19.38 0 0 2.42 -19.38 0 0 -2.42zm0 0z"/>
   <path class="fil0" d="M68.81 24.22c-0.94,0 -1.84,0.35 -2.54,0.97l-10.56 9.31 0 -10.28 -2.42 0 0 12.11 0.35 0 -6.89 6.08c-4.48,0.26 -7.99,3.96 -7.99,8.45l0 2.14c0,1.2 -0.68,2.3 -1.75,2.83 -0.5,0.25 -0.77,0.81 -0.64,1.36 0.13,0.55 0.62,0.93 1.18,0.93l8.48 0c4.49,-0.01 8.2,-3.51 8.45,-7.99l17.23 -19.52c1,-1.13 1.24,-2.75 0.62,-4.13 -0.62,-1.38 -1.99,-2.26 -3.51,-2.26l0 0zm-22.8 31.49l-5.54 0c0.46,-0.83 0.7,-1.76 0.69,-2.71l0 -2.14c0,-3.15 2.43,-5.78 5.57,-6.04l5.31 5.31c-0.26,3.14 -2.88,5.57 -6.04,5.57l0 0zm23.86 -26.7l-16.65 18.87 -4.23 -4.23 18.87 -16.65c0.56,-0.5 1.42,-0.47 1.95,0.06 0.53,0.53 0.56,1.38 0.06,1.95zm0 0z"/>
   <path class="fil0" d="M1.21 66.61l26.64 0c0.67,0 1.21,-0.54 1.21,-1.21l0 -9.69c0,-0.67 -0.54,-1.21 -1.21,-1.21l-8.48 0 0 -6.06 -2.42 0 0 6.06 -15.74 0c-0.67,0 -1.21,0.54 -1.21,1.21l0 9.69c0,0.67 0.54,1.21 1.21,1.21zm1.21 -9.69l24.22 0 0 7.27 -24.22 0 0 -7.27zm0 0z"/>
   <path class="fil0" d="M4.84 59.34l6.06 0 0 2.42 -6.06 0 0 -2.42zm0 0z"/>
   <path class="fil0" d="M13.32 59.34l10.9 0 0 2.42 -10.9 0 0 -2.42zm0 0z"/>
   <path class="fil0" d="M1.21 16.96l12.11 0c0.67,0 1.21,-0.54 1.21,-1.21l0 -9.69c0,-0.67 -0.54,-1.21 -1.21,-1.21l-12.11 0c-0.67,0 -1.21,0.54 -1.21,1.21l0 9.69c0,0.67 0.54,1.21 1.21,1.21l0 0zm1.21 -9.69l9.69 0 0 7.27 -9.69 0 0 -7.27zm0 0z"/>
   <path class="fil0" d="M4.84 9.69l4.84 0 0 2.42 -4.84 0 0 -2.42zm0 0z"/>
  </g>
 </g>
</svg>
