<?xml version="1.0" encoding="UTF-8"?>
<!DOCTYPE svg PUBLIC "-//W3C//DTD SVG 1.1//EN" "http://www.w3.org/Graphics/SVG/1.1/DTD/svg11.dtd">
<!-- Creator: CorelDRAW 2018 (64 Bit Versão de avaliação) -->
<svg xmlns="http://www.w3.org/2000/svg" xml:space="preserve" width="92px" height="100px" version="1.1" style="shape-rendering:geometricPrecision; text-rendering:geometricPrecision; image-rendering:optimizeQuality; fill-rule:evenodd; clip-rule:evenodd"
viewBox="0 0 3 3.26"
 xmlns:xlink="http://www.w3.org/1999/xlink">
 <defs>
  <style type="text/css">
   <![CDATA[
    .fil0 {fill:#CCCCCC}
   ]]>
  </style>
 </defs>
 <g id="Camada_x0020_1">
  <metadata id="CorelCorpID_0Corel-Layer"/>
  <path class="fil0" d="M1.16 0.86l0 -0.31c0.27,-0.06 0.7,-0.12 0.99,-0.17l0.6 -0.11 0 0.28c-0.23,0.05 -0.55,0.11 -0.79,0.16l-0.59 0.11c-0.06,0.01 -0.15,0.04 -0.21,0.04zm-0.24 1.49c-0.09,0 -0.06,-0.03 -0.24,-0.03 -0.23,0 -0.48,0.14 -0.6,0.32 -0.21,0.31 0,0.62 0.41,0.62 0.31,0 0.69,-0.25 0.69,-0.57 0,-0.06 -0.02,-0.07 -0.02,-0.13l0 -1.46c0,-0.04 0.1,-0.05 0.18,-0.06l1.41 -0.27 0 1.27c-0.07,-0.01 -0.13,-0.03 -0.23,-0.03 -0.31,0 -0.7,0.23 -0.7,0.58 0,0.21 0.23,0.35 0.42,0.35 0.21,0 0.38,-0.03 0.54,-0.17 0.11,-0.08 0.22,-0.21 0.22,-0.39l0 -2.2c0,-0.25 -0.19,-0.17 -0.34,-0.15 -0.08,0.02 -0.15,0.03 -0.23,0.04 -0.46,0.08 -0.92,0.17 -1.38,0.25 -0.17,0.03 -0.13,0.16 -0.13,0.4l0 1.63z"/>
 </g>
</svg>
