<?xml version="1.0" encoding="UTF-8"?>
<!DOCTYPE svg PUBLIC "-//W3C//DTD SVG 1.1//EN" "http://www.w3.org/Graphics/SVG/1.1/DTD/svg11.dtd">
<!-- Creator: CorelDRAW 2018 (64 Bit Versão de avaliação) -->
<svg xmlns="http://www.w3.org/2000/svg" xml:space="preserve" width="101px" height="100px" version="1.1" style="shape-rendering:geometricPrecision; text-rendering:geometricPrecision; image-rendering:optimizeQuality; fill-rule:evenodd; clip-rule:evenodd"
viewBox="0 0 4.3 4.28"
 xmlns:xlink="http://www.w3.org/1999/xlink">
 <defs>
  <style type="text/css">
   <![CDATA[
    .fil0 {fill:#CCCCCC}
   ]]>
  </style>
 </defs>
 <g id="Camada_x0020_1">
  <metadata id="CorelCorpID_0Corel-Layer"/>
  <path class="fil0" d="M3.49 2.02l0.03 -0.03c-0.07,0.04 -0.14,0.06 -0.2,-0.05 -0.02,-0.03 -0.03,-0.07 -0.05,-0.11l-0.02 -0.04 -0.02 -0.05c-0.05,-0.1 -0.1,-0.21 -0.06,-0.29 0.04,-0.06 0.24,-0.25 0.31,-0.32 0.04,-0.05 0.23,-0.25 0.38,-0.45 0.14,-0.19 0.25,-0.38 0.18,-0.43 -0.14,-0.1 -0.78,0.49 -0.89,0.59l-0.09 0.09c-0.04,0.03 -0.08,0.07 -0.12,0.11l-0.04 0.04c-0.09,0.09 -0.1,0.09 -0.27,0.02l-0.06 -0.03c-0.08,-0.03 -0.19,-0.08 -0.23,-0.1 -0.1,-0.07 -0.06,-0.14 -0.02,-0.22 0.01,-0.01 0.01,-0.02 0.02,-0.04 -0.02,0.01 -0.04,0.02 -0.05,0.03 -0.05,0.03 -0.07,0.05 -0.08,0.07 -0.03,0.03 -0.05,0.04 -0.09,0.04 -0.04,0 -0.09,-0.02 -0.21,-0.07l-0.14 -0.06c-0.07,-0.03 -0.14,-0.05 -0.2,-0.08 -0.13,-0.07 -0.09,-0.15 -0.05,-0.23 -0.01,0.01 -0.03,0.02 -0.04,0.04 -0.06,0.05 -0.11,0.1 -0.24,0.04 -0.09,-0.04 -0.18,-0.08 -0.27,-0.12l-0.26 -0.11c-0.05,-0.02 -0.06,-0.01 -0.08,0.01 -0.01,0.01 -0.01,0.02 -0.02,0.03 -0.03,0.02 -0.04,0.04 -0.04,0.04 0,0.01 0.01,0.02 0.04,0.04l1.29 0.97 0.1 0.08c0.07,0.04 0.12,0.08 0.16,0.12 0.09,0.09 0.09,0.16 -0.02,0.28 -0.13,0.13 -0.29,0.29 -0.43,0.46 -0.14,0.16 -0.28,0.33 -0.39,0.48l-0.03 0.05c-0.09,0.12 -0.11,0.16 -0.34,0.12 -0.2,-0.03 -0.4,-0.05 -0.59,-0.09 0,0 0,0 -0.01,0.01l-0.03 0.03c-0.02,0.02 -0.03,0.04 -0.05,0.05 0.07,0.03 0.19,0.08 0.27,0.11l0.07 0.03c0.08,0.03 0.14,0.05 0.2,0.07 0.11,0.04 0.17,0.06 0.22,0.11 0.04,0.05 0.07,0.11 0.12,0.23 0.01,0.04 0.03,0.09 0.06,0.17l0.01 0.04c0.03,0.08 0.09,0.22 0.12,0.29l0.08 -0.08c0.01,-0.01 0.01,-0.01 0.01,-0.02l-0.01 -0.03 -0.07 -0.54c-0.03,-0.21 0.03,-0.25 0.14,-0.32l0.05 -0.03c0.12,-0.08 0.27,-0.2 0.41,-0.33 0.15,-0.13 0.28,-0.26 0.39,-0.36l0.06 -0.06c0.12,-0.1 0.17,-0.16 0.25,-0.14 0.06,0.01 0.12,0.08 0.22,0.22l0.06 0.08 0.85 1.14c0.04,0.04 0.06,0.06 0.07,0.09 0.03,0.04 0.05,0.07 0.07,0.08 0.01,0.01 0.02,0.01 0.04,-0.02 0.01,-0.01 0.02,-0.02 0.03,-0.03 0.02,-0.02 0.05,-0.04 0.03,-0.07l-0.22 -0.52c-0.05,-0.12 -0.01,-0.17 0.05,-0.23 0.01,-0.01 0.03,-0.03 0.04,-0.05 -0.09,0.05 -0.17,0.09 -0.24,-0.06l-0.01 -0.03c-0.06,-0.13 -0.23,-0.49 -0.21,-0.57 0.01,-0.03 0.03,-0.06 0.06,-0.09zm-0.93 -1.22l0.19 0.09 0.29 -0.27c0.1,-0.09 0.21,-0.19 0.32,-0.28 0.12,-0.09 0.24,-0.18 0.36,-0.25 0.07,-0.04 0.16,-0.07 0.24,-0.09 0.09,-0.01 0.18,0.01 0.26,0.08 0.24,0.24 -0.11,0.67 -0.26,0.86l0 0c-0.04,0.05 -0.22,0.26 -0.37,0.42 -0.07,0.08 -0.14,0.15 -0.18,0.19 0.01,0.02 0.02,0.05 0.04,0.09 0.01,0.03 0.03,0.07 0.04,0.09l0.02 -0.01c0.04,-0.02 0.08,-0.04 0.15,-0.03 0.04,0.01 0.08,0.02 0.1,0.05 0.03,0.02 0.05,0.06 0.06,0.1 0.03,0.13 -0.07,0.25 -0.13,0.32l-0.01 0.02c0.01,0.04 0.05,0.12 0.09,0.2 0.03,0.05 0.05,0.11 0.07,0.15l0.01 0c0.04,-0.02 0.08,-0.04 0.15,-0.03 0.04,0.01 0.08,0.03 0.1,0.05 0.03,0.03 0.05,0.06 0.06,0.1 0.02,0.12 -0.05,0.22 -0.1,0.3 -0.01,0.01 -0.02,0.02 -0.03,0.03 0.01,0.03 0.09,0.21 0.14,0.31l0.05 0.11c0.06,0.15 0.11,0.25 -0.04,0.39 -0.01,0.01 -0.02,0.02 -0.03,0.03 -0.04,0.04 -0.08,0.08 -0.13,0.11 -0.05,0.01 -0.09,0.02 -0.14,0.01 -0.04,-0.01 -0.09,-0.03 -0.12,-0.06 -0.22,-0.21 -0.83,-1.11 -1.06,-1.41l-0.03 -0.04c-0.02,-0.03 -0.04,-0.05 -0.06,-0.08 -0.01,0.02 -0.03,0.04 -0.05,0.06l-0.04 0.04c-0.11,0.1 -0.21,0.2 -0.33,0.3 -0.11,0.1 -0.22,0.2 -0.34,0.29l-0.07 0.05c-0.02,0.02 -0.05,0.04 -0.08,0.06 -0.03,0.03 -0.06,0.04 -0.08,0.06 -0.03,0.01 -0.04,0.02 -0.04,0.02 0,0.01 0,0.04 0.01,0.09 0.01,0.04 0.02,0.1 0.03,0.17l0.03 0.28 0.01 0.06c0.02,0.1 0.03,0.15 -0.05,0.23l-0.05 0.05c-0.04,0.04 -0.08,0.08 -0.12,0.11 -0.01,0.02 -0.02,0.03 -0.04,0.03 -0.04,0.02 -0.08,0.03 -0.11,0.03 -0.04,-0.01 -0.08,-0.03 -0.11,-0.06 -0.01,-0.01 -0.01,-0.02 -0.02,-0.04 -0.09,-0.16 -0.18,-0.44 -0.25,-0.62 -0.01,0.01 -0.02,0.02 -0.03,0.03 -0.06,0.04 -0.12,0.07 -0.18,0 -0.07,-0.09 -0.02,-0.14 0.04,-0.2l0 0c-0.04,-0.02 -0.08,-0.03 -0.11,-0.05l-0.07 -0.03 -0.09 -0.03c-0.13,-0.06 -0.35,-0.14 -0.38,-0.16 -0.01,-0.01 -0.02,-0.01 -0.03,-0.02 -0.03,-0.03 -0.05,-0.07 -0.06,-0.12 0,-0.04 0,-0.09 0.03,-0.13 0.01,-0.01 0.01,-0.02 0.02,-0.03l0.01 0c0.1,-0.12 0.15,-0.17 0.21,-0.19 0.06,-0.03 0.11,-0.02 0.2,0l0.11 0.01c0.14,0.03 0.41,0.07 0.49,0.07 0.01,-0.02 0.03,-0.05 0.05,-0.08 0.01,-0.02 0.03,-0.03 0.03,-0.05 0.1,-0.13 0.22,-0.27 0.34,-0.41 0.13,-0.14 0.25,-0.28 0.37,-0.4l0.03 -0.03c0.02,-0.02 0.04,-0.04 0.05,-0.06 -0.08,-0.06 -0.36,-0.27 -0.65,-0.49 -0.42,-0.31 -0.88,-0.65 -0.91,-0.7 -0.13,-0.19 0.01,-0.32 0.1,-0.41l0.01 -0.01c0.14,-0.12 0.29,-0.05 0.42,0.01l0.05 0.02c0.1,0.05 0.16,0.08 0.21,0.1 0.09,0.04 0.13,0.06 0.15,0.06 0,0 0.01,0 0.02,-0.01 0.02,-0.02 0.04,-0.04 0.1,-0.07 0.04,-0.02 0.08,-0.03 0.12,-0.04 0.04,0 0.08,0 0.12,0.01 0.04,0.01 0.07,0.04 0.1,0.08 0,0.02 0.01,0.04 0.01,0.06 0.02,0.07 0,0.12 -0.02,0.16l0 0.01c0.02,0.01 0.06,0.03 0.11,0.05l0.2 0.09 0.04 -0.03c0.08,-0.06 0.18,-0.14 0.32,-0.11 0.04,0.01 0.08,0.03 0.1,0.06 0.03,0.03 0.05,0.07 0.05,0.11 0.01,0.08 -0.01,0.12 -0.02,0.16l-0.01 0.01z"/>
 </g>
</svg>
