<?xml version="1.0" encoding="UTF-8"?>
<!DOCTYPE svg PUBLIC "-//W3C//DTD SVG 1.1//EN" "http://www.w3.org/Graphics/SVG/1.1/DTD/svg11.dtd">
<!-- Creator: CorelDRAW 2018 (64 Bit Versão de avaliação) -->
<svg xmlns="http://www.w3.org/2000/svg" xml:space="preserve" width="120px" height="120px" version="1.1" style="shape-rendering:geometricPrecision; text-rendering:geometricPrecision; image-rendering:optimizeQuality; fill-rule:evenodd; clip-rule:evenodd"
viewBox="0 0 10.77 10.77"
 xmlns:xlink="http://www.w3.org/1999/xlink">
 <defs>
  <style type="text/css">
   <![CDATA[
    .fil0 {fill:black}
   ]]>
  </style>
 </defs>
 <g id="Camada_x0020_1">
  <metadata id="CorelCorpID_0Corel-Layer"/>
  <g id="_3019928768">
   <path class="fil0" d="M6.65 7.28c-0.12,0 -0.21,0.09 -0.21,0.21 0,0.12 0.09,0.21 0.21,0.21 0.11,0 0.21,-0.09 0.21,-0.21 0,-0.12 -0.1,-0.21 -0.21,-0.21zm0 0z"/>
   <path class="fil0" d="M9.72 0l-8.67 0c-0.58,0 -1.05,0.47 -1.05,1.05l0 6.44c0,0.58 0.47,1.05 1.05,1.05l3.28 0 0 0.97 -0.21 0c-0.28,0 -0.54,0.11 -0.74,0.31 -0.2,0.2 -0.31,0.46 -0.31,0.74 0,0.12 0.1,0.21 0.21,0.21l4.21 0c0.12,0 0.21,-0.09 0.21,-0.21 0,-0.58 -0.47,-1.05 -1.05,-1.05l-0.21 0 0 -0.97 3.28 0c0.58,0 1.05,-0.47 1.05,-1.05l0 -6.44c0,-0.58 -0.47,-1.05 -1.05,-1.05zm-8.67 0.42l8.67 0c0.35,0 0.63,0.28 0.63,0.63l0 5.39 -0.97 0 0 -4.84c0,-0.12 -0.09,-0.21 -0.21,-0.21l-1.68 0c-0.12,0 -0.21,0.09 -0.21,0.21l0 4.84 -1.05 0c-0.01,-0.22 -0.01,-0.43 -0.02,-0.64 -0.04,-0.86 -0.12,-1.43 -0.16,-1.69 0.43,-0.32 0.55,-0.91 0.28,-1.37l-0.73 -1.26c-0.03,-0.07 -0.1,-0.11 -0.18,-0.11 -0.07,0 -0.14,0.04 -0.18,0.11l-0.73 1.26c-0.25,0.44 -0.16,1 0.23,1.33 -0.04,0.25 -0.14,0.85 -0.18,1.73 -0.01,0.21 -0.01,0.42 -0.01,0.64l-1.06 0 0 -3.16c0,-0.03 -0.01,-0.06 -0.02,-0.09 0,0 0,0 0,0l-0.84 -1.69c-0.04,-0.07 -0.11,-0.11 -0.19,-0.11 -0.08,0 -0.15,0.04 -0.19,0.11l-0.84 1.69c0,0 0,0 0,0 -0.01,0.03 -0.02,0.06 -0.02,0.09l0 3.16 -0.97 0 0 -5.39c0,-0.35 0.28,-0.63 0.63,-0.63zm6.65 6.02l0 -4.63 1.26 0 0 0.42 -0.21 0c-0.11,0 -0.21,0.09 -0.21,0.21 0,0.12 0.1,0.21 0.21,0.21l0.21 0 0 0.63 -0.21 0c-0.11,0 -0.21,0.1 -0.21,0.21 0,0.12 0.1,0.21 0.21,0.21l0.21 0 0 0.63 -0.21 0c-0.11,0 -0.21,0.1 -0.21,0.21 0,0.12 0.1,0.21 0.21,0.21l0.21 0 0 0.85 -0.21 0c-0.11,0 -0.21,0.09 -0.21,0.21 0,0.11 0.1,0.21 0.21,0.21l0.21 0 0 0.42 -1.26 0zm-2.28 -2.12c0.08,0 0.15,-0.01 0.23,-0.03 0.04,0.25 0.09,0.7 0.13,1.31l-0.78 0c0.03,-0.61 0.09,-1.06 0.13,-1.32 0.1,0.03 0.19,0.04 0.29,0.04l0 0zm0 -0.42c-0.48,0 -0.79,-0.52 -0.55,-0.95l0.55 -0.94 0.55 0.94c0.24,0.42 -0.07,0.95 -0.55,0.95zm-0.44 2.12l0.82 0c0,0.14 0,0.28 0.01,0.42l-0.84 0c0,-0.14 0,-0.28 0.01,-0.42l0 0zm-2.33 0.42l0 -2.95 0.42 0 0 2.95 -0.42 0zm-0.84 0l0 -2.95 0.42 0 0 2.95 -0.42 0zm0.13 -3.37l0.5 -1 0.5 1 -1 0zm5.3 7.28l-3.71 0c0.03,-0.09 0.08,-0.17 0.15,-0.23 0.12,-0.12 0.28,-0.19 0.44,-0.19l2.53 0c0.27,0 0.51,0.18 0.59,0.42zm-1.22 -0.84l-1.27 0 0 -0.97 1.27 0 0 0.97zm3.7 -1.39l-8.67 0c-0.35,0 -0.63,-0.28 -0.63,-0.63l0 -0.63 9.93 0 0 0.63c0,0.35 -0.28,0.63 -0.63,0.63zm0 0z"/>
   <path class="fil0" d="M5.81 7.28l-1.27 0c-0.11,0 -0.21,0.09 -0.21,0.21 0,0.12 0.1,0.21 0.21,0.21l1.27 0c0.11,0 0.21,-0.09 0.21,-0.21 0,-0.12 -0.1,-0.21 -0.21,-0.21l0 0zm0 0z"/>
  </g>
 </g>
</svg>
