<?xml version="1.0" encoding="UTF-8"?>
<!DOCTYPE svg PUBLIC "-//W3C//DTD SVG 1.1//EN" "http://www.w3.org/Graphics/SVG/1.1/DTD/svg11.dtd">
<!-- Creator: CorelDRAW 2018 (64 Bit Versão de avaliação) -->
<svg xmlns="http://www.w3.org/2000/svg" xml:space="preserve" width="10.16mm" height="10.16mm" version="1.1" style="shape-rendering:geometricPrecision; text-rendering:geometricPrecision; image-rendering:optimizeQuality; fill-rule:evenodd; clip-rule:evenodd"
viewBox="0 0 91.21 91.21"
 xmlns:xlink="http://www.w3.org/1999/xlink">
 <defs>
  <style type="text/css">
   <![CDATA[
    .fil0 {fill:#33CC99}
   ]]>
  </style>
 </defs>
 <g id="Camada_x0020_1">
  <metadata id="CorelCorpID_0Corel-Layer"/>
  <g id="_3111274494288">
   <path class="fil0" d="M56.29 61.64c-0.98,0 -1.78,0.8 -1.78,1.78 0,0.98 0.8,1.78 1.78,1.78 0.98,0 1.78,-0.8 1.78,-1.78 0,-0.98 -0.8,-1.78 -1.78,-1.78zm0 0z"/>
   <path class="fil0" d="M82.3 0l-73.39 0c-4.91,0 -8.91,4 -8.91,8.91l0 54.51c0,4.91 4,8.91 8.91,8.91l27.79 0 0 8.19 -1.78 0c-2.38,0 -4.61,0.93 -6.3,2.61 -1.68,1.68 -2.61,3.92 -2.61,6.3 0,0.98 0.8,1.78 1.78,1.78l35.63 0c0.98,0 1.78,-0.8 1.78,-1.78 0,-4.91 -4,-8.91 -8.91,-8.91l-1.78 0 0 -8.19 27.79 0c4.91,0 8.91,-4 8.91,-8.91l0 -54.51c0,-4.91 -4,-8.91 -8.91,-8.91zm-73.39 3.56l73.39 0c2.95,0 5.34,2.4 5.34,5.34l0 45.6 -8.19 0 0 -40.97c0,-0.98 -0.8,-1.78 -1.78,-1.78l-14.25 0c-0.98,0 -1.78,0.8 -1.78,1.78l0 40.97 -8.92 0c-0.02,-1.84 -0.07,-3.66 -0.14,-5.42 -0.31,-7.25 -1.02,-12.11 -1.39,-14.25 3.68,-2.71 4.68,-7.72 2.43,-11.62l-6.17 -10.69c-0.32,-0.55 -0.91,-0.89 -1.54,-0.89 -0.64,0 -1.22,0.34 -1.54,0.89l-6.18 10.69c-2.12,3.67 -1.37,8.43 1.96,11.24 -0.39,2.13 -1.16,7.16 -1.5,14.63 -0.08,1.78 -0.13,3.6 -0.15,5.42l-8.92 0 0 -26.72c0,-0.28 -0.07,-0.54 -0.18,-0.77 -0.01,-0.01 -0.01,-0.02 -0.01,-0.03l-7.13 -14.25c-0.3,-0.6 -0.92,-0.98 -1.59,-0.98 -0.68,0 -1.29,0.38 -1.59,0.98l-7.13 14.25c-0,0.01 -0.01,0.02 -0.01,0.03 -0.11,0.23 -0.18,0.49 -0.18,0.77l0 26.72 -8.19 0 0 -45.6c0,-2.95 2.4,-5.34 5.34,-5.34zm56.29 50.95l0 -39.19 10.69 0 0 3.56 -1.78 0c-0.98,0 -1.78,0.8 -1.78,1.78 0,0.98 0.8,1.78 1.78,1.78l1.78 0 0 5.34 -1.78 0c-0.98,0 -1.78,0.8 -1.78,1.78 0,0.98 0.8,1.78 1.78,1.78l1.78 0 0 5.34 -1.78 0c-0.98,0 -1.78,0.8 -1.78,1.78 0,0.98 0.8,1.78 1.78,1.78l1.78 0 0 7.13 -1.78 0c-0.98,0 -1.78,0.8 -1.78,1.78 0,0.98 0.8,1.78 1.78,1.78l1.78 0 0 3.56 -10.69 0zm-19.3 -17.94c0.65,0 1.29,-0.07 1.92,-0.21 0.33,2.12 0.82,5.87 1.1,11.02l-6.63 0c0.3,-5.15 0.81,-8.96 1.16,-11.15 0.79,0.22 1.61,0.34 2.44,0.34l0 0zm0 -3.56c-4.07,0 -6.7,-4.43 -4.63,-8.01l4.63 -8.02 4.63 8.02c2.06,3.56 -0.53,8.01 -4.63,8.01zm-3.77 17.94l6.95 0c0.04,1.17 0.06,2.36 0.08,3.56l-7.11 0c0.01,-1.19 0.04,-2.39 0.08,-3.56l0 0zm-19.68 3.56l0 -24.94 3.56 0 0 24.94 -3.56 0zm-7.13 0l0 -24.94 3.56 0 0 24.94 -3.56 0zm1.1 -28.5l4.24 -8.49 4.24 8.49 -8.49 0zm44.91 61.64l-31.46 0c0.26,-0.74 0.69,-1.42 1.26,-2 1.01,-1.01 2.35,-1.57 3.78,-1.57l21.38 0c2.32,0 4.3,1.49 5.04,3.56zm-10.38 -7.13l-10.69 0 0 -8.19 10.69 0 0 8.19zm31.35 -11.76l-73.39 0c-2.95,0 -5.34,-2.4 -5.34,-5.34l0 -5.34 84.08 0 0 5.34c0,2.95 -2.4,5.34 -5.34,5.34zm0 0z"/>
   <path class="fil0" d="M49.17 61.64l-10.69 0c-0.98,0 -1.78,0.8 -1.78,1.78 0,0.98 0.8,1.78 1.78,1.78l10.69 0c0.98,0 1.78,-0.8 1.78,-1.78 0,-0.98 -0.8,-1.78 -1.78,-1.78l0 0zm0 0z"/>
  </g>
 </g>
</svg>
