<?xml version="1.0" encoding="UTF-8"?>
<!DOCTYPE svg PUBLIC "-//W3C//DTD SVG 1.1//EN" "http://www.w3.org/Graphics/SVG/1.1/DTD/svg11.dtd">
<!-- Creator: CorelDRAW 2018 (64 Bit Versão de avaliação) -->
<svg xmlns="http://www.w3.org/2000/svg" xml:space="preserve" width="10.1601mm" height="10.1492mm" version="1.1" style="shape-rendering:geometricPrecision; text-rendering:geometricPrecision; image-rendering:optimizeQuality; fill-rule:evenodd; clip-rule:evenodd"
viewBox="0 0 59.98 59.92"
 xmlns:xlink="http://www.w3.org/1999/xlink">
 <defs>
  <style type="text/css">
   <![CDATA[
    .fil0 {fill:#33CC99}
   ]]>
  </style>
 </defs>
 <g id="Camada_x0020_1">
  <metadata id="CorelCorpID_0Corel-Layer"/>
  <g id="_3111274517520">
   <path class="fil0" d="M6.91 21.86c0.17,0.17 0.4,0.26 0.62,0.26 0.22,0 0.45,-0.09 0.62,-0.26 0.34,-0.34 0.34,-0.9 0,-1.24l-2.13 -2.13 2.13 -2.13c0.34,-0.34 0.34,-0.9 0,-1.24 -0.34,-0.34 -0.9,-0.34 -1.24,0l-2.75 2.75c-0.16,0.16 -0.26,0.39 -0.26,0.62 0,0.23 0.09,0.46 0.26,0.62l2.75 2.75zm0 0z"/>
   <path class="fil0" d="M15.62 18.48l-2.13 2.13c-0.34,0.34 -0.34,0.9 0,1.24 0.17,0.17 0.4,0.26 0.62,0.26 0.22,0 0.45,-0.09 0.62,-0.26l2.75 -2.75c0.34,-0.34 0.34,-0.9 0,-1.24l-2.75 -2.75c-0.34,-0.34 -0.9,-0.34 -1.24,0 -0.34,0.34 -0.34,0.9 0,1.24l2.13 2.13zm0 0z"/>
   <path class="fil0" d="M9.51 22.05c0.11,0.04 0.21,0.06 0.32,0.06 0.35,0 0.68,-0.21 0.82,-0.56l2.16 -5.5c0.18,-0.45 -0.04,-0.96 -0.5,-1.14 -0.45,-0.18 -0.96,0.04 -1.14,0.5l-2.16 5.51c-0.18,0.45 0.04,0.96 0.5,1.14zm0 0z"/>
   <path class="fil0" d="M5.27 27.26l5.91 0c0.48,0 0.88,-0.39 0.88,-0.88 0,-0.48 -0.39,-0.88 -0.88,-0.88l-5.91 0c-0.48,0 -0.88,0.39 -0.88,0.88 0,0.49 0.39,0.88 0.88,0.88zm0 0z"/>
   <path class="fil0" d="M24.81 25.51l-10.4 0c-0.48,0 -0.88,0.39 -0.88,0.88 0,0.49 0.39,0.88 0.88,0.88l10.4 0c0.49,0 0.88,-0.39 0.88,-0.88 0,-0.48 -0.39,-0.88 -0.88,-0.88zm0 0z"/>
   <path class="fil0" d="M5.27 30.97l2.52 0c0.48,0 0.88,-0.39 0.88,-0.88 0,-0.48 -0.39,-0.88 -0.88,-0.88l-2.52 -0c-0.48,0 -0.88,0.39 -0.88,0.88 0,0.49 0.39,0.88 0.88,0.88l0 0zm0 0z"/>
   <path class="fil0" d="M21.6 29.21c-0.48,0 -0.88,0.39 -0.88,0.88 0,0.49 0.39,0.88 0.88,0.88l1.53 0c0.48,0 0.88,-0.39 0.88,-0.88 0,-0.48 -0.39,-0.88 -0.88,-0.88l-1.53 -0zm0 0z"/>
   <path class="fil0" d="M19.29 30.09c0,-0.48 -0.39,-0.88 -0.88,-0.88l-7.54 -0c-0.49,0 -0.88,0.39 -0.88,0.88 0,0.49 0.39,0.88 0.88,0.88l7.54 0c0.48,0 0.88,-0.39 0.88,-0.88zm0 0z"/>
   <path class="fil0" d="M25.04 30.09c0,0.49 0.39,0.88 0.88,0.88l2.87 0c0.49,0 0.88,-0.39 0.88,-0.88 0,-0.48 -0.39,-0.88 -0.88,-0.88l-2.87 -0c-0.48,0 -0.88,0.39 -0.88,0.88l0 0zm0 0z"/>
   <path class="fil0" d="M20.26 19.19l3.03 0c0.49,0 0.88,-0.39 0.88,-0.88 0,-0.48 -0.39,-0.88 -0.88,-0.88l-3.03 0c-0.49,0 -0.88,0.39 -0.88,0.88 0,0.48 0.39,0.88 0.88,0.88zm0 0z"/>
   <path class="fil0" d="M26.68 19.19l18.49 0c0.48,0 0.88,-0.39 0.88,-0.88 0,-0.48 -0.39,-0.88 -0.88,-0.88l-18.49 0c-0.49,0 -0.88,0.39 -0.88,0.88 0,0.48 0.39,0.88 0.88,0.88zm0 0z"/>
   <path class="fil0" d="M42.37 21.29l-7.49 0c-0.48,0 -0.88,0.39 -0.88,0.88 0,0.48 0.39,0.88 0.88,0.88l7.49 0c0.48,0 0.88,-0.39 0.88,-0.88 0,-0.49 -0.39,-0.88 -0.88,-0.88l0 0zm0 0z"/>
   <path class="fil0" d="M32.06 21.29l-2.58 0c-0.49,0 -0.88,0.39 -0.88,0.88 0,0.48 0.39,0.88 0.88,0.88l2.58 0c0.48,0 0.88,-0.39 0.88,-0.88 0,-0.49 -0.39,-0.88 -0.88,-0.88l0 0zm0 0z"/>
   <path class="fil0" d="M20.26 23.05l6.31 0c0.48,0 0.88,-0.39 0.88,-0.88 0,-0.49 -0.39,-0.88 -0.88,-0.88l-6.31 0c-0.49,0 -0.88,0.39 -0.88,0.88 0,0.48 0.39,0.88 0.88,0.88l0 0zm0 0z"/>
   <path class="fil0" d="M18.42 32.88l-5.91 0c-0.49,0 -0.88,0.39 -0.88,0.88 0,0.48 0.39,0.88 0.88,0.88l5.91 0c0.48,0 0.88,-0.39 0.88,-0.88 0,-0.48 -0.39,-0.88 -0.88,-0.88zm0 0z"/>
   <path class="fil0" d="M9.82 32.88l-4.54 0c-0.48,0 -0.88,0.39 -0.88,0.88 0,0.48 0.39,0.88 0.88,0.88l4.54 0c0.49,0 0.88,-0.39 0.88,-0.88 0,-0.48 -0.39,-0.88 -0.88,-0.88zm0 0z"/>
   <path class="fil0" d="M29.14 32.88l-7.73 0c-0.49,0 -0.88,0.39 -0.88,0.88 0,0.48 0.39,0.88 0.88,0.88l7.73 0c0.48,0 0.88,-0.39 0.88,-0.88 0,-0.48 -0.39,-0.88 -0.88,-0.88zm0 0z"/>
   <path class="fil0" d="M39.59 28.37l-4.22 0c-0.48,0 -0.88,0.39 -0.88,0.88 0,0.49 0.39,0.88 0.88,0.88l4.22 0c0.49,0 0.88,-0.39 0.88,-0.88 0,-0.48 -0.39,-0.88 -0.88,-0.88zm0 0z"/>
   <path class="fil0" d="M46.92 30.13l5.96 0c0.48,0 0.88,-0.39 0.88,-0.88 0,-0.48 -0.39,-0.88 -0.88,-0.88l-5.96 0c-0.49,0 -0.88,0.39 -0.88,0.88 0,0.49 0.39,0.88 0.88,0.88zm0 0z"/>
   <path class="fil0" d="M43.93 28.37l-1.37 0c-0.49,0 -0.88,0.39 -0.88,0.88 0,0.49 0.39,0.88 0.88,0.88l1.37 0c0.48,0 0.88,-0.39 0.88,-0.88 0,-0.48 -0.39,-0.88 -0.88,-0.88zm0 0z"/>
   <path class="fil0" d="M35.36 39.69l4.22 0c0.49,0 0.88,-0.39 0.88,-0.88 0,-0.48 -0.39,-0.88 -0.88,-0.88l-4.22 0c-0.48,0 -0.88,0.39 -0.88,0.88 0,0.48 0.39,0.88 0.88,0.88zm0 0z"/>
   <path class="fil0" d="M46.92 39.69l5.96 0c0.48,0 0.88,-0.39 0.88,-0.88 0,-0.48 -0.39,-0.88 -0.88,-0.88l-5.96 0c-0.49,0 -0.88,0.39 -0.88,0.88 0,0.48 0.39,0.88 0.88,0.88zm0 0z"/>
   <path class="fil0" d="M42.57 39.69l1.37 0c0.48,0 0.88,-0.39 0.88,-0.88 0,-0.48 -0.39,-0.88 -0.88,-0.88l-1.37 0c-0.49,0 -0.88,0.39 -0.88,0.88 0,0.48 0.39,0.88 0.88,0.88zm0 0z"/>
   <path class="fil0" d="M39.59 47.5l-4.22 0c-0.48,0 -0.88,0.39 -0.88,0.88 0,0.48 0.39,0.88 0.88,0.88l4.22 0c0.49,0 0.88,-0.39 0.88,-0.88 0,-0.48 -0.39,-0.88 -0.88,-0.88l0 0zm0 0z"/>
   <path class="fil0" d="M52.88 47.5l-5.96 0c-0.49,0 -0.88,0.39 -0.88,0.88 0,0.48 0.39,0.88 0.88,0.88l5.96 0c0.48,0 0.88,-0.39 0.88,-0.88 0,-0.48 -0.39,-0.88 -0.88,-0.88l0 0zm0 0z"/>
   <path class="fil0" d="M43.93 47.5l-1.37 0c-0.49,0 -0.88,0.39 -0.88,0.88 0,0.48 0.39,0.88 0.88,0.88l1.37 0c0.48,0 0.88,-0.39 0.88,-0.88 0,-0.48 -0.39,-0.88 -0.88,-0.88l0 0zm0 0z"/>
   <path class="fil0" d="M56.12 0l-52.26 0c-2.13,0 -3.86,1.73 -3.86,3.86l0 42.48c0,2.13 1.73,3.86 3.86,3.86l3.3 0c0.48,0 0.88,-0.39 0.88,-0.88 0,-0.48 -0.39,-0.88 -0.88,-0.88l-3.3 0c-1.16,0 -2.11,-0.95 -2.11,-2.11l0 -3.33 31.98 0 0 1.51 -0.7 0c-0.95,0 -1.73,0.77 -1.73,1.73l0 2.2 -18.81 0c-0.48,0 -0.88,0.39 -0.88,0.88 0,0.48 0.39,0.88 0.88,0.88l8.44 0 0 3.15 -2.65 0c-1.77,0 -3.21,1.44 -3.21,3.21l0 1.9c0,0.81 0.66,1.46 1.46,1.46l26.81 -0c0.81,0 1.46,-0.66 1.46,-1.46l0 -1.9c0,-1.77 -1.44,-3.21 -3.21,-3.21l-2.65 0 0 -1.11 16.23 0c0.95,0 1.73,-0.77 1.73,-1.73l0 -0.41c1.71,-0.4 2.99,-1.93 2.99,-3.76l0.07 -42.48c0,-2.13 -1.73,-3.86 -3.86,-3.86l0 -0zm-23.05 40.92l0 -4.21 22.1 0 0 4.21 -22.1 0zm2.42 -5.96l0 -1.85 17.25 0 0 1.85 -17.25 0zm17.25 7.72l0 1.85 -17.25 0 0 -1.85 17.25 0zm-30.05 7.53l8.62 0 0 0.31c0,0.95 0.77,1.73 1.73,1.73l4.17 0 0 1.11 -14.51 0 0 -3.15zm18.92 4.9c0.8,0 1.45,0.65 1.45,1.45l0 1.6 -26.23 0 0 -1.6c0,-0.8 0.65,-1.45 1.45,-1.45l23.33 0zm13.55 -4.62l-22.1 0 0 -4.21 22.1 0 0 4.21zm2.99 -4.15c0,0.85 -0.51,1.58 -1.23,1.92l0 -2.01c0,-0.95 -0.78,-1.73 -1.73,-1.73l-0.7 -0 0 -1.51 3.66 0 0 3.33zm0 -5.09l-1.26 0c0.02,-0.1 0.03,-4.57 0.03,-4.57 0,-0.95 -0.78,-1.73 -1.73,-1.73l-0.7 0 0 -1.85 0.7 0c0.95,0 1.73,-0.77 1.73,-1.73l0 -4.27c0,-0.95 -0.78,-1.73 -1.73,-1.73l-4.96 0c-0.49,0 -0.88,0.39 -0.88,0.88 0,0.48 0.39,0.88 0.88,0.88l4.93 0 0 4.21 -22.1 0 0 -4.21 11.71 0c0.49,0 0.88,-0.39 0.88,-0.88 0,-0.49 -0.39,-0.88 -0.88,-0.88l-11.74 0c-0.95,0 -1.73,0.78 -1.73,1.73l0 4.27c0,0.95 0.77,1.73 1.73,1.73l0.7 0 0 1.85 -0.7 0c-0.95,0 -1.73,0.77 -1.73,1.73 0,0 0.01,4.47 0.03,4.57l-29.59 0 0 -29.31 56.4 0 0 29.31zm0 -31.07l-56.34 0 0 -6.32c0,-1.16 0.95,-2.11 2.11,-2.11l52.12 0c1.16,0 2.11,0.95 2.11,2.11l0 6.32zm0 0z"/>
   <path class="fil0" d="M6.47 3.37c-1.42,0 -2.58,1.16 -2.58,2.58 0,1.42 1.16,2.58 2.58,2.58 1.42,0 2.58,-1.16 2.58,-2.58 0,-1.42 -1.16,-2.58 -2.58,-2.58zm0 3.4c-0.45,0 -0.82,-0.37 -0.82,-0.82 0,-0.45 0.37,-0.82 0.82,-0.82 0.45,0 0.82,0.37 0.82,0.82 0,0.45 -0.37,0.82 -0.82,0.82zm0 0z"/>
   <path class="fil0" d="M13.03 3.37c-1.42,0 -2.58,1.16 -2.58,2.58 0,1.42 1.16,2.58 2.58,2.58 1.42,0 2.58,-1.16 2.58,-2.58 0,-1.42 -1.16,-2.58 -2.58,-2.58zm0 3.4c-0.45,0 -0.82,-0.37 -0.82,-0.82 0,-0.45 0.37,-0.82 0.82,-0.82 0.45,0 0.82,0.37 0.82,0.82 0,0.45 -0.37,0.82 -0.82,0.82zm0 0z"/>
   <path class="fil0" d="M19.59 3.37c-1.42,0 -2.58,1.16 -2.58,2.58 0,1.42 1.16,2.58 2.58,2.58 1.42,0 2.58,-1.16 2.58,-2.58 0,-1.42 -1.16,-2.58 -2.58,-2.58zm0 3.4c-0.45,0 -0.82,-0.37 -0.82,-0.82 0,-0.45 0.37,-0.82 0.82,-0.82 0.45,0 0.82,0.37 0.82,0.82 0,0.45 -0.37,0.82 -0.82,0.82zm0 0z"/>
  </g>
 </g>
</svg>
