<?xml version="1.0" encoding="UTF-8"?>
<!DOCTYPE svg PUBLIC "-//W3C//DTD SVG 1.1//EN" "http://www.w3.org/Graphics/SVG/1.1/DTD/svg11.dtd">
<!-- Creator: CorelDRAW 2018 (64 Bit Versão de avaliação) -->
<svg xmlns="http://www.w3.org/2000/svg" xml:space="preserve" width="60px" height="60px" version="1.1" style="shape-rendering:geometricPrecision; text-rendering:geometricPrecision; image-rendering:optimizeQuality; fill-rule:evenodd; clip-rule:evenodd"
viewBox="0 0 2.29 2.3"
 xmlns:xlink="http://www.w3.org/1999/xlink">
 <defs>
  <style type="text/css">
   <![CDATA[
    .fil0 {fill:black}
   ]]>
  </style>
 </defs>
 <g id="Camada_x0020_1">
  <metadata id="CorelCorpID_0Corel-Layer"/>
  <path class="fil0" d="M2.21 1.55c-0.06,0.14 -0.14,0.27 -0.25,0.37 -0.1,0.1 -0.23,0.19 -0.36,0.24 -0.14,0.06 -0.28,0.09 -0.44,0.09 -0.05,0 -0.09,-0.01 -0.14,-0.01 -0.05,-0.01 -0.1,-0.02 -0.14,-0.03 -0.05,-0.01 -0.09,-0.02 -0.14,-0.04l0 0c-0.04,-0.02 -0.08,-0.04 -0.13,-0.06l0 0 0 -0.01 -0.56 0.18 -0.05 0.02 0.02 -0.06 0.18 -0.53 -0.01 -0.01 0 0c-0.02,-0.04 -0.05,-0.08 -0.07,-0.13 -0.02,-0.05 -0.04,-0.1 -0.05,-0.14 -0.01,-0.05 -0.02,-0.1 -0.03,-0.15 -0.01,-0.05 -0.01,-0.11 -0.01,-0.16 0,-0.15 0.03,-0.29 0.09,-0.43 0.05,-0.13 0.14,-0.26 0.24,-0.36 0.11,-0.1 0.23,-0.19 0.37,-0.24 0.13,-0.06 0.28,-0.09 0.43,-0.09 0.16,0 0.3,0.03 0.43,0.09 0.14,0.05 0.27,0.14 0.37,0.24 0.11,0.1 0.19,0.23 0.25,0.36 0.05,0.14 0.08,0.28 0.08,0.43 0,0.15 -0.03,0.3 -0.08,0.43l0 0zm-0.46 -0.16c-0.01,-0.01 -0.03,-0.02 -0.06,-0.03 -0.03,-0.02 -0.17,-0.09 -0.19,-0.1 -0.03,-0.01 -0.05,-0.01 -0.07,0.02 -0.01,0.03 -0.07,0.09 -0.09,0.11 -0.01,0.02 -0.03,0.02 -0.06,0 -0.03,-0.01 -0.12,-0.04 -0.23,-0.13 -0.08,-0.08 -0.14,-0.17 -0.15,-0.2 -0.02,-0.03 0,-0.04 0.01,-0.06 0.01,-0.01 0.03,-0.03 0.04,-0.05 0.02,-0.01 0.02,-0.02 0.03,-0.04 0.01,-0.02 0.01,-0.04 0,-0.05 -0.01,-0.02 -0.06,-0.15 -0.09,-0.21 -0.02,-0.06 -0.05,-0.05 -0.06,-0.05 -0.02,0 -0.04,0 -0.06,0 -0.02,0 -0.05,0.01 -0.07,0.04 -0.03,0.02 -0.1,0.09 -0.1,0.23 0,0.14 0.1,0.27 0.12,0.29 0.01,0.02 0.19,0.31 0.48,0.43 0.29,0.11 0.29,0.07 0.34,0.07 0.05,-0.01 0.17,-0.07 0.19,-0.14 0.02,-0.06 0.02,-0.12 0.02,-0.13l0 0zm-0.94 -1.12c-0.06,0.02 -0.12,0.05 -0.17,0.08 -0.05,0.04 -0.1,0.08 -0.14,0.12 -0.04,0.04 -0.08,0.09 -0.12,0.14 -0.03,0.05 -0.06,0.1 -0.08,0.16 -0.02,0.06 -0.04,0.11 -0.05,0.17 -0.02,0.06 -0.02,0.12 -0.02,0.18 0,0.03 0,0.05 0,0.08 0,0.02 0,0.05 0.01,0.07 0,0.02 0.01,0.05 0.01,0.07 0.01,0.02 0.02,0.05 0.02,0.07 0.01,0.02 0.02,0.04 0.03,0.06 0,0.02 0.01,0.04 0.02,0.06l0 0c0.01,0.02 0.03,0.04 0.04,0.06 0.01,0.02 0.02,0.04 0.03,0.06l0 0 0.01 0.01 0.02 0.02 -0.01 0.03 -0.01 0.01 -0.09 0.27 0.29 -0.09 0 0 0.01 0 0.02 -0.01 0.03 0.01 0.01 0.01c0.01,0.01 0.03,0.02 0.05,0.03 0.02,0.01 0.04,0.02 0.06,0.03 0.02,0.01 0.04,0.02 0.06,0.02l0 0c0.02,0.01 0.04,0.02 0.06,0.02 0.02,0.01 0.04,0.02 0.06,0.02 0.02,0.01 0.04,0.01 0.07,0.01 0.02,0.01 0.04,0.01 0.07,0.01 0.02,0 0.04,0 0.06,0 0.07,0 0.13,0 0.19,-0.01 0.06,-0.02 0.12,-0.03 0.17,-0.06 0.06,-0.02 0.11,-0.05 0.16,-0.08 0.05,-0.04 0.1,-0.08 0.15,-0.12 0.04,-0.04 0.08,-0.09 0.11,-0.14 0.04,-0.05 0.06,-0.1 0.09,-0.16 0.02,-0.06 0.04,-0.11 0.05,-0.17 0.01,-0.06 0.02,-0.12 0.02,-0.18 0,-0.07 -0.01,-0.13 -0.02,-0.18 -0.01,-0.06 -0.03,-0.12 -0.05,-0.18 -0.03,-0.05 -0.05,-0.11 -0.09,-0.16l0 0c-0.03,-0.05 -0.07,-0.1 -0.11,-0.14 -0.05,-0.04 -0.1,-0.08 -0.15,-0.12 -0.05,-0.03 -0.1,-0.06 -0.16,-0.08 -0.05,-0.02 -0.11,-0.04 -0.17,-0.05 -0.06,-0.02 -0.12,-0.02 -0.19,-0.02 -0.06,0 -0.12,0.01 -0.18,0.02 -0.06,0.01 -0.12,0.03 -0.17,0.05l0 0z"/>
 </g>
</svg>
