<?xml version="1.0" encoding="UTF-8"?>
<!DOCTYPE svg PUBLIC "-//W3C//DTD SVG 1.1//EN" "http://www.w3.org/Graphics/SVG/1.1/DTD/svg11.dtd">
<!-- Creator: CorelDRAW 2018 (64 Bit Versão de avaliação) -->
<svg xmlns="http://www.w3.org/2000/svg" xml:space="preserve" width="2.032mm" height="2.0338mm" version="1.1" style="shape-rendering:geometricPrecision; text-rendering:geometricPrecision; image-rendering:optimizeQuality; fill-rule:evenodd; clip-rule:evenodd"
viewBox="0 0 5.93 5.94"
 xmlns:xlink="http://www.w3.org/1999/xlink">
 <defs>
  <style type="text/css">
   <![CDATA[
    .fil0 {fill:white}
   ]]>
  </style>
 </defs>
 <g id="Camada_x0020_1">
  <metadata id="CorelCorpID_0Corel-Layer"/>
  <path class="fil0" d="M5.71 4.02c-0.15,0.36 -0.37,0.68 -0.63,0.94 -0.27,0.27 -0.59,0.48 -0.95,0.63 -0.35,0.14 -0.73,0.22 -1.12,0.22 -0.13,0 -0.25,-0.01 -0.37,-0.02 -0.12,-0.01 -0.25,-0.04 -0.36,-0.07 -0.12,-0.03 -0.24,-0.07 -0.35,-0.11l0 0c-0.11,-0.05 -0.23,-0.1 -0.33,-0.16l0 0 -0.02 -0.01 -1.44 0.46 -0.13 0.04 0.04 -0.13 0.47 -1.38 -0.01 -0.02 0 0c-0.07,-0.11 -0.13,-0.23 -0.18,-0.35 -0.05,-0.12 -0.1,-0.24 -0.13,-0.37 -0.03,-0.12 -0.06,-0.25 -0.08,-0.39 -0.02,-0.13 -0.03,-0.26 -0.03,-0.39 0,-0.39 0.08,-0.77 0.22,-1.11 0.15,-0.36 0.37,-0.68 0.64,-0.94 0.27,-0.27 0.59,-0.48 0.95,-0.63 0.35,-0.14 0.73,-0.22 1.12,-0.22 0.4,0 0.78,0.08 1.12,0.22 0.36,0.15 0.68,0.36 0.95,0.63 0.27,0.27 0.49,0.59 0.63,0.94 0.14,0.34 0.22,0.72 0.22,1.11 0,0.39 -0.08,0.77 -0.22,1.11l0 0zm-1.2 -0.43c-0.02,-0.03 -0.07,-0.05 -0.14,-0.08 -0.07,-0.04 -0.43,-0.21 -0.5,-0.24 -0.07,-0.03 -0.12,-0.04 -0.16,0.04 -0.05,0.07 -0.19,0.24 -0.23,0.29 -0.04,0.05 -0.09,0.05 -0.16,0.02 -0.07,-0.04 -0.31,-0.11 -0.59,-0.36 -0.22,-0.19 -0.36,-0.43 -0.41,-0.5 -0.04,-0.07 -0,-0.11 0.03,-0.15 0.03,-0.03 0.07,-0.08 0.11,-0.13 0.04,-0.04 0.05,-0.07 0.07,-0.12 0.03,-0.05 0.01,-0.09 -0.01,-0.13 -0.02,-0.04 -0.16,-0.39 -0.23,-0.54 -0.06,-0.15 -0.12,-0.12 -0.16,-0.12 -0.04,0 -0.09,-0.01 -0.14,-0.01 -0.05,0 -0.13,0.02 -0.19,0.09 -0.07,0.07 -0.26,0.25 -0.26,0.61 0,0.36 0.26,0.7 0.3,0.75 0.04,0.05 0.51,0.81 1.25,1.1 0.75,0.29 0.75,0.19 0.88,0.18 0.13,-0.01 0.43,-0.17 0.49,-0.34 0.06,-0.17 0.06,-0.32 0.04,-0.35l0 -0zm-2.43 -2.9c-0.15,0.06 -0.29,0.14 -0.42,0.22 -0.13,0.09 -0.26,0.19 -0.37,0.3 -0.11,0.11 -0.21,0.23 -0.3,0.37 -0.09,0.13 -0.16,0.27 -0.22,0.42 -0.06,0.14 -0.11,0.29 -0.14,0.45 -0.03,0.15 -0.05,0.31 -0.05,0.47 0,0.06 0,0.13 0.01,0.19 0.01,0.07 0.01,0.13 0.02,0.19 0.01,0.06 0.02,0.12 0.04,0.18 0.01,0.06 0.03,0.12 0.05,0.18 0.02,0.06 0.04,0.11 0.06,0.16 0.02,0.05 0.05,0.1 0.07,0.16l0 0c0.03,0.05 0.05,0.1 0.08,0.15 0.03,0.05 0.06,0.1 0.09,0.15l0 0 0.02 0.03 0.04 0.06 -0.02 0.07 -0.01 0.03 -0.23 0.69 0.73 -0.23 0 0 0.03 -0.01 0.06 -0.02 0.06 0.04 0.03 0.02c0.04,0.03 0.09,0.05 0.14,0.08 0.05,0.02 0.09,0.05 0.15,0.07 0.05,0.02 0.1,0.05 0.15,0.06l0 0c0.05,0.02 0.1,0.04 0.15,0.05 0.06,0.02 0.12,0.03 0.17,0.05 0.05,0.01 0.11,0.02 0.17,0.03 0.06,0.01 0.12,0.01 0.17,0.02 0.06,0 0.12,0.01 0.18,0.01 0.16,0 0.32,-0.02 0.47,-0.04 0.16,-0.03 0.31,-0.08 0.45,-0.14 0.15,-0.06 0.29,-0.14 0.42,-0.22 0.13,-0.09 0.26,-0.19 0.37,-0.3 0.11,-0.11 0.21,-0.23 0.3,-0.36 0.09,-0.13 0.16,-0.27 0.22,-0.42 0.06,-0.14 0.11,-0.29 0.14,-0.45 0.03,-0.15 0.05,-0.31 0.05,-0.47 0,-0.16 -0.02,-0.32 -0.05,-0.47 -0.03,-0.16 -0.08,-0.31 -0.14,-0.45 -0.06,-0.15 -0.14,-0.29 -0.22,-0.42l0 0c-0.09,-0.13 -0.19,-0.25 -0.3,-0.36 -0.11,-0.11 -0.23,-0.21 -0.37,-0.3 -0.13,-0.09 -0.27,-0.16 -0.42,-0.22 -0.14,-0.06 -0.29,-0.1 -0.45,-0.14 -0.15,-0.03 -0.31,-0.04 -0.47,-0.04 -0.16,0 -0.32,0.02 -0.47,0.04 -0.16,0.03 -0.31,0.08 -0.45,0.14l-0 -0.01z"/>
 </g>
</svg>
