<?xml version="1.0" encoding="UTF-8"?>
<!DOCTYPE svg PUBLIC "-//W3C//DTD SVG 1.1//EN" "http://www.w3.org/Graphics/SVG/1.1/DTD/svg11.dtd">
<!-- Creator: CorelDRAW 2018 (64 Bit Versão de avaliação) -->
<svg xmlns="http://www.w3.org/2000/svg" xml:space="preserve" width="120px" height="120px" version="1.1" style="shape-rendering:geometricPrecision; text-rendering:geometricPrecision; image-rendering:optimizeQuality; fill-rule:evenodd; clip-rule:evenodd"
viewBox="0 0 7.08 7.08"
 xmlns:xlink="http://www.w3.org/1999/xlink">
 <defs>
  <style type="text/css">
   <![CDATA[
    .fil0 {fill:black}
   ]]>
  </style>
 </defs>
 <g id="Camada_x0020_1">
  <metadata id="CorelCorpID_0Corel-Layer"/>
  <g id="_3019915040">
   <path class="fil0" d="M0.82 2.58c0.02,0.02 0.04,0.03 0.07,0.03 0.03,0 0.05,-0.01 0.07,-0.03 0.04,-0.04 0.04,-0.1 0,-0.15l-0.25 -0.25 0.25 -0.25c0.04,-0.04 0.04,-0.1 0,-0.15 -0.04,-0.04 -0.1,-0.04 -0.14,0l-0.33 0.33c-0.02,0.02 -0.03,0.05 -0.03,0.07 0,0.03 0.01,0.06 0.03,0.08l0.33 0.32zm0 0z"/>
   <path class="fil0" d="M1.84 2.18l-0.25 0.25c-0.04,0.05 -0.04,0.11 0,0.15 0.02,0.02 0.05,0.03 0.08,0.03 0.02,0 0.05,-0.01 0.07,-0.03l0.32 -0.32c0.05,-0.04 0.05,-0.11 0,-0.15l-0.32 -0.33c-0.04,-0.04 -0.11,-0.04 -0.15,0 -0.04,0.05 -0.04,0.11 0,0.15l0.25 0.25zm0 0z"/>
   <path class="fil0" d="M1.12 2.6c0.02,0.01 0.03,0.01 0.04,0.01 0.04,0 0.08,-0.02 0.1,-0.06l0.25 -0.65c0.02,-0.06 0,-0.12 -0.06,-0.14 -0.05,-0.02 -0.11,0.01 -0.13,0.06l-0.26 0.65c-0.02,0.05 0.01,0.11 0.06,0.13zm0 0z"/>
   <path class="fil0" d="M0.62 3.22l0.7 0c0.06,0 0.1,-0.05 0.1,-0.1 0,-0.06 -0.04,-0.11 -0.1,-0.11l-0.7 0c-0.05,0 -0.1,0.05 -0.1,0.11 0,0.05 0.05,0.1 0.1,0.1zm0 0z"/>
   <path class="fil0" d="M2.93 3.01l-1.23 0c-0.06,0 -0.1,0.05 -0.1,0.11 0,0.05 0.04,0.1 0.1,0.1l1.23 0c0.06,0 0.1,-0.05 0.1,-0.1 0,-0.06 -0.04,-0.11 -0.1,-0.11zm0 0z"/>
   <path class="fil0" d="M0.62 3.66l0.3 0c0.06,0 0.1,-0.05 0.1,-0.11 0,-0.05 -0.04,-0.1 -0.1,-0.1l-0.3 0c-0.05,0 -0.1,0.05 -0.1,0.1 0,0.06 0.05,0.11 0.1,0.11l0 0zm0 0z"/>
   <path class="fil0" d="M2.55 3.45c-0.06,0 -0.1,0.05 -0.1,0.1 0,0.06 0.04,0.11 0.1,0.11l0.18 0c0.06,0 0.11,-0.05 0.11,-0.11 0,-0.05 -0.05,-0.1 -0.11,-0.1l-0.18 0zm0 0z"/>
   <path class="fil0" d="M2.28 3.55c0,-0.05 -0.05,-0.1 -0.11,-0.1l-0.89 0c-0.05,0 -0.1,0.05 -0.1,0.1 0,0.06 0.05,0.11 0.1,0.11l0.89 0c0.06,0 0.11,-0.05 0.11,-0.11zm0 0z"/>
   <path class="fil0" d="M2.96 3.55c0,0.06 0.04,0.11 0.1,0.11l0.34 0c0.06,0 0.1,-0.05 0.1,-0.11 0,-0.05 -0.04,-0.1 -0.1,-0.1l-0.34 0c-0.06,0 -0.1,0.05 -0.1,0.1l0 0zm0 0z"/>
   <path class="fil0" d="M2.39 2.27l0.36 0c0.06,0 0.1,-0.05 0.1,-0.11 0,-0.05 -0.04,-0.1 -0.1,-0.1l-0.36 0c-0.06,0 -0.1,0.05 -0.1,0.1 0,0.06 0.04,0.11 0.1,0.11zm0 0z"/>
   <path class="fil0" d="M3.15 2.27l2.19 0c0.05,0 0.1,-0.05 0.1,-0.11 0,-0.05 -0.05,-0.1 -0.1,-0.1l-2.19 0c-0.06,0 -0.1,0.05 -0.1,0.1 0,0.06 0.04,0.11 0.1,0.11zm0 0z"/>
   <path class="fil0" d="M5 2.51l-0.88 0c-0.06,0 -0.1,0.05 -0.1,0.11 0,0.06 0.04,0.1 0.1,0.1l0.88 0c0.06,0 0.11,-0.04 0.11,-0.1 0,-0.06 -0.05,-0.11 -0.11,-0.11l0 0zm0 0z"/>
   <path class="fil0" d="M3.79 2.51l-0.31 0c-0.05,0 -0.1,0.05 -0.1,0.11 0,0.06 0.05,0.1 0.1,0.1l0.31 0c0.05,0 0.1,-0.04 0.1,-0.1 0,-0.06 -0.05,-0.11 -0.1,-0.11l0 0zm0 0z"/>
   <path class="fil0" d="M2.39 2.72l0.75 0c0.05,0 0.1,-0.04 0.1,-0.1 0,-0.06 -0.05,-0.11 -0.1,-0.11l-0.75 0c-0.06,0 -0.1,0.05 -0.1,0.11 0,0.06 0.04,0.1 0.1,0.1l0 0zm0 0z"/>
   <path class="fil0" d="M2.18 3.88l-0.7 0c-0.06,0 -0.11,0.05 -0.11,0.11 0,0.05 0.05,0.1 0.11,0.1l0.7 0c0.05,0 0.1,-0.05 0.1,-0.1 0,-0.06 -0.05,-0.11 -0.1,-0.11zm0 0z"/>
   <path class="fil0" d="M1.16 3.88l-0.54 0c-0.05,0 -0.1,0.05 -0.1,0.11 0,0.05 0.05,0.1 0.1,0.1l0.54 0c0.06,0 0.1,-0.05 0.1,-0.1 0,-0.06 -0.04,-0.11 -0.1,-0.11zm0 0z"/>
   <path class="fil0" d="M3.44 3.88l-0.91 0c-0.06,0 -0.1,0.05 -0.1,0.11 0,0.05 0.04,0.1 0.1,0.1l0.91 0c0.06,0 0.11,-0.05 0.11,-0.1 0,-0.06 -0.05,-0.11 -0.11,-0.11zm0 0z"/>
   <path class="fil0" d="M4.68 3.35l-0.5 0c-0.06,0 -0.11,0.05 -0.11,0.1 0,0.06 0.05,0.11 0.11,0.11l0.5 0c0.05,0 0.1,-0.05 0.1,-0.11 0,-0.05 -0.05,-0.1 -0.1,-0.1zm0 0z"/>
   <path class="fil0" d="M5.54 3.56l0.71 0c0.05,0 0.1,-0.05 0.1,-0.11 0,-0.05 -0.05,-0.1 -0.1,-0.1l-0.71 0c-0.06,0 -0.1,0.05 -0.1,0.1 0,0.06 0.04,0.11 0.1,0.11zm0 0z"/>
   <path class="fil0" d="M5.19 3.35l-0.16 0c-0.06,0 -0.11,0.05 -0.11,0.1 0,0.06 0.05,0.11 0.11,0.11l0.16 0c0.06,0 0.1,-0.05 0.1,-0.11 0,-0.05 -0.04,-0.1 -0.1,-0.1zm0 0z"/>
   <path class="fil0" d="M4.18 4.69l0.5 0c0.05,0 0.1,-0.05 0.1,-0.11 0,-0.05 -0.05,-0.1 -0.1,-0.1l-0.5 0c-0.06,0 -0.11,0.05 -0.11,0.1 0,0.06 0.05,0.11 0.11,0.11zm0 0z"/>
   <path class="fil0" d="M5.54 4.69l0.71 0c0.05,0 0.1,-0.05 0.1,-0.11 0,-0.05 -0.05,-0.1 -0.1,-0.1l-0.71 0c-0.06,0 -0.1,0.05 -0.1,0.1 0,0.06 0.04,0.11 0.1,0.11zm0 0z"/>
   <path class="fil0" d="M5.03 4.69l0.16 0c0.06,0 0.1,-0.05 0.1,-0.11 0,-0.05 -0.04,-0.1 -0.1,-0.1l-0.16 0c-0.06,0 -0.11,0.05 -0.11,0.1 0,0.06 0.05,0.11 0.11,0.11zm0 0z"/>
   <path class="fil0" d="M4.68 5.61l-0.5 0c-0.06,0 -0.11,0.05 -0.11,0.1 0,0.06 0.05,0.11 0.11,0.11l0.5 0c0.05,0 0.1,-0.05 0.1,-0.11 0,-0.05 -0.05,-0.1 -0.1,-0.1l0 0zm0 0z"/>
   <path class="fil0" d="M6.25 5.61l-0.71 0c-0.06,0 -0.1,0.05 -0.1,0.1 0,0.06 0.04,0.11 0.1,0.11l0.71 0c0.05,0 0.1,-0.05 0.1,-0.11 0,-0.05 -0.05,-0.1 -0.1,-0.1l0 0zm0 0z"/>
   <path class="fil0" d="M5.19 5.61l-0.16 0c-0.06,0 -0.11,0.05 -0.11,0.1 0,0.06 0.05,0.11 0.11,0.11l0.16 0c0.06,0 0.1,-0.05 0.1,-0.11 0,-0.05 -0.04,-0.1 -0.1,-0.1l0 0zm0 0z"/>
   <path class="fil0" d="M6.63 0l-6.17 0c-0.26,0 -0.46,0.2 -0.46,0.46l0 5.01c0,0.25 0.2,0.46 0.46,0.46l0.39 0c0.05,0 0.1,-0.05 0.1,-0.1 0,-0.06 -0.05,-0.11 -0.1,-0.11l-0.39 0c-0.14,0 -0.25,-0.11 -0.25,-0.25l0 -0.39 3.77 0 0 0.18 -0.08 0c-0.11,0 -0.2,0.09 -0.2,0.2l0 0.26 -2.22 0c-0.06,0 -0.11,0.05 -0.11,0.11 0,0.05 0.05,0.1 0.11,0.1l0.99 0 0 0.37 -0.31 0c-0.21,0 -0.38,0.17 -0.38,0.38l0 0.22c0,0.1 0.08,0.18 0.17,0.18l3.17 0c0.1,0 0.17,-0.08 0.17,-0.18l0 -0.22c0,-0.21 -0.17,-0.38 -0.37,-0.38l-0.32 0 0 -0.13 1.92 0c0.11,0 0.2,-0.09 0.2,-0.2l0 -0.05c0.21,-0.05 0.36,-0.23 0.36,-0.45l0 -5.01c0,-0.26 -0.2,-0.46 -0.45,-0.46l0 0zm-2.72 4.83l0 -0.49 2.61 0 0 0.49 -2.61 0zm0.28 -0.7l0 -0.22 2.04 0 0 0.22 -2.04 0zm2.04 0.91l0 0.22 -2.04 0 0 -0.22 2.04 0zm-3.55 0.89l1.02 0 0 0.04c0,0.11 0.09,0.2 0.2,0.2l0.5 0 0 0.13 -1.72 0 0 -0.37zm2.24 0.58c0.09,0 0.17,0.08 0.17,0.17l0 0.19 -3.1 0 0 -0.19c0,-0.09 0.08,-0.17 0.17,-0.17l2.76 0zm1.6 -0.55l-2.61 0 0 -0.49 2.61 0 0 0.49zm0.35 -0.49c0,0.1 -0.06,0.19 -0.15,0.23l0 -0.24c0,-0.11 -0.09,-0.2 -0.2,-0.2l-0.08 0 0 -0.18 0.43 0 0 0.39zm0 -0.6l-0.15 0c0,-0.01 0,-0.54 0,-0.54 0,-0.11 -0.09,-0.2 -0.2,-0.2l-0.08 0 0 -0.22 0.08 0c0.11,0 0.2,-0.09 0.2,-0.2l0 -0.51c0,-0.11 -0.09,-0.2 -0.2,-0.2l-0.59 0c-0.05,0 -0.1,0.05 -0.1,0.1 0,0.06 0.05,0.11 0.1,0.11l0.59 0 0 0.49 -2.61 0 0 -0.49 1.38 0c0.06,0 0.1,-0.05 0.1,-0.11 0,-0.05 -0.04,-0.1 -0.1,-0.1l-1.39 0c-0.11,0 -0.2,0.09 -0.2,0.2l0 0.51c0,0.11 0.09,0.2 0.2,0.2l0.08 0 0 0.22 -0.08 0c-0.11,0 -0.2,0.09 -0.2,0.2 0,0 0,0.53 0,0.54l-3.49 0 0 -3.46 6.66 0 0 3.46zm0 -3.67l-6.65 0 0 -0.74c0,-0.14 0.11,-0.25 0.24,-0.25l6.16 0c0.14,0 0.25,0.11 0.25,0.25l0 0.74zm0 0z"/>
   <path class="fil0" d="M0.76 0.4c-0.16,0 -0.3,0.13 -0.3,0.3 0,0.17 0.14,0.31 0.3,0.31 0.17,0 0.31,-0.14 0.31,-0.31 0,-0.17 -0.14,-0.3 -0.31,-0.3zm0 0.4c-0.05,0 -0.09,-0.04 -0.09,-0.1 0,-0.05 0.04,-0.09 0.09,-0.09 0.06,0 0.1,0.04 0.1,0.09 0,0.06 -0.04,0.1 -0.1,0.1zm0 0z"/>
   <path class="fil0" d="M1.54 0.4c-0.17,0 -0.3,0.13 -0.3,0.3 0,0.17 0.13,0.31 0.3,0.31 0.17,0 0.3,-0.14 0.3,-0.31 0,-0.17 -0.13,-0.3 -0.3,-0.3zm0 0.4c-0.05,0 -0.1,-0.04 -0.1,-0.1 0,-0.05 0.05,-0.09 0.1,-0.09 0.05,0 0.1,0.04 0.1,0.09 0,0.06 -0.05,0.1 -0.1,0.1zm0 0z"/>
   <path class="fil0" d="M2.31 0.4c-0.16,0 -0.3,0.13 -0.3,0.3 0,0.17 0.14,0.31 0.3,0.31 0.17,0 0.31,-0.14 0.31,-0.31 0,-0.17 -0.14,-0.3 -0.31,-0.3zm0 0.4c-0.05,0 -0.09,-0.04 -0.09,-0.1 0,-0.05 0.04,-0.09 0.09,-0.09 0.06,0 0.1,0.04 0.1,0.09 0,0.06 -0.04,0.1 -0.1,0.1zm0 0z"/>
  </g>
 </g>
</svg>
