<svg xmlns="http://www.w3.org/2000/svg" xmlns:xlink="http://www.w3.org/1999/xlink" width="200" height="120" viewBox="0 0 200 120">
  <defs>
    <clipPath id="clip-path">
      <rect id="Ret칙ngulo_195" data-name="Ret칙ngulo 195" width="200" height="120" transform="translate(860 3729)" fill="#fff" stroke="#707070" stroke-width="1"/>
    </clipPath>
  </defs>
  <g id="Grupo_de_m치scara_27" data-name="Grupo de m치scara 27" transform="translate(-860 -3729)" clip-path="url(#clip-path)">
    <g id="Camada_x0020_1" transform="translate(860 3729.079)">
      <g id="_2231379747568">
        <path id="Caminho_8262" data-name="Caminho 8262" d="M14.274,113.914v.161H11.463L7.2,106.107H2.622v7.969H0V94.414H6.508a7.674,7.674,0,0,1,5.12,1.521,5.454,5.454,0,0,1,1.779,4.383,5.3,5.3,0,0,1-.991,3.194,5.982,5.982,0,0,1-2.761,2.056l4.618,8.347ZM73.509,12.409h10.6v5.3A26.543,26.543,0,0,1,105.3,12.94V23.912A15.9,15.9,0,0,0,84.106,38.9V65.392h-10.6ZM94.7,53.889A15.9,15.9,0,0,0,115.895,38.9V12.409h10.6V65.392h-10.6v-5.3A26.552,26.552,0,0,1,94.7,64.862ZM6.577,104a5,5,0,0,0,2.3-.484,3.338,3.338,0,0,0,1.424-1.323,3.722,3.722,0,0,0,.479-1.876,3.661,3.661,0,0,0-1.051-2.784,4.544,4.544,0,0,0-3.217-1H2.622V104H6.577Zm9.411,2.622a8.69,8.69,0,0,1,.807-3.807,6.224,6.224,0,0,1,5.821-3.622,6.426,6.426,0,0,1,3.54.968,6.315,6.315,0,0,1,2.318,2.655,8.629,8.629,0,0,1,.811,3.807v.309a8.594,8.594,0,0,1-.811,3.8,6.224,6.224,0,0,1-5.83,3.613,6.249,6.249,0,0,1-5.839-3.613,8.591,8.591,0,0,1-.816-3.8v-.309Zm2.521.309a7.639,7.639,0,0,0,.466,2.715,4.352,4.352,0,0,0,1.4,1.95,3.892,3.892,0,0,0,4.521,0,4.31,4.31,0,0,0,1.4-1.95,7.541,7.541,0,0,0,.466-2.715v-.309a7.543,7.543,0,0,0-.47-2.715,4.44,4.44,0,0,0-1.406-1.959,3.585,3.585,0,0,0-2.268-.728,3.541,3.541,0,0,0-2.249.728,4.453,4.453,0,0,0-1.392,1.959,7.641,7.641,0,0,0-.466,2.715Zm25.644-13.6v20.74H41.844l-.12-1.553a5.068,5.068,0,0,1-4.162,1.825,4.956,4.956,0,0,1-3-.959,6.286,6.286,0,0,1-2.032-2.65,9.617,9.617,0,0,1-.723-3.807v-.281a9.881,9.881,0,0,1,.719-3.9,5.96,5.96,0,0,1,2.023-2.618,5.107,5.107,0,0,1,3.037-.936,5.006,5.006,0,0,1,4.038,1.719V93.336h2.526Zm-5.968,18.906a3.647,3.647,0,0,0,3.443-2.12v-6.766a4.029,4.029,0,0,0-1.355-1.512,3.676,3.676,0,0,0-2.06-.553,3.356,3.356,0,0,0-2.18.705,4.105,4.105,0,0,0-1.281,1.927,8.416,8.416,0,0,0-.415,2.729v.281a8.242,8.242,0,0,0,.415,2.71,4.067,4.067,0,0,0,1.272,1.894,3.312,3.312,0,0,0,2.162.705ZM54,99.194a3.808,3.808,0,0,1,.608.064,1.967,1.967,0,0,1,.5.124v2.309a7,7,0,0,0-1.226-.106,3.66,3.66,0,0,0-2.074.553,3.414,3.414,0,0,0-1.249,1.553v10.384H48.03V99.466h2.457l.055,1.659A4.193,4.193,0,0,1,51.975,99.7,3.936,3.936,0,0,1,54,99.194Zm4.9-5.047a1.462,1.462,0,0,1,1.1.406,1.386,1.386,0,0,1,.4,1.023,1.368,1.368,0,0,1-.4,1.009,1.492,1.492,0,0,1-1.1.4,1.441,1.441,0,0,1-1.083-.4,1.394,1.394,0,0,1-.387-1.009,1.364,1.364,0,0,1,1.47-1.429Zm-1.281,19.929V99.466h2.526v14.61Zm18.27-14.61v14.3a6.5,6.5,0,0,1-.784,3.272,5.2,5.2,0,0,1-2.18,2.088,7.027,7.027,0,0,1-3.235.714,7.632,7.632,0,0,1-1.862-.258,7.456,7.456,0,0,1-1.977-.82,4.845,4.845,0,0,1-1.576-1.461l1.313-1.47a4.906,4.906,0,0,0,3.913,1.987,3.859,3.859,0,0,0,2.83-1.023,3.909,3.909,0,0,0,1.032-2.908v-1.258a5.1,5.1,0,0,1-4.079,1.719,4.983,4.983,0,0,1-3.028-.959,6.176,6.176,0,0,1-2.014-2.641,9.783,9.783,0,0,1-.71-3.816v-.281a10.047,10.047,0,0,1,.705-3.9,5.871,5.871,0,0,1,2.009-2.618,5.152,5.152,0,0,1,3.065-.936,5.027,5.027,0,0,1,4.171,1.88l.11-1.609h2.3ZM69.9,112.242a3.652,3.652,0,0,0,3.457-2.148v-6.711A4.054,4.054,0,0,0,72,101.848a3.669,3.669,0,0,0-2.065-.558,3.347,3.347,0,0,0-2.18.705,4.145,4.145,0,0,0-1.286,1.927,8.542,8.542,0,0,0-.41,2.729v.281a8.365,8.365,0,0,0,.41,2.71,4.108,4.108,0,0,0,1.277,1.894,3.312,3.312,0,0,0,2.162.705Zm9.1-5.618a8.69,8.69,0,0,1,.807-3.807,6.224,6.224,0,0,1,5.821-3.622,6.426,6.426,0,0,1,3.54.968,6.315,6.315,0,0,1,2.318,2.655,8.629,8.629,0,0,1,.811,3.807v.309a8.594,8.594,0,0,1-.811,3.8,6.464,6.464,0,0,1-11.67,0,8.591,8.591,0,0,1-.816-3.8v-.309Zm2.521.309a7.639,7.639,0,0,0,.466,2.715,4.352,4.352,0,0,0,1.4,1.95,3.892,3.892,0,0,0,4.521,0,4.31,4.31,0,0,0,1.4-1.95,7.541,7.541,0,0,0,.466-2.715v-.309a7.543,7.543,0,0,0-.47-2.715A4.44,4.44,0,0,0,87.9,101.95a3.585,3.585,0,0,0-2.268-.728,3.541,3.541,0,0,0-2.249.728,4.453,4.453,0,0,0-1.392,1.959,7.641,7.641,0,0,0-.466,2.715Zm35.433,6.982v.161H114.15l-4.263-7.969H105.31v7.969h-2.622V94.414H109.2a7.674,7.674,0,0,1,5.12,1.521,5.454,5.454,0,0,1,1.779,4.383,5.3,5.3,0,0,1-.991,3.194,5.982,5.982,0,0,1-2.761,2.056l4.618,8.347Zm-7.7-9.914a5,5,0,0,0,2.3-.484,3.338,3.338,0,0,0,1.424-1.323,3.722,3.722,0,0,0,.479-1.876,3.661,3.661,0,0,0-1.051-2.784,4.544,4.544,0,0,0-3.217-1H105.31V104Zm21.833,3.457H121.21a6.155,6.155,0,0,0,.567,2.475,4.253,4.253,0,0,0,1.493,1.747,3.985,3.985,0,0,0,2.263.641,4.474,4.474,0,0,0,2.194-.512,5.343,5.343,0,0,0,1.655-1.475l1.526,1.189a6.362,6.362,0,0,1-2.162,2.033,6.539,6.539,0,0,1-3.346.793,6.787,6.787,0,0,1-3.526-.908,6.1,6.1,0,0,1-2.355-2.512,7.825,7.825,0,0,1-.834-3.646V106.7a8.492,8.492,0,0,1,.894-3.987,6.544,6.544,0,0,1,2.355-2.613,6.29,6.29,0,0,1,6.522,0,5.41,5.41,0,0,1,1.991,2.521,9.835,9.835,0,0,1,.65,3.71v1.12Zm-2.526-2.212a5.491,5.491,0,0,0-.926-2.871,2.93,2.93,0,0,0-2.572-1.152,3.271,3.271,0,0,0-2.517,1.1,5.5,5.5,0,0,0-1.263,3.111h7.277v-.189Zm21.012-6.051a4.841,4.841,0,0,1,3.646,1.286,5.55,5.55,0,0,1,1.244,4v9.6h-2.526v-9.628a3.17,3.17,0,0,0-.793-2.452,3.964,3.964,0,0,0-4.015-.295A2.986,2.986,0,0,0,146,102.816a3.948,3.948,0,0,0-.507,1.576v9.684h-2.526v-9.614q0-3.173-3.116-3.171a3.68,3.68,0,0,0-2.079.544,3.448,3.448,0,0,0-1.258,1.521v10.72h-2.526V99.466h2.392l.078,1.581a5.156,5.156,0,0,1,1.839-1.373,6.059,6.059,0,0,1,2.47-.479,5.34,5.34,0,0,1,2.53.576,3.691,3.691,0,0,1,1.641,1.747,5.438,5.438,0,0,1,1.94-1.7,5.713,5.713,0,0,1,2.706-.622Zm8.872,14.882V99.466h2.512v14.61Zm5.715-20.713-3.632,3.955h-2.028l2.622-3.955Zm12.688,6.1v14.3a6.5,6.5,0,0,1-.784,3.272,5.2,5.2,0,0,1-2.18,2.088,7.027,7.027,0,0,1-3.235.714,7.632,7.632,0,0,1-1.862-.258,7.456,7.456,0,0,1-1.977-.82,4.845,4.845,0,0,1-1.576-1.461l1.313-1.47a4.906,4.906,0,0,0,3.913,1.987,3.859,3.859,0,0,0,2.83-1.023,3.909,3.909,0,0,0,1.032-2.908v-1.258a5.1,5.1,0,0,1-4.079,1.719,4.983,4.983,0,0,1-3.028-.959,6.176,6.176,0,0,1-2.014-2.641,9.783,9.783,0,0,1-.71-3.816v-.281a10.047,10.047,0,0,1,.705-3.9,5.871,5.871,0,0,1,2.009-2.618,5.152,5.152,0,0,1,3.065-.936,5.027,5.027,0,0,1,4.171,1.88l.11-1.609h2.3Zm-5.982,12.776a3.652,3.652,0,0,0,3.457-2.148v-6.711a4.054,4.054,0,0,0-1.364-1.535,3.669,3.669,0,0,0-2.065-.558,3.347,3.347,0,0,0-2.18.705,4.145,4.145,0,0,0-1.286,1.927,8.542,8.542,0,0,0-.41,2.729v.281a8.365,8.365,0,0,0,.41,2.71,4.108,4.108,0,0,0,1.277,1.894,3.312,3.312,0,0,0,2.162.705Zm11.246-18.095a1.462,1.462,0,0,1,1.1.406,1.386,1.386,0,0,1,.4,1.023,1.368,1.368,0,0,1-.4,1.009,1.492,1.492,0,0,1-1.1.4,1.441,1.441,0,0,1-1.083-.4,1.394,1.394,0,0,1-.387-1.009,1.364,1.364,0,0,1,1.47-1.429Zm-1.281,19.929V99.466h2.526v14.61Zm5.863-7.453a8.69,8.69,0,0,1,.807-3.807,6.224,6.224,0,0,1,5.821-3.622,6.426,6.426,0,0,1,3.54.968,6.314,6.314,0,0,1,2.318,2.655,8.628,8.628,0,0,1,.811,3.807v.309a8.594,8.594,0,0,1-.811,3.8,6.464,6.464,0,0,1-11.67,0,8.591,8.591,0,0,1-.816-3.8Zm2.521.309a7.64,7.64,0,0,0,.466,2.715,4.352,4.352,0,0,0,1.4,1.95,3.892,3.892,0,0,0,4.521,0,4.311,4.311,0,0,0,1.4-1.95,7.541,7.541,0,0,0,.466-2.715v-.309a7.543,7.543,0,0,0-.47-2.715,4.44,4.44,0,0,0-1.406-1.959,3.585,3.585,0,0,0-2.268-.728,3.541,3.541,0,0,0-2.249.728,4.453,4.453,0,0,0-1.392,1.959,7.641,7.641,0,0,0-.466,2.715Z" fill="#fff"/>
        <path id="Caminho_8263" data-name="Caminho 8263" d="M62.105,0H138.9V77.8H61.1V0h1.005Zm74.784,2.011H63.111V75.789h73.779V2.011Z" fill="#fff"/>
      </g>
    </g>
  </g>
</svg>
