<?xml version="1.0" encoding="UTF-8"?>
<!DOCTYPE svg PUBLIC "-//W3C//DTD SVG 1.1//EN" "http://www.w3.org/Graphics/SVG/1.1/DTD/svg11.dtd">
<!-- Creator: CorelDRAW 2018 (64 Bit Versão de avaliação) -->
<svg xmlns="http://www.w3.org/2000/svg" xml:space="preserve" width="5.08mm" height="5.08mm" version="1.1" style="shape-rendering:geometricPrecision; text-rendering:geometricPrecision; image-rendering:optimizeQuality; fill-rule:evenodd; clip-rule:evenodd"
viewBox="0 0 18.55 18.55"
 xmlns:xlink="http://www.w3.org/1999/xlink">
 <defs>
  <style type="text/css">
   <![CDATA[
    .fil0 {fill:#33CC99;fill-rule:nonzero}
    .fil1 {fill:#999999;fill-rule:nonzero}
   ]]>
  </style>
 </defs>
 <g id="Camada_x0020_1">
  <metadata id="CorelCorpID_0Corel-Layer"/>
  <g id="_2231299306240">
   <path class="fil0" d="M2.96 2.96l2.53 0 0 1.26c1.06,-0.79 2.37,-1.26 3.79,-1.26 0.43,0 0.85,0.04 1.26,0.13l0 2.62c-0.4,-0.14 -0.82,-0.22 -1.26,-0.22 -2.09,0 -3.79,1.7 -3.79,3.79l0 6.31 -2.53 0 0 -12.63zm5.05 9.89c0.4,0.14 0.82,0.22 1.26,0.22 2.09,0 3.79,-1.7 3.79,-3.79l0 -6.31 2.53 0 0 12.63 -2.53 0 0 -1.26c-1.06,0.79 -2.37,1.26 -3.79,1.26 -0.43,0 -0.85,-0.04 -1.26,-0.13l0 -2.62z"/>
   <path class="fil1" d="M0.24 0l18.07 0 0.24 0 0 0.24 0 18.07 0 0.24 -0.24 0 -18.07 0 -0.24 0 0 -0.24 0 -18.07 0 -0.24 0.24 0zm17.83 0.48l-17.59 0 0 17.59 17.59 0 0 -17.59z"/>
  </g>
 </g>
</svg>
