<?xml version="1.0" encoding="UTF-8"?>
<!DOCTYPE svg PUBLIC "-//W3C//DTD SVG 1.1//EN" "http://www.w3.org/Graphics/SVG/1.1/DTD/svg11.dtd">
<!-- Creator: CorelDRAW 2018 (64 Bit Versão de avaliação) -->
<svg xmlns="http://www.w3.org/2000/svg" xml:space="preserve" width="65px" height="65px" version="1.1" style="shape-rendering:geometricPrecision; text-rendering:geometricPrecision; image-rendering:optimizeQuality; fill-rule:evenodd; clip-rule:evenodd"
viewBox="0 0 283.52 283.52"
 xmlns:xlink="http://www.w3.org/1999/xlink">
 <defs>
  <style type="text/css">
   <![CDATA[
    .fil0 {fill:black;fill-rule:nonzero}
   ]]>
  </style>
 </defs>
 <g id="Camada_x0020_1">
  <metadata id="CorelCorpID_0Corel-Layer"/>
  <path class="fil0" d="M3.66 0l276.19 0 3.67 0 0 3.66 0 276.19 0 3.67 -3.67 0 -276.19 0 -3.66 0 0 -3.67 0 -276.19 0 -3.66 3.66 0zm41.56 45.22l38.62 0 0 19.3c16.13,-12.12 36.18,-19.3 57.92,-19.3 6.61,0 13.07,0.67 19.3,1.93l0 39.99c-6.04,-2.13 -12.53,-3.3 -19.3,-3.3 -31.99,0 -57.92,25.93 -57.92,57.92l0 96.54 -38.62 0 0 -193.08zm77.23 151.16c6.04,2.13 12.54,3.3 19.31,3.3 31.99,0 57.92,-25.93 57.92,-57.92l0 -96.54 38.62 0 0 193.08 -38.62 0 0 -19.3c-16.13,12.11 -36.19,19.3 -57.92,19.3 -6.61,0 -13.07,-0.67 -19.31,-1.93l0 -39.99zm153.74 -189.05l-268.86 0 0 268.86 268.86 0 0 -268.86z"/>
 </g>
</svg>
